<svg width="11" height="10" viewBox="0 0 11 10" fill="none" xmlns="http://www.w3.org/2000/svg">
<path d="M10.2541 4.40658L6.09444 0.246913C5.76636 -0.0811649 5.23427 -0.0811649 4.9062 0.246913C4.57812 0.57499 4.57812 1.10708 4.9062 1.43516L8.47134 5.00029L4.9062 8.5654C4.57812 8.89348 4.57812 9.42557 4.9062 9.75364C5.23427 10.0817 5.76636 10.0817 6.09444 9.75364L10.2541 5.59399C10.5822 5.26673 10.5822 4.73466 10.2541 4.40658ZM5.25259 4.15469L1.95018 0.674088C1.61835 0.324786 1.08086 0.324786 0.749029 0.674088C0.417194 1.02339 0.417194 1.59004 0.749029 1.93977L3.45108 4.78753L0.749029 7.6353C0.417194 7.98462 0.417194 8.55166 0.749029 8.90098C1.08086 9.25029 1.61835 9.25029 1.95018 8.90098L5.25259 5.42037C5.58443 5.07107 5.58443 4.50442 5.25259 4.15469Z" fill="white"/>
</svg>
