<svg id="Layer_1" data-name="Layer 1" xmlns="http://www.w3.org/2000/svg" viewBox="0 0 318 433" fill="white">
  <title>Prosopo Store</title>
  <path d="M335.55,1825.19A147.75,147.75,0,0,1,483.3,1972.94h50.5c0-109.49-88.76-198.25-198.25-198.25v50.5Z" transform="translate(-215.73 -1774.69)"></path>
  <path d="M269.36,1891.39A147.74,147.74,0,0,1,417.1,2039.13h50.5c0-109.49-88.75-198.24-198.24-198.24v50.5Z" transform="translate(-215.73 -1774.69)"></path>
  <path d="M414,2157.17a147.75,147.75,0,0,1-147.74-147.74h-50.5c0,109.49,88.75,198.24,198.24,198.24v-50.5Z" transform="translate(-215.73 -1774.69)"></path>
  <path d="M480.17,2091a147.74,147.74,0,0,1-147.74-147.75H281.92c0,109.49,88.76,198.25,198.25,198.25V2091Z" transform="translate(-215.73 -1774.69)"></path>
</svg>