<svg width="60" height="54" viewBox="0 0 60 54" fill="none" xmlns="http://www.w3.org/2000/svg">
    <path opacity="0.1" d="M46.4892 17.169H46.3814C45.3433 8.14645 37.1873 1.67384 28.1648 2.71243C20.572 3.58617 14.5815 9.57624 13.7078 17.169H13.6004C7.54528 17.169 2.63702 22.0772 2.63702 28.1324C2.63702 34.1871 7.54528 39.0953 13.6004 39.0953H46.4892C52.5444 39.0953 57.4526 34.1871 57.4526 28.1324C57.4526 22.0777 52.5439 17.169 46.4892 17.169Z" fill="url(#paint0_linear)"/>
    <path d="M47.9641 15.4371C45.9916 5.54036 36.3698 -0.883239 26.4731 1.08924C19.2346 2.53196 13.5747 8.18831 12.1275 15.4259C5.1104 16.2346 0.0769392 22.5785 0.88518 29.596C1.62926 36.0544 7.09937 40.927 13.6005 40.9225H22.7362C23.7454 40.9225 24.5634 40.1045 24.5634 39.0953C24.5634 38.0861 23.7454 37.2681 22.7362 37.2681H13.6005C8.55456 37.2382 4.4884 33.1239 4.51825 28.0784C4.54811 23.0325 8.66238 18.9663 13.7079 18.9962C14.6395 18.9962 15.4219 18.2958 15.5244 17.3699C16.4521 9.35077 23.7053 3.60174 31.7249 4.52939C38.4671 5.30912 43.7857 10.6277 44.5654 17.3699C44.7187 18.3123 45.5349 19.0024 46.4893 18.9962C51.5353 18.9962 55.6255 23.0864 55.6255 28.1324C55.6255 33.1778 51.5353 37.2681 46.4893 37.2681H37.3536C36.3444 37.2681 35.5264 38.0861 35.5264 39.0953C35.5264 40.1045 36.3444 40.9225 37.3536 40.9225H46.4893C53.5532 40.8784 59.2438 35.1165 59.1997 28.053C59.1601 21.6205 54.3489 16.2186 47.9641 15.4371Z" fill="url(#paint1_linear)"/>
    <path d="M36.504 33.5222C37.2049 34.248 38.362 34.2681 39.0878 33.5672C39.8136 32.8664 39.8337 31.7097 39.1328 30.9834C39.1181 30.9683 39.103 30.9536 39.0878 30.9384L31.3387 23.188C30.6258 22.4733 29.4691 22.4719 28.7544 23.1844C28.7535 23.1857 28.7522 23.1866 28.7513 23.188L21.0022 30.9389C20.2764 31.6397 20.2563 32.7964 20.9572 33.5222C21.6585 34.248 22.8152 34.2685 23.541 33.5672C23.5561 33.5525 23.5713 33.5374 23.586 33.5222L28.218 28.8884V51.8854C28.218 52.8946 29.036 53.7126 30.0448 53.7126C31.054 53.7126 31.872 52.8946 31.872 51.8854V28.8884L36.504 33.5222Z" fill="url(#paint2_linear)"/>
    <defs>
        <linearGradient id="paint0_linear" x1="30.0448" y1="2.60303" x2="30.0448" y2="39.0953" gradientUnits="userSpaceOnUse">
            <stop stop-color="#FCA963"/>
            <stop offset="1" stop-color="#FD4857"/>
        </linearGradient>
        <linearGradient id="paint1_linear" x1="30" y1="0.733276" x2="30" y2="40.9225" gradientUnits="userSpaceOnUse">
            <stop stop-color="#FCA963"/>
            <stop offset="1" stop-color="#FD4857"/>
        </linearGradient>
        <linearGradient id="paint2_linear" x1="30.045" y1="22.651" x2="30.045" y2="53.7126" gradientUnits="userSpaceOnUse">
            <stop stop-color="#FCA963"/>
            <stop offset="1" stop-color="#FD4857"/>
        </linearGradient>
    </defs>
</svg>
