<svg width="150" height="150" viewBox="0 0 150 150" fill="none" xmlns="http://www.w3.org/2000/svg">
<path d="M143.708 98.9177L55.9555 146.7C49.1607 150.402 40.6451 147.753 37.1501 140.846L3.27664 73.9384C0.00638306 67.8059 2.25357 58.8763 9.26717 54.3997L86.405 15.3163L96.8367 10.0354C101.934 7.45112 108.155 9.651 110.497 14.8668L112.892 20.1891C116.346 20.5262 119.533 22.6433 121.065 26.0496L148.049 86.0437C150.19 90.8101 148.303 96.4221 143.708 98.9177Z" fill="#E77E23"/>
<g opacity="0.3">
<path opacity="0.3" d="M23.8806 62.7972C19.4098 67.2029 0.740386 66.31 13.7386 57.4454L89.1674 19.1722L98.7121 14.3407C103.81 11.7564 110.031 13.9563 112.373 19.1662" fill="#650000"/>
</g>
<g opacity="0.3">
<path opacity="0.3" d="M143.708 98.9178L55.9553 146.7C51.3603 149.202 45.973 148.8 41.8926 146.138C44.5182 146.387 47.2385 145.884 49.7341 144.53L137.487 96.7475C142.076 94.2519 143.968 88.6399 141.822 83.8735L137.848 75.0326L122.046 83.2052C116.156 86.2508 108.912 83.7611 106.144 77.7292C105.423 76.1621 105.08 74.5122 105.08 72.8859C105.08 68.6695 107.386 64.6127 111.36 62.5547L128.297 53.7907L132.555 51.5908L142.099 72.8209L148.043 86.032C150.189 90.8102 148.303 96.4223 143.708 98.9178Z" fill="#650000"/>
</g>
<g opacity="0.3">
<path opacity="0.3" d="M132.561 51.6027L128.303 53.8025L114.844 23.8735C114.11 22.2472 113.004 20.9167 111.674 19.935C111.981 19.8581 112.33 19.7694 112.667 19.6748L112.898 20.1775C116.351 20.5145 119.539 22.6316 121.071 26.0379L132.561 51.6027Z" fill="#650000"/>
</g>
<g opacity="0.6">
<path opacity="0.6" d="M114.554 20.4849C111.272 21.6144 108.072 22.9804 104.98 24.5653L28.8057 63.6782C26.529 64.8432 24.0334 65.5292 21.4787 65.6416C19.7164 65.7185 17.487 65.6889 14.8613 65.3932C19.267 65.1981 23.2706 64.3228 26.8069 62.6374C26.8069 62.6374 106.269 21.7859 106.458 21.6912C106.647 21.6025 114.554 20.4849 114.554 20.4849Z" fill="white"/>
</g>
<g opacity="0.6">
<path opacity="0.6" d="M104.613 9.49134C103.135 9.50908 101.644 9.85799 100.231 10.5735L89.7994 15.8544L12.6616 54.9378C5.64802 59.4204 3.40082 68.3441 6.67108 74.4766L40.5504 141.39C42.3423 144.926 45.441 147.345 48.9597 148.368C44.1223 148.208 39.5037 145.494 37.156 140.851L3.27664 73.9384C0.00638294 67.806 2.25357 58.8763 9.26718 54.3997L86.405 15.3163L96.8367 10.0354C99.3618 8.75213 102.153 8.64569 104.613 9.49134Z" fill="white"/>
</g>
<path d="M61.9887 44.2106L46.3293 52.1231L24.4961 63.1461L14.1413 57.197L1.08984 49.6925L24.8628 8.3324L48.3341 21.8274L51.3855 26.8244L61.9887 44.2106Z" fill="#29B860"/>
<path d="M43.7202 25.1212L31.0236 17.8237C29.6694 20.1774 26.6711 20.9875 24.3175 19.6333L10.5801 43.5363C12.9337 44.8906 13.7439 47.8888 12.3897 50.2424L19.6043 54.3938L30.036 60.3903L52.437 49.4736L41.3015 33.6014L40.7102 32.4186L38.3211 29.2844L43.7202 25.1212Z" fill="#4FEC91"/>
<path d="M35.7904 49.8403C39.1642 49.8403 41.8992 47.1053 41.8992 43.7315C41.8992 40.3577 39.1642 37.6227 35.7904 37.6227C32.4166 37.6227 29.6816 40.3577 29.6816 43.7315C29.6816 47.1053 32.4166 49.8403 35.7904 49.8403Z" fill="#1FBC61"/>
<g opacity="0.3">
<path opacity="0.3" d="M61.9879 44.2105L46.3286 52.123L44.3711 49.3909L41.6154 45.5293L36.0684 37.7646L46.6006 30.2424L51.3847 26.8243L61.9879 44.2105Z" fill="#650000"/>
</g>
<path d="M95.0805 27.457L89.1669 19.172L86.4052 15.3104L76.6299 1.62024L48.333 21.8272L37.8066 29.3435L43.3537 37.114L46.1094 40.9757L52.0231 49.2548" fill="#29B860"/>
<path d="M90.4258 29.8108L84.5122 21.5258L78.2851 12.8091C76.0793 14.388 73.0101 13.8735 71.4312 11.6677L49.0007 27.6937C50.5797 29.8995 50.0652 32.9687 47.8594 34.5477L50.763 38.6163L56.6766 46.8954" fill="#4FEC91"/>
<g opacity="0.6">
<path opacity="0.6" d="M95.0805 27.457L93.1054 28.4564L88.6938 22.2707L85.9321 18.4091L76.1568 4.719L47.8599 24.926L39.1136 31.1708L37.8066 29.3435L48.333 21.8272L76.6299 1.62024L86.4052 15.3104L89.1669 19.172L95.0805 27.457Z" fill="white"/>
</g>
<g opacity="0.55">
<path opacity="0.55" d="M48.3341 21.8274L46.1697 23.3708L25.8622 11.6973L3.29564 50.964L1.08984 49.6926L24.8628 8.3324L48.3341 21.8274Z" fill="white"/>
</g>
<path d="M70.8178 39.1189C74.1915 39.1189 76.9265 36.3839 76.9265 33.0101C76.9265 29.6363 74.1915 26.9012 70.8178 26.9012C67.444 26.9012 64.709 29.6363 64.709 33.0101C64.709 36.3839 67.444 39.1189 70.8178 39.1189Z" fill="#1FBC61"/>
<path d="M49.4218 149.468C47.9434 149.468 46.4531 149.243 44.9984 148.788C41.1427 147.587 38.0143 144.944 36.187 141.337L2.3077 74.4294C2.03567 73.8913 2.24856 73.2408 2.7867 72.9688C3.31893 72.6967 3.97535 72.9096 4.24738 73.4478L38.1267 140.361C39.682 143.436 42.355 145.695 45.643 146.718C48.9309 147.741 52.4141 147.398 55.4419 145.754L143.195 97.9717C147.263 95.76 148.96 90.7157 147.062 86.4933L120.078 26.4874C118.771 23.5719 115.974 21.5731 112.792 21.2597C111.107 21.0941 109.416 21.4134 107.896 22.1822L26.1279 63.5838C25.6962 63.7967 25.3 63.98 24.9333 64.1397C17.6773 67.3567 10.3621 67.2325 8.63531 63.8676C8.07942 62.7854 7.44666 59.8759 13.5969 56.2567C14.1113 55.9552 14.7796 56.1266 15.0812 56.6411C15.3828 57.1556 15.2113 57.8239 14.6968 58.1255C11.2137 60.1716 10.1137 61.9871 10.5632 62.8682C11.3319 64.3585 16.6365 65.4288 24.0522 62.1409C24.3952 61.9871 24.7678 61.8156 25.1581 61.6264L106.914 20.2366C108.801 19.2786 110.906 18.8824 112.999 19.0894C116.956 19.4738 120.427 21.9634 122.059 25.5885L149.037 85.5885C151.403 90.8399 149.292 97.1083 144.229 99.8641L56.4768 147.658C54.271 148.859 51.8582 149.468 49.4218 149.468Z" fill="#650000"/>
<path d="M89.1662 20.2602C88.77 20.2602 88.3856 20.0414 88.1964 19.6629C87.9243 19.1248 88.1372 18.4743 88.6754 18.2022L98.22 13.3708C100.952 11.987 104.045 11.7859 106.937 12.809C109.829 13.8321 112.111 15.9314 113.365 18.7226C113.613 19.2726 113.365 19.9113 112.821 20.1597C112.277 20.408 111.632 20.1597 111.384 19.6156C110.373 17.3684 108.539 15.6771 106.215 14.8551C103.891 14.0331 101.402 14.1928 99.2017 15.3105L89.657 20.1419C89.4974 20.2188 89.3318 20.2602 89.1662 20.2602Z" fill="#650000"/>
<path d="M11.8469 74.1455C11.8114 74.1455 11.77 74.1455 11.7345 74.1336C10.5045 73.9444 9.49913 73.5777 8.75992 73.0455C8.42876 72.809 8.35188 72.3477 8.58843 72.0165C8.82497 71.6854 9.28624 71.6085 9.6174 71.845C10.1615 72.2353 10.9716 72.5192 11.9592 72.6729C12.3613 72.738 12.6393 73.1106 12.5742 73.5186C12.521 73.8853 12.2076 74.1455 11.8469 74.1455Z" fill="#650000"/>
<path d="M50.9769 142.673C50.628 142.673 50.3145 142.419 50.2495 142.064C50.1785 141.662 50.4446 141.277 50.8468 141.206C52.3784 140.934 53.9751 140.349 55.5895 139.468L56.0035 139.243C56.3642 139.048 56.8137 139.184 57.0029 139.545C57.198 139.905 57.062 140.355 56.7013 140.544L56.2873 140.763C54.5369 141.715 52.7864 142.354 51.1011 142.655C51.0656 142.667 51.0242 142.673 50.9769 142.673ZM61.4559 137.907C61.1898 137.907 60.9355 137.765 60.8054 137.516C60.6102 137.156 60.7462 136.706 61.107 136.517L66.2045 133.791C66.5653 133.596 67.0147 133.732 67.204 134.092C67.3991 134.453 67.2631 134.903 66.9024 135.092L61.8048 137.818C61.6924 137.877 61.5741 137.907 61.4559 137.907ZM71.6451 132.454C71.379 132.454 71.1247 132.312 70.9946 132.064C70.7995 131.703 70.9355 131.254 71.2962 131.065L76.3938 128.338C76.7545 128.143 77.204 128.279 77.3932 128.64C77.5824 129.001 77.4523 129.45 77.0916 129.639L71.994 132.366C71.8817 132.425 71.7634 132.454 71.6451 132.454ZM81.8344 126.996C81.5682 126.996 81.314 126.854 81.1839 126.606C80.9887 126.245 81.1247 125.795 81.4855 125.606L86.583 122.88C86.9438 122.685 87.3932 122.821 87.5824 123.182C87.7776 123.542 87.6416 123.992 87.2808 124.181L82.1833 126.907C82.0709 126.966 81.9526 126.996 81.8344 126.996ZM92.0236 121.538C91.7575 121.538 91.5032 121.396 91.3731 121.147C91.1779 120.787 91.3139 120.337 91.6747 120.148L96.7723 117.422C97.133 117.227 97.5824 117.363 97.7717 117.723C97.9668 118.084 97.8308 118.533 97.4701 118.723L92.3725 121.449C92.2601 121.514 92.1419 121.538 92.0236 121.538ZM102.213 116.085C101.947 116.085 101.692 115.943 101.562 115.695C101.367 115.334 101.503 114.885 101.864 114.696L106.961 111.969C107.322 111.774 107.772 111.91 107.961 112.271C108.156 112.632 108.02 113.081 107.659 113.27L102.562 115.997C102.449 116.056 102.331 116.085 102.213 116.085ZM112.402 110.627C112.136 110.627 111.882 110.485 111.752 110.237C111.556 109.876 111.692 109.426 112.053 109.237L117.151 106.511C117.511 106.316 117.961 106.452 118.15 106.813C118.345 107.173 118.209 107.623 117.849 107.812L112.751 110.538C112.639 110.597 112.52 110.627 112.402 110.627ZM122.591 105.169C122.325 105.169 122.071 105.027 121.941 104.778C121.746 104.418 121.882 103.968 122.242 103.779L127.34 101.053C127.701 100.858 128.15 100.994 128.339 101.354C128.535 101.715 128.399 102.164 128.038 102.354L122.94 105.08C122.828 105.145 122.71 105.169 122.591 105.169ZM132.781 99.7162C132.514 99.7162 132.26 99.5743 132.13 99.3259C131.935 98.9652 132.071 98.5157 132.432 98.3265L136.979 95.8901C137.145 95.8014 137.31 95.7008 137.47 95.6003C137.813 95.3815 138.274 95.4879 138.487 95.8309C138.706 96.1739 138.6 96.6352 138.257 96.8481C138.067 96.9663 137.872 97.0787 137.677 97.1852L133.129 99.6216C133.017 99.6866 132.899 99.7162 132.781 99.7162ZM141.627 92.6849C141.521 92.6849 141.42 92.6612 141.32 92.6139C140.947 92.4424 140.788 92.0048 140.959 91.6322C141.515 90.4199 141.811 89.0834 141.811 87.7529C141.811 87.3034 141.775 86.854 141.71 86.4105C141.651 86.0083 141.929 85.6299 142.331 85.5707C142.733 85.5116 143.112 85.7895 143.171 86.1917C143.248 86.7061 143.283 87.2325 143.283 87.7529C143.283 89.2904 142.94 90.8457 142.296 92.2532C142.171 92.5252 141.905 92.6849 141.627 92.6849ZM140.409 81.6618C140.131 81.6618 139.859 81.5021 139.735 81.2301L137.334 75.9728C137.163 75.6003 137.328 75.1627 137.701 74.9912C138.073 74.8197 138.511 74.9853 138.682 75.3578L141.083 80.6151C141.255 80.9876 141.089 81.4252 140.717 81.5967C140.616 81.6381 140.51 81.6618 140.409 81.6618ZM17.5943 73.8735C17.2513 73.8735 16.9437 73.631 16.8728 73.2821C16.79 72.88 17.0502 72.4897 17.4523 72.4128C19.1969 72.058 20.9946 71.4785 22.7983 70.6919C23.1708 70.5264 23.6084 70.6979 23.774 71.0763C23.9396 71.4489 23.7681 71.8865 23.3896 72.0521C21.4914 72.88 19.5931 73.4891 17.748 73.8617C17.6889 73.8676 17.6416 73.8735 17.5943 73.8735ZM135.601 71.1473C135.323 71.1473 135.051 70.9876 134.927 70.7156L132.526 65.4583C132.355 65.0858 132.52 64.6482 132.893 64.4767C133.265 64.3052 133.703 64.4708 133.875 64.8433L136.276 70.1006C136.447 70.4731 136.281 70.9107 135.909 71.0822C135.814 71.1236 135.708 71.1473 135.601 71.1473ZM28.2625 69.5447C27.9905 69.5447 27.7303 69.3968 27.6002 69.1366C27.4168 68.77 27.5588 68.3265 27.9254 68.1432L33.0821 65.5293C33.4488 65.346 33.8923 65.4879 34.0756 65.8546C34.2589 66.2212 34.117 66.6647 33.7504 66.8481L28.5937 69.4619C28.4872 69.5151 28.3749 69.5447 28.2625 69.5447ZM38.57 64.317C38.298 64.317 38.0378 64.1692 37.9077 63.909C37.7244 63.5423 37.8663 63.0988 38.2329 62.9155L43.3896 60.3016C43.7563 60.1183 44.1998 60.2602 44.3831 60.6269C44.5665 60.9935 44.4245 61.4371 44.0579 61.6204L38.9012 64.2342C38.8006 64.2874 38.6824 64.317 38.57 64.317ZM130.799 60.6328C130.522 60.6328 130.249 60.4731 130.125 60.2011L127.724 54.9438C127.553 54.5713 127.718 54.1337 128.091 53.9622C128.464 53.7907 128.901 53.9563 129.073 54.3288L131.474 59.5861C131.645 59.9586 131.48 60.3962 131.107 60.5677C131.006 60.6151 130.9 60.6328 130.799 60.6328ZM48.8834 59.0893C48.6114 59.0893 48.3512 58.9415 48.2211 58.6813C48.0378 58.3146 48.1797 57.8711 48.5464 57.6878L53.7031 55.0739C54.0697 54.8906 54.5132 55.0326 54.6966 55.3992C54.8799 55.7658 54.738 56.2094 54.3713 56.3927L49.2146 59.0065C49.1082 59.0657 48.9958 59.0893 48.8834 59.0893ZM59.1909 53.8616C58.9189 53.8616 58.6587 53.7138 58.5286 53.4536C58.3453 53.087 58.4872 52.6434 58.8539 52.4601L64.0106 49.8463C64.3772 49.6629 64.8207 49.8049 65.0041 50.1715C65.1874 50.5382 65.0455 50.9817 64.6788 51.165L59.5221 53.7789C59.4157 53.838 59.3033 53.8616 59.1909 53.8616ZM125.992 50.1242C125.714 50.1242 125.442 49.9645 125.318 49.6925L122.917 44.4353C122.745 44.0627 122.911 43.6251 123.283 43.4536C123.656 43.2821 124.093 43.4477 124.265 43.8202L126.666 49.0775C126.837 49.4501 126.672 49.8877 126.299 50.0592C126.199 50.1006 126.098 50.1242 125.992 50.1242ZM69.4985 48.634C69.2264 48.634 68.9662 48.4861 68.8361 48.2259C68.6528 47.8593 68.7947 47.4158 69.1614 47.2324L74.3181 44.6186C74.6847 44.4353 75.1283 44.5772 75.3116 44.9438C75.4949 45.3105 75.353 45.754 74.9863 45.9373L69.8296 48.5512C69.7291 48.6103 69.6108 48.634 69.4985 48.634ZM79.8119 43.4122C79.5399 43.4122 79.2797 43.2644 79.1496 43.0042C78.9662 42.6375 79.1082 42.194 79.4748 42.0107L84.6315 39.3968C84.9982 39.2135 85.4417 39.3554 85.625 39.7221C85.8083 40.0887 85.6664 40.5322 85.2998 40.7156L80.143 43.3294C80.0366 43.3826 79.9242 43.4122 79.8119 43.4122ZM121.19 39.6097C120.912 39.6097 120.64 39.45 120.516 39.178L118.115 33.9208C117.943 33.5482 118.109 33.1106 118.481 32.9391C118.854 32.7676 119.291 32.9332 119.463 33.3057L121.864 38.563C122.035 38.9356 121.87 39.3732 121.497 39.5447C121.397 39.5861 121.29 39.6097 121.19 39.6097ZM90.1194 38.1845C89.8474 38.1845 89.5872 38.0367 89.4571 37.7765C89.2737 37.4098 89.4157 36.9663 89.7823 36.783L94.939 34.1691C95.3057 33.9858 95.7492 34.1277 95.9325 34.4944C96.1158 34.861 95.9739 35.3046 95.6073 35.4879L90.4506 38.1017C90.3441 38.155 90.2318 38.1845 90.1194 38.1845ZM100.427 32.9568C100.155 32.9568 99.8947 32.809 99.7646 32.5488C99.5813 32.1822 99.7232 31.7386 100.09 31.5553L105.247 28.9415C105.613 28.7581 106.057 28.9001 106.24 29.2667C106.423 29.6334 106.281 30.0769 105.915 30.2602L100.758 32.8741C100.658 32.9332 100.539 32.9568 100.427 32.9568ZM116.104 29.2667C115.915 29.2667 115.72 29.1958 115.578 29.0479C114.697 28.1549 113.472 27.6405 112.213 27.6405C111.793 27.6405 111.379 27.6937 110.977 27.806C110.581 27.9125 110.179 27.6819 110.066 27.2856C109.96 26.8894 110.19 26.4873 110.587 26.3749C111.113 26.2271 111.663 26.1561 112.213 26.1561C113.863 26.1561 115.477 26.8303 116.63 28.0071C116.914 28.2969 116.914 28.7641 116.624 29.0538C116.477 29.1958 116.287 29.2667 116.104 29.2667Z" fill="#650000"/>
<path d="M45.2774 142.2C45.1887 142.2 45.1 142.182 45.0113 142.147C44.071 141.78 43.178 141.271 42.362 140.627C42.0426 140.372 41.9835 139.911 42.2319 139.592C42.4861 139.272 42.9474 139.213 43.2667 139.462C43.9705 140.012 44.7392 140.449 45.5435 140.769C45.922 140.917 46.1112 141.348 45.9634 141.727C45.851 142.022 45.5731 142.2 45.2774 142.2Z" fill="#650000"/>
<path d="M112.892 21.2714C112.478 21.2714 112.082 21.0349 111.898 20.6327L109.509 15.3104C108.498 13.0633 106.665 11.3719 104.341 10.5499C102.017 9.72795 99.5269 9.88762 97.327 11.0053L86.8953 16.2862C86.3572 16.5582 85.7067 16.3453 85.4346 15.8072C85.1626 15.269 85.3755 14.6185 85.9137 14.3465L96.3453 9.06562C99.0774 7.68182 102.176 7.48075 105.062 8.50382C107.948 9.52688 110.231 11.6262 111.49 14.4234L113.879 19.7457C114.128 20.2957 113.879 20.9343 113.335 21.1827C113.193 21.2359 113.045 21.2714 112.892 21.2714Z" fill="#650000"/>
<path d="M3.27692 75.0206C2.88662 75.0206 2.51405 74.8137 2.3189 74.447C-1.38896 67.4985 1.46142 58.0899 8.682 53.4831C9.19058 53.1579 9.85882 53.3057 10.1841 53.8143C10.5093 54.3169 10.3615 54.9911 9.85291 55.3164C3.56669 59.3317 1.04747 67.4571 4.23493 73.4299C4.51879 73.9621 4.31772 74.6185 3.78549 74.9024C3.62582 74.9792 3.45433 75.0206 3.27692 75.0206Z" fill="#650000"/>
<path d="M52.0219 50.343C51.6849 50.343 51.3478 50.1833 51.1349 49.8876L36.9185 29.9763C36.7529 29.7398 36.6819 29.45 36.7292 29.1662C36.7765 28.8823 36.9362 28.628 37.1668 28.4624L75.9959 0.733288C76.2324 0.567706 76.5222 0.496742 76.8061 0.544051C77.0899 0.59136 77.3442 0.751029 77.5098 0.981662L95.9604 26.8184C96.3093 27.3093 96.1969 27.9834 95.7061 28.3323C95.2153 28.6813 94.5411 28.5689 94.1922 28.0781L76.3744 3.13423L39.3194 29.5979L52.909 48.6221C53.2579 49.1129 53.1455 49.7871 52.6547 50.136C52.4655 50.2779 52.2407 50.343 52.0219 50.343Z" fill="#650000"/>
<path d="M56.6767 47.8474C56.381 47.8474 56.0853 47.7114 55.902 47.4512L47.0848 35.0975C46.7773 34.6718 46.8778 34.0745 47.3036 33.7729C49.0836 32.5015 49.4975 30.0236 48.2261 28.2436C48.0783 28.0366 48.0191 27.7824 48.0605 27.534C48.1019 27.2856 48.2379 27.0609 48.4449 26.919L70.8754 10.8989C71.3012 10.5913 71.8984 10.6919 72.2 11.1177C73.4715 12.8977 75.9493 13.3116 77.7293 12.0402C77.9363 11.8923 78.1906 11.8332 78.4389 11.8746C78.6873 11.916 78.912 12.052 79.054 12.259L91.1947 29.2608C91.5022 29.6866 91.4016 30.2838 90.9759 30.5854C90.5501 30.8929 89.9528 30.7924 89.6512 30.3666L78.0191 14.0745C75.7719 15.1803 73.0398 14.725 71.2716 12.9509L50.2604 27.9598C51.3662 30.207 50.9109 32.9391 49.1368 34.7073L57.4514 46.3453C57.7589 46.7711 57.6584 47.3684 57.2326 47.67C57.0611 47.7883 56.8719 47.8474 56.6767 47.8474Z" fill="#650000"/>
<path d="M24.4894 64.2342C24.3061 64.2342 24.1168 64.1869 23.9512 64.0923L0.544981 50.6387C0.0245789 50.3371 -0.152831 49.6748 0.142852 49.1544L23.9217 7.79425C24.2233 7.27385 24.8856 7.09644 25.406 7.39212L48.8773 20.8871C49.3977 21.1887 49.5751 21.851 49.2795 22.3714C48.9779 22.8918 48.3155 23.0692 47.7951 22.7736L25.2641 9.82263L2.56745 49.2963L25.0334 62.2118C25.5538 62.5134 25.7313 63.1757 25.4356 63.6961C25.2345 64.0391 24.8679 64.2342 24.4894 64.2342Z" fill="#650000"/>
<path d="M30.0352 61.3364C29.8755 61.3364 29.71 61.295 29.5621 61.2122L11.9157 51.0644C11.4604 50.8042 11.3066 50.2246 11.5668 49.7693C12.655 47.8769 11.9985 45.4523 10.1062 44.3583C9.65081 44.0981 9.49706 43.5185 9.75726 43.0632L23.4947 19.1602C23.6189 18.9414 23.8259 18.7817 24.0683 18.7167C24.3108 18.6516 24.571 18.6871 24.7898 18.8113C26.6822 19.8994 29.1127 19.243 30.2008 17.3506C30.461 16.8953 31.0405 16.7356 31.4959 17.0017L44.1925 24.2992C44.6479 24.5594 44.8016 25.1389 44.5414 25.5942C44.2812 26.0496 43.6958 26.2034 43.2463 25.9432L31.3067 19.0833C30.5379 20.0295 29.4912 20.7096 28.2907 21.0348C27.0902 21.3601 25.8424 21.295 24.7011 20.8633L11.8389 43.2524C13.7786 44.8373 14.5 47.5103 13.6189 49.8521L30.5083 59.5623C30.9637 59.8225 31.1174 60.402 30.8572 60.8574C30.6857 61.1649 30.3664 61.3364 30.0352 61.3364Z" fill="#650000"/>
<path d="M141.479 68.2731L119.693 79.5445C113.803 82.5901 106.559 80.1004 103.791 74.0744C101.201 68.4328 103.501 61.7563 109.013 58.9059L131.532 47.256C132.975 46.5109 134.749 47.12 135.423 48.5984L142.756 64.5712C143.389 65.9372 142.827 67.5753 141.479 68.2731Z" fill="#E77E23"/>
<g opacity="0.6">
<path opacity="0.6" d="M115.033 74.9379C117.859 74.9379 120.149 72.6477 120.149 69.8226C120.149 66.9975 117.859 64.7073 115.033 64.7073C112.208 64.7073 109.918 66.9975 109.918 69.8226C109.918 72.6477 112.208 74.9379 115.033 74.9379Z" fill="white"/>
</g>
<g opacity="0.3">
<path opacity="0.3" d="M141.48 68.2732L119.694 79.5446C113.804 82.5902 106.559 80.1005 103.792 74.0686C103.597 73.6428 103.431 73.217 103.295 72.7853C106.607 77.2797 112.81 78.8646 117.979 76.1916L139.765 64.9201C141.113 64.2223 141.675 62.5902 141.042 61.2064L134.88 47.7823C135.099 48.0071 135.288 48.2791 135.43 48.5807L142.763 64.5476C143.396 65.9373 142.828 67.5754 141.48 68.2732Z" fill="#650000"/>
</g>
<g opacity="0.6">
<path opacity="0.6" d="M135.417 48.5808C134.767 48.4152 134.057 48.4802 133.418 48.8114L110.899 60.4613C106.919 62.5192 104.619 66.576 104.619 70.7924C104.619 72.4187 104.962 74.0627 105.683 75.6357C106.257 76.8835 107.02 77.9775 107.93 78.906C106.192 77.7587 104.737 76.1206 103.803 74.0745C103.081 72.5074 102.738 70.8575 102.738 69.2312C102.738 65.0148 105.045 60.958 109.019 58.9001L131.538 47.2502C132.969 46.5051 134.737 47.1083 135.417 48.5808Z" fill="white"/>
</g>
<path d="M114.371 81.9397C112.981 81.9397 111.58 81.7091 110.219 81.236C106.902 80.0946 104.27 77.7114 102.804 74.524C99.9651 68.3442 102.472 61.0586 108.51 57.9361L131.03 46.2862C131.993 45.7895 133.088 45.7067 134.116 46.0615C135.145 46.4163 135.956 47.1496 136.411 48.1372L143.744 64.11C144.619 66.0201 143.844 68.2732 141.976 69.2431L120.19 80.5145C118.357 81.4607 116.37 81.9397 114.371 81.9397ZM132.839 48.013C132.561 48.013 132.289 48.078 132.035 48.2081L109.516 59.8581C104.507 62.4483 102.431 68.492 104.785 73.6133C105.997 76.2567 108.179 78.2318 110.929 79.178C113.679 80.1242 116.618 79.9113 119.196 78.5748L140.982 67.3034C141.816 66.8717 142.165 65.8605 141.775 65.0089L134.442 49.0361C134.241 48.5925 133.874 48.2673 133.413 48.1076C133.224 48.0485 133.028 48.013 132.839 48.013Z" fill="#650000"/>
<path d="M114.147 74.3466C116.972 74.3466 119.262 72.0564 119.262 69.2313C119.262 66.4062 116.972 64.116 114.147 64.116C111.321 64.116 109.031 66.4062 109.031 69.2313C109.031 72.0564 111.321 74.3466 114.147 74.3466Z" fill="#650000"/>
<g opacity="0.19">
<path opacity="0.19" d="M58.8488 95.9019L47.3171 101.792C45.0404 102.957 42.2491 102.023 41.1315 99.7221L34.2479 85.5885C33.1539 83.3413 34.0646 80.6328 36.2941 79.5092L47.7725 73.7138C50.0374 72.5666 52.805 73.4891 53.9286 75.7659L60.8654 89.8049C61.9712 92.0462 61.0723 94.7606 58.8488 95.9019Z" fill="white"/>
</g>
<g opacity="0.19">
<path opacity="0.19" d="M68.5877 112.306L54.0815 119.421C52.5853 120.154 50.7757 119.533 50.0484 118.037L48.8538 115.583C48.1382 114.116 48.7237 112.348 50.1725 111.591L64.4954 104.134C65.9916 103.353 67.8366 103.956 68.5877 105.47L69.9656 108.261C70.6988 109.764 70.0838 111.573 68.5877 112.306Z" fill="white"/>
</g>
<g opacity="0.19">
<path opacity="0.19" d="M113.21 68.3233C113.963 67.4118 114.165 66.3356 113.662 65.9197C113.158 65.5037 112.14 65.9055 111.387 66.817C110.634 67.7286 110.432 68.8047 110.935 69.2207C111.439 69.6366 112.458 69.2349 113.21 68.3233Z" fill="white"/>
</g>
</svg>
