<svg width="748" height="529" viewBox="0 0 748 529" fill="none" xmlns="http://www.w3.org/2000/svg">
<path opacity="0.1" d="M747.1 497.917C747.1 513.045 0 513.016 0 497.917C0 482.789 747.1 482.818 747.1 497.917Z" fill="#CADAFF"/>
<path d="M686.908 326.408C686.966 332.879 681.777 338.184 675.306 338.243L436.32 340.516C429.849 340.575 424.544 335.386 424.485 328.915L424.194 299.825C424.136 293.354 429.324 288.049 435.795 287.991L674.782 285.717C681.253 285.659 686.558 290.848 686.616 297.318L686.908 326.408Z" fill="#2F315B"/>
<path d="M681.047 327.399C681.106 333.87 675.917 339.175 669.446 339.234L441.011 341.42C434.54 341.478 429.235 336.29 429.177 329.819L428.944 304.285C428.886 297.814 434.074 292.509 440.545 292.451L668.98 290.265C675.451 290.206 680.756 295.395 680.814 301.866L681.047 327.399Z" fill="#5F6299"/>
<path d="M426.73 291.664C416.878 299.126 415.857 311.747 415.857 311.747L428.479 299.709C426.03 299.038 424.398 295.424 426.73 291.664Z" fill="#42437E"/>
<path d="M694.953 484.538C695.011 491.009 689.764 496.314 683.235 496.372L429.47 498.791C422.941 498.85 417.578 493.661 417.519 487.19L415.858 311.776C415.8 305.305 421.046 300 427.576 299.942L681.341 297.522C687.87 297.464 693.233 302.652 693.291 309.123L694.953 484.538Z" fill="#42437E"/>
<path d="M687.636 478.184C687.694 484.217 682.71 489.172 676.472 489.231L435.095 491.533C428.886 491.592 423.785 486.753 423.727 480.719L422.182 317.198C422.124 311.164 427.108 306.209 433.346 306.15L674.723 303.848C680.932 303.789 686.033 308.628 686.091 314.662L687.636 478.184Z" fill="#2F315B"/>
<path d="M633.16 358.646C626.689 358.705 621.501 364.01 621.559 370.481L621.938 410.326C621.996 416.797 627.301 421.986 633.772 421.927C666.943 421.607 679.768 421.49 694.342 421.344C694.313 419.566 693.905 376.806 693.73 358.034C691.311 358.093 636.454 358.617 633.16 358.646Z" fill="#D6D7F2"/>
<path d="M710.372 399.162C710.431 405.633 705.242 410.938 698.771 410.997L639.425 411.551C632.955 411.609 627.65 406.42 627.591 399.95L627.387 377.913C627.329 371.442 632.517 366.137 638.988 366.079L698.334 365.525C704.805 365.467 710.11 370.655 710.168 377.126L710.372 399.162Z" fill="#42437E"/>
<path d="M706.787 396.044C706.846 402.194 701.657 407.207 695.186 407.266L641.729 407.761C635.258 407.82 629.953 402.893 629.894 396.743L629.749 380.537C629.69 374.386 634.879 369.373 641.379 369.315L694.837 368.819C701.308 368.761 706.613 373.687 706.671 379.837L706.787 396.044Z" fill="#4C4F8E"/>
<path d="M668.4 388.319C668.574 407.528 639.514 407.849 639.339 388.611C639.164 369.373 668.225 369.052 668.4 388.319Z" fill="#2F315B"/>
<path d="M666.768 388.32C666.942 405.371 641.146 405.634 640.971 388.553C640.826 371.53 666.622 371.268 666.768 388.32Z" fill="#FFCC3B"/>
<path d="M664.902 388.349C665.048 402.923 643.012 403.156 642.866 388.553C642.72 373.978 664.756 373.745 664.902 388.349Z" fill="#FFE49F"/>
<path d="M593.603 299.767C412.417 302.011 425.359 300.874 424.805 299.767C416.148 282.365 454.741 285.863 644.35 285.572C668.252 285.542 682.768 283.065 685.683 293.821C686.47 296.706 685.858 290.964 680.378 287.583C676.064 284.93 688.889 285.951 547.374 287.845C455.673 289.069 421.803 285.951 426.729 298.339C426.846 298.63 648.14 298.601 671.021 297.435C677.696 297.085 689.443 296.648 691.833 303.673C688.423 294.316 672.741 298.805 593.603 299.767Z" fill="#9BA1EA"/>
<path d="M421.717 317.168C421.717 317.081 421.746 307.753 431.686 305.801L431.86 306.733C422.679 308.54 422.65 316.819 422.65 317.168H421.717Z" fill="#9BA1EA"/>
<path d="M686.791 314.632C686.791 314.545 686.587 305.217 676.618 303.439L676.443 304.372C685.654 306.004 685.858 314.283 685.858 314.632H686.791Z" fill="#9BA1EA"/>
<path d="M423.145 480.34C423.145 480.428 423.349 489.755 433.317 491.533L433.492 490.601C424.281 488.968 424.077 480.69 424.077 480.34H423.145Z" fill="#9BA1EA"/>
<path d="M688.22 477.804C688.22 477.892 688.191 487.219 678.251 489.172L678.076 488.24C687.258 486.432 687.287 478.154 687.287 477.804H688.22Z" fill="#9BA1EA"/>
<path d="M452.265 306.413C435.884 306.559 438.041 306.938 438.041 305.597C454.364 305.451 452.265 305.101 452.265 306.413Z" fill="#9BA1EA"/>
<path d="M470.862 306.238C454.51 306.384 456.638 306.762 456.638 305.422C472.961 305.276 470.862 304.926 470.862 306.238Z" fill="#9BA1EA"/>
<path d="M489.778 306.063C473.426 306.209 475.554 306.588 475.554 305.247C491.906 305.101 489.749 304.752 489.778 306.063Z" fill="#9BA1EA"/>
<path d="M508.376 305.888C492.023 306.034 494.151 306.413 494.151 305.072C510.474 304.926 508.346 304.576 508.376 305.888Z" fill="#9BA1EA"/>
<path d="M528.225 305.684C511.873 305.83 514.001 306.209 514.001 304.868C530.324 304.752 528.196 304.373 528.225 305.684Z" fill="#9BA1EA"/>
<path d="M546.822 305.509C530.441 305.655 532.598 306.005 532.598 304.693C548.95 304.576 546.793 304.197 546.822 305.509Z" fill="#9BA1EA"/>
<path d="M568.276 305.305C551.924 305.451 554.052 305.83 554.052 304.489C570.375 304.343 568.247 303.993 568.276 305.305Z" fill="#9BA1EA"/>
<path d="M586.875 305.13C570.493 305.276 572.65 305.626 572.65 304.314C588.944 304.168 586.846 303.819 586.875 305.13Z" fill="#9BA1EA"/>
<path d="M608.092 305.393C591.71 305.539 593.867 305.917 593.867 304.606C610.219 304.46 608.062 304.081 608.092 305.393Z" fill="#9BA1EA"/>
<path d="M626.689 305.218C610.366 305.363 612.465 305.742 612.465 304.401C628.817 304.256 626.66 303.906 626.689 305.218Z" fill="#9BA1EA"/>
<path d="M646.364 304.577C630.012 304.722 632.14 305.101 632.14 303.761C648.492 303.615 646.364 303.265 646.364 304.577Z" fill="#9BA1EA"/>
<path d="M664.962 304.401C648.609 304.547 650.737 304.926 650.737 303.585C667.119 303.439 664.962 303.09 664.962 304.401Z" fill="#9BA1EA"/>
<path d="M423.847 459.616C423.992 475.968 424.371 473.84 423.031 473.84C422.885 457.488 422.535 459.645 423.847 459.616Z" fill="#9BA1EA"/>
<path d="M423.671 441.019C423.817 457.372 424.196 455.244 422.855 455.244C422.709 438.891 422.359 441.048 423.671 441.019Z" fill="#9BA1EA"/>
<path d="M423.468 419.595C423.614 435.977 423.992 433.82 422.681 433.82C422.506 417.438 422.156 419.595 423.468 419.595Z" fill="#9BA1EA"/>
<path d="M423.29 400.999C423.436 417.38 423.786 415.223 422.474 415.223C422.328 398.871 421.978 400.999 423.29 400.999Z" fill="#9BA1EA"/>
<path d="M686.79 340.341C686.936 356.723 687.315 354.566 685.974 354.566C685.828 338.184 685.478 340.341 686.79 340.341Z" fill="#9BA1EA"/>
<path d="M686.616 321.716C686.762 338.068 687.141 335.94 685.8 335.94C685.654 319.588 685.305 321.745 686.616 321.716Z" fill="#9BA1EA"/>
<path d="M687.899 454.923C688.045 471.275 688.395 469.148 687.083 469.148C686.938 452.795 686.588 454.952 687.899 454.923Z" fill="#9BA1EA"/>
<path d="M687.724 436.327C687.869 452.708 688.248 450.551 686.908 450.551C686.762 434.199 686.412 436.327 687.724 436.327Z" fill="#9BA1EA"/>
<path d="M687.053 417.089C687.199 433.412 687.578 431.313 686.266 431.313C686.12 414.961 685.741 417.089 687.053 417.089Z" fill="#9BA1EA"/>
<path d="M423.552 379.75C423.697 396.102 424.076 393.974 422.736 393.974C422.59 377.651 422.24 379.779 423.552 379.75Z" fill="#9BA1EA"/>
<path d="M423.378 361.153C423.524 377.476 423.903 375.377 422.591 375.377C422.416 359.025 422.066 361.182 423.378 361.153Z" fill="#9BA1EA"/>
<path d="M422.707 341.478C422.853 357.859 423.232 355.702 421.92 355.702C421.775 339.35 421.396 341.478 422.707 341.478Z" fill="#9BA1EA"/>
<path d="M422.531 322.882C422.677 339.205 423.056 337.106 421.715 337.106C421.599 320.754 421.22 322.882 422.531 322.882Z" fill="#9BA1EA"/>
<path d="M455.908 492C439.527 492.146 441.684 492.525 441.684 491.184C458.036 491.068 455.908 490.689 455.908 492Z" fill="#9BA1EA"/>
<path d="M474.503 491.825C458.15 491.971 460.278 492.35 460.278 491.009C476.601 490.863 474.503 490.513 474.503 491.825Z" fill="#9BA1EA"/>
<path d="M493.421 491.65C477.068 491.796 479.196 492.175 479.196 490.834C495.548 490.688 493.391 490.339 493.421 491.65Z" fill="#9BA1EA"/>
<path d="M512.019 491.475C495.638 491.621 497.795 492 497.795 490.659C514.118 490.513 511.99 490.163 512.019 491.475Z" fill="#9BA1EA"/>
<path d="M531.869 491.301C515.488 491.447 517.645 491.796 517.645 490.485C533.997 490.339 531.84 489.989 531.869 491.301Z" fill="#9BA1EA"/>
<path d="M550.465 491.096C534.083 491.242 536.24 491.621 536.24 490.28C552.592 490.164 550.435 489.785 550.465 491.096Z" fill="#9BA1EA"/>
<path d="M571.916 490.893C555.534 491.038 557.691 491.388 557.691 490.076C574.044 489.96 571.887 489.581 571.916 490.893Z" fill="#9BA1EA"/>
<path d="M590.512 490.717C574.16 490.863 576.288 491.242 576.288 489.901C592.611 489.785 590.483 489.406 590.512 490.717Z" fill="#9BA1EA"/>
<path d="M611.733 491.009C595.381 491.155 597.509 491.534 597.509 490.193C613.861 490.047 611.704 489.698 611.733 491.009Z" fill="#9BA1EA"/>
<path d="M630.332 490.805C613.95 490.951 616.107 491.3 616.107 489.989C632.46 489.872 630.303 489.493 630.332 490.805Z" fill="#9BA1EA"/>
<path d="M650.005 490.164C633.652 490.31 635.78 490.689 635.78 489.348C652.162 489.202 650.005 488.852 650.005 490.164Z" fill="#9BA1EA"/>
<path d="M668.602 489.989C652.25 490.134 654.378 490.513 654.378 489.173C670.701 489.027 668.602 488.677 668.602 489.989Z" fill="#9BA1EA"/>
<path d="M573.318 282.89L578.594 284.027C565.244 250.448 522.075 241.179 496.162 266.392L501.438 267.529C524.611 247.737 560.288 255.403 573.318 282.89Z" fill="#FFC200"/>
<path d="M583.02 284.96L588.209 286.067C575.034 241.062 517.028 228.762 486.598 264.323L491.786 265.43C519.885 235.495 569.699 246.338 583.02 284.96Z" fill="#FFC200"/>
<path d="M552.184 261.32C546.179 258.318 539.417 256.569 532.275 256.453C539.242 256.54 546.004 258.201 552.184 261.32Z" fill="#D17C00"/>
<path d="M504.642 265.022C503.156 266.071 501.436 267.5 501.465 267.5C502.485 266.625 503.535 265.809 504.642 265.022Z" fill="#FFE471"/>
<path d="M562.619 268.462C556.352 262.748 548.686 258.901 540.438 257.298C548.861 258.93 556.469 262.894 562.619 268.462Z" fill="#FFE471"/>
<path d="M573.315 282.89C560.228 255.316 524.55 247.766 501.436 267.5L573.315 282.89Z" fill="#FF9D00"/>
<path d="M578.62 284.027L583.021 284.959C569.701 246.25 519.857 235.524 491.787 265.43L496.189 266.363C522.072 241.179 565.241 250.448 578.62 284.027Z" fill="#FFCC3B"/>
<path d="M491.759 265.43L486.57 264.323C484.588 266.625 482.81 269.074 481.207 271.668C488.582 273.242 483.801 273.941 491.759 265.43Z" fill="#FFC200"/>
<path d="M491.759 265.43L486.57 264.323C484.588 266.625 482.81 269.074 481.207 271.668C488.582 273.242 483.801 273.941 491.759 265.43Z" fill="#FF9739"/>
<path d="M590.046 294.957C589.638 291.926 589.026 288.953 588.181 286.067L582.992 284.96C586.781 295.978 582.701 293.383 590.046 294.957Z" fill="#FFC200"/>
<path d="M590.046 294.957C589.638 291.926 589.026 288.953 588.181 286.067L582.992 284.96C586.781 295.978 582.701 293.383 590.046 294.957Z" fill="#FF9739"/>
<path d="M581.272 293.092C580.66 289.944 579.786 286.912 578.62 284.027L573.344 282.89C578.532 293.85 573.664 291.46 581.272 293.092Z" fill="#FFC200"/>
<path d="M581.272 293.092C580.66 289.944 579.786 286.912 578.62 284.027L573.344 282.89C578.532 293.85 573.664 291.46 581.272 293.092Z" fill="#FF9739"/>
<path d="M501.463 267.5L496.188 266.363C493.943 268.549 491.874 270.968 490.066 273.533C497.762 275.224 491.903 275.661 501.463 267.5Z" fill="#FFC200"/>
<path d="M501.463 267.5L496.188 266.363C493.943 268.549 491.874 270.968 490.066 273.533C497.762 275.224 491.903 275.661 501.463 267.5Z" fill="#FF9739"/>
<path d="M501.464 267.5C501.435 267.47 497.966 270.385 494.76 274.553C494.818 274.553 497.033 271.289 501.464 267.5Z" fill="#FFE471"/>
<path d="M501.464 267.5C501.435 267.47 497.966 270.385 494.76 274.553C494.818 274.553 497.033 271.289 501.464 267.5Z" fill="#FF9739"/>
<path d="M576.551 292.072C576.58 292.072 576.114 290.294 575.881 289.536C576.114 290.381 576.347 291.226 576.551 292.072Z" fill="#FFE471"/>
<path d="M576.551 292.072C576.58 292.072 576.114 290.294 575.881 289.536C576.114 290.381 576.347 291.226 576.551 292.072Z" fill="#FF9739"/>
<path d="M573.314 282.89L501.464 267.5C498.986 269.627 496.742 271.988 494.76 274.554L576.55 292.072C575.792 288.894 574.714 285.834 573.314 282.89Z" fill="#FF9D00"/>
<path d="M573.314 282.89L501.464 267.5C498.986 269.627 496.742 271.988 494.76 274.554L576.55 292.072C575.792 288.894 574.714 285.834 573.314 282.89Z" fill="#FF9739"/>
<path d="M585.265 293.937C584.769 290.847 584.012 287.845 583.021 284.959L578.619 284.027C583.05 295.161 578.677 292.538 585.265 293.937Z" fill="#FFCC3B"/>
<path d="M585.265 293.937C584.769 290.847 584.012 287.845 583.021 284.959L578.619 284.027C583.05 295.161 578.677 292.538 585.265 293.937Z" fill="#FF9739"/>
<path d="M496.189 266.392L491.787 265.459C489.688 267.704 487.765 270.152 486.045 272.717C492.632 274.116 487.59 274.728 496.189 266.392Z" fill="#FFCC3B"/>
<path d="M496.189 266.392L491.787 265.459C489.688 267.704 487.765 270.152 486.045 272.717C492.632 274.116 487.59 274.728 496.189 266.392Z" fill="#FF9739"/>
<path d="M577.338 296.415C577.746 299.446 576.609 298.805 582.031 298.863C581.885 296.91 582.672 297.552 577.338 296.415Z" fill="#FFC200"/>
<path opacity="0.6" d="M577.338 296.415C577.746 299.446 576.609 298.805 582.031 298.863C581.885 296.91 582.672 297.552 577.338 296.415Z" fill="#FF9739"/>
<path d="M479.108 275.37C475.785 281.724 473.599 288.72 472.783 296.152L477.301 297.114C479.72 273.563 489.339 277.556 479.108 275.37Z" fill="#FFC200"/>
<path opacity="0.6" d="M479.108 275.37C475.785 281.724 473.599 288.72 472.783 296.152L477.301 297.114C479.72 273.563 489.339 277.556 479.108 275.37Z" fill="#FF9739"/>
<path d="M585.82 298.892C590.134 298.921 590.134 299.155 585.762 298.222C585.791 298.426 585.82 298.659 585.82 298.892Z" fill="#FFC200"/>
<path opacity="0.6" d="M585.82 298.892C590.134 298.921 590.134 299.155 585.762 298.222C585.791 298.426 585.82 298.659 585.82 298.892Z" fill="#FF9739"/>
<path d="M487.704 277.206C484.09 283.385 481.758 290.41 481.029 297.872C486.276 297.93 485.402 298.222 485.576 296.969C488.229 275.37 497.76 279.363 487.704 277.206Z" fill="#FFC200"/>
<path opacity="0.6" d="M487.704 277.206C484.09 283.385 481.758 290.41 481.029 297.872C486.276 297.93 485.402 298.222 485.576 296.969C488.229 275.37 497.76 279.363 487.704 277.206Z" fill="#FF9739"/>
<path d="M485.463 297.931C485.492 297.931 485.434 298.076 485.579 296.998C485.521 297.289 485.492 297.61 485.463 297.931Z" fill="#D17C00"/>
<path opacity="0.6" d="M485.463 297.931C485.492 297.931 485.434 298.076 485.579 296.998C485.521 297.289 485.492 297.61 485.463 297.931Z" fill="#FF9739"/>
<path d="M577.338 296.415C577.6 298.31 577.571 298.834 577.6 298.805C577.454 296.881 577.309 296.415 577.338 296.415Z" fill="#D17C00"/>
<path opacity="0.6" d="M577.338 296.415C577.6 298.31 577.571 298.834 577.6 298.805C577.454 296.881 577.309 296.415 577.338 296.415Z" fill="#FF9739"/>
<path d="M492.224 278.197C492.195 278.197 486.919 285.834 485.549 296.998C485.025 301.457 485.462 289.011 492.224 278.197Z" fill="#FFE471"/>
<path opacity="0.6" d="M492.224 278.197C492.195 278.197 486.919 285.834 485.549 296.998C485.025 301.457 485.462 289.011 492.224 278.197Z" fill="#FF9739"/>
<path d="M577.338 296.415C577.6 298.31 577.571 298.805 577.6 298.805C577.571 298.28 577.367 296.415 577.338 296.415Z" fill="#FFE471"/>
<path opacity="0.6" d="M577.338 296.415C577.6 298.31 577.571 298.805 577.6 298.805C577.571 298.28 577.367 296.415 577.338 296.415Z" fill="#FF9739"/>
<path d="M492.225 278.197C488.582 284.027 486.192 290.731 485.463 297.93C607.886 299.096 608.44 303.061 492.225 278.197Z" fill="#FF9D00"/>
<path opacity="0.6" d="M492.225 278.197C488.582 284.027 486.192 290.731 485.463 297.93C607.886 299.096 608.44 303.061 492.225 278.197Z" fill="#FF9739"/>
<path d="M483.801 276.39C480.332 282.657 478.059 289.682 477.301 297.114L480.886 297.872C481.44 297.872 480.973 288.72 487.707 277.206L483.801 276.39Z" fill="#FFCC3B"/>
<path opacity="0.6" d="M483.801 276.39C480.332 282.657 478.059 289.682 477.301 297.114L480.886 297.872C481.44 297.872 480.973 288.72 487.707 277.206L483.801 276.39Z" fill="#FF9739"/>
<path d="M581.914 297.377C582.118 299.271 581.244 298.834 585.849 298.892C585.762 297.989 586.374 298.339 581.914 297.377Z" fill="#FFCC3B"/>
<path opacity="0.6" d="M581.914 297.377C582.118 299.271 581.244 298.834 585.849 298.892C585.762 297.989 586.374 298.339 581.914 297.377Z" fill="#FF9739"/>
<path d="M585.793 298.222C591.243 299.388 590.69 299.738 590.077 294.987C583.781 293.617 585.326 292.742 585.793 298.222Z" fill="#FFC200"/>
<path d="M585.793 298.222C591.243 299.388 590.69 299.738 590.077 294.987C583.781 293.617 585.326 292.742 585.793 298.222Z" fill="#FF9739"/>
<path opacity="0.6" d="M585.793 298.222C591.243 299.388 590.69 299.738 590.077 294.987C583.781 293.617 585.326 292.742 585.793 298.222Z" fill="#FF9739"/>
<path d="M487.707 277.206C493.537 278.46 491.321 279.042 494.761 274.554C489.398 273.417 490.418 272.572 487.707 277.206Z" fill="#FFC200"/>
<path d="M487.707 277.206C493.537 278.46 491.321 279.042 494.761 274.554C489.398 273.417 490.418 272.572 487.707 277.206Z" fill="#FF9739"/>
<path opacity="0.6" d="M487.707 277.206C493.537 278.46 491.321 279.042 494.761 274.554C489.398 273.417 490.418 272.572 487.707 277.206Z" fill="#FF9739"/>
<path d="M576.551 292.072C577.833 297.581 576.055 296.123 581.914 297.377C581.331 292.043 581.914 293.238 576.551 292.072Z" fill="#FFC200"/>
<path d="M576.551 292.072C577.833 297.581 576.055 296.123 581.914 297.377C581.331 292.043 581.914 293.238 576.551 292.072Z" fill="#FF9739"/>
<path opacity="0.6" d="M576.551 292.072C577.833 297.581 576.055 296.123 581.914 297.377C581.331 292.043 581.914 293.238 576.551 292.072Z" fill="#FF9739"/>
<path d="M486.016 272.688C480.477 271.493 481.556 270.648 479.107 275.37C485.054 276.652 482.984 277.294 486.016 272.688Z" fill="#FFC200"/>
<path d="M486.016 272.688C480.477 271.493 481.556 270.648 479.107 275.37C485.054 276.652 482.984 277.294 486.016 272.688Z" fill="#FF9739"/>
<path opacity="0.6" d="M486.016 272.688C480.477 271.493 481.556 270.648 479.107 275.37C485.054 276.652 482.984 277.294 486.016 272.688Z" fill="#FF9739"/>
<path d="M577.337 296.415C577.366 296.415 577.162 295.278 577.162 295.278C577.25 295.628 577.279 296.036 577.337 296.415Z" fill="#D17C00"/>
<path d="M577.337 296.415C577.366 296.415 577.162 295.278 577.162 295.278C577.25 295.628 577.279 296.036 577.337 296.415Z" fill="#FF9739"/>
<path opacity="0.6" d="M577.337 296.415C577.366 296.415 577.162 295.278 577.162 295.278C577.25 295.628 577.279 296.036 577.337 296.415Z" fill="#FF9739"/>
<path d="M494.759 274.583C493.477 276.273 492.223 278.197 492.252 278.197C493.652 275.923 494.759 274.553 494.759 274.583Z" fill="#FFE471"/>
<path d="M494.759 274.583C493.477 276.273 492.223 278.197 492.252 278.197C493.652 275.923 494.759 274.553 494.759 274.583Z" fill="#FF9739"/>
<path opacity="0.6" d="M494.759 274.583C493.477 276.273 492.223 278.197 492.252 278.197C493.652 275.923 494.759 274.553 494.759 274.583Z" fill="#FF9739"/>
<path d="M576.551 292.072C576.667 292.042 577.804 299.096 577.192 295.249C576.988 294.17 576.784 293.121 576.551 292.072Z" fill="#FFE471"/>
<path d="M576.551 292.072C576.667 292.042 577.804 299.096 577.192 295.249C576.988 294.17 576.784 293.121 576.551 292.072Z" fill="#FF9739"/>
<path opacity="0.6" d="M576.551 292.072C576.667 292.042 577.804 299.096 577.192 295.249C576.988 294.17 576.784 293.121 576.551 292.072Z" fill="#FF9739"/>
<path d="M576.549 292.072C486.306 272.746 495.517 272.95 492.252 278.168C589.695 299.038 577.977 298.222 576.549 292.072Z" fill="#FF9D00"/>
<path d="M576.549 292.072C486.306 272.746 495.517 272.95 492.252 278.168C589.695 299.038 577.977 298.222 576.549 292.072Z" fill="#FF9739"/>
<path opacity="0.6" d="M576.549 292.072C486.306 272.746 495.517 272.95 492.252 278.168C589.695 299.038 577.977 298.222 576.549 292.072Z" fill="#FF9739"/>
<path d="M490.038 273.563C485.462 272.601 486.366 271.697 483.801 276.39C488.989 277.498 486.861 278.051 490.038 273.563Z" fill="#FFCC3B"/>
<path d="M490.038 273.563C485.462 272.601 486.366 271.697 483.801 276.39C488.989 277.498 486.861 278.051 490.038 273.563Z" fill="#FF9739"/>
<path opacity="0.6" d="M490.038 273.563C485.462 272.601 486.366 271.697 483.801 276.39C488.989 277.498 486.861 278.051 490.038 273.563Z" fill="#FF9739"/>
<path d="M585.789 298.222C585.352 292.888 585.819 294.083 581.271 293.092C582.292 298.484 580.63 297.114 585.789 298.222Z" fill="#FFCC3B"/>
<path d="M585.789 298.222C585.352 292.888 585.819 294.083 581.271 293.092C582.292 298.484 580.63 297.114 585.789 298.222Z" fill="#FF9739"/>
<path opacity="0.6" d="M585.789 298.222C585.352 292.888 585.819 294.083 581.271 293.092C582.292 298.484 580.63 297.114 585.789 298.222Z" fill="#FF9739"/>
<path d="M477.3 297.114C471.995 295.977 472.811 295.599 472.607 297.814C477.942 297.843 477.213 298.134 477.3 297.114Z" fill="#FFC200"/>
<path opacity="0.6" d="M477.3 297.114C471.995 295.977 472.811 295.599 472.607 297.814C477.942 297.843 477.213 298.134 477.3 297.114Z" fill="#FF9739"/>
<path opacity="0.4" d="M477.3 297.114C471.995 295.977 472.811 295.599 472.607 297.814C477.942 297.843 477.213 298.134 477.3 297.114Z" fill="#FF9739"/>
<path d="M477.244 297.843C482.112 297.901 482.083 298.135 477.302 297.114C477.273 297.348 477.244 297.61 477.244 297.843Z" fill="#FFCC3B"/>
<path opacity="0.6" d="M477.244 297.843C482.112 297.901 482.083 298.135 477.302 297.114C477.273 297.348 477.244 297.61 477.244 297.843Z" fill="#FF9739"/>
<path opacity="0.4" d="M477.244 297.843C482.112 297.901 482.083 298.135 477.302 297.114C477.273 297.348 477.244 297.61 477.244 297.843Z" fill="#FF9739"/>
<path d="M542.565 244.677C542.565 244.677 517.73 267.208 524.551 298.309L542.448 298.688L555.157 248.582C555.157 248.582 546.354 245.26 542.565 244.677Z" fill="#FFC200"/>
<path d="M537.871 277.148C536.385 284.406 536.472 291.693 537.93 298.63C538.104 298.601 535.306 289.652 537.871 277.148Z" fill="#FFC200"/>
<path d="M537.143 293.82C537.813 299.592 537.026 298.63 542.448 298.659C541.865 296.269 543.031 297.522 537.143 293.82Z" fill="#FFC200"/>
<path d="M632.02 284.26L635.664 286.533C635.11 253.363 600.657 232.114 570.896 245.93L574.132 247.97C600.686 236.661 630.621 255.228 632.02 284.26Z" fill="#FFC200"/>
<path d="M639.073 288.661L642.979 291.11C645.69 249.02 600.452 220.775 563.812 241.47L567.514 243.802C600.598 226.575 640.152 251.352 639.073 288.661Z" fill="#FFC200"/>
<path d="M630.972 283.59L632.051 284.26C630.622 255.199 600.687 236.661 574.162 247.97L576.144 249.224C600.949 240.654 627.737 257.094 630.972 283.59Z" fill="#D17C00"/>
<path d="M630.096 283.036L630.971 283.589C627.735 257.094 600.977 240.683 576.143 249.224L577.629 250.156C601.298 243.306 625.811 258.58 630.096 283.036Z" fill="#FF9D00"/>
<path d="M595.178 260.737L597.364 254.558C605.03 257.269 604.156 255.024 601.416 262.778C605.992 264.643 609.227 266.625 611.064 268.724C610.102 271.435 607.595 268.899 630.098 283.007C625.842 258.522 601.27 243.307 577.602 250.098C596.286 261.845 593.604 260.358 595.178 260.737Z" fill="#FF9D00"/>
<path d="M635.662 286.533L639.073 288.661C640.151 251.322 600.597 226.575 567.484 243.802L570.895 245.93C600.655 232.114 635.108 253.334 635.662 286.533Z" fill="#FFCC3B"/>
<path d="M542.068 296.91C542.185 297.493 542.331 298.105 542.447 298.688C545.683 298.718 545.683 299.184 542.068 296.91Z" fill="#FFCC3B"/>
<path d="M600.074 262.311C604.68 264.177 607.886 266.159 609.722 268.258C609.023 270.211 608.848 269.715 610.393 270.677C610.597 270.065 610.83 269.424 611.063 268.724C609.227 266.625 605.991 264.643 601.415 262.778C603.572 256.686 604.446 256.773 601.59 255.928C602.668 256.54 601.765 257.502 600.074 262.311Z" fill="#D17C00"/>
<path d="M598.705 255.024C599.93 255.461 600.862 255.724 601.562 255.928C600.921 255.578 599.609 255.345 597.364 254.558L595.178 260.737C593.75 260.388 594.071 260.446 594.683 260.854C597.16 261.233 596.082 262.457 598.705 255.024Z" fill="#FFE471"/>
<path d="M596.518 261.204C593.691 260.504 592.292 259.338 609.169 269.919C609.344 269.394 609.518 268.87 609.752 268.287C607.915 266.188 604.68 264.206 600.104 262.34C602.698 255.053 603.281 256.686 598.734 255.053L596.518 261.204Z" fill="#FFE471"/>
<path d="M567.486 243.802L563.784 241.47C561.423 242.811 559.149 244.327 556.992 246.018C562.385 249.428 558.275 248.583 567.486 243.802Z" fill="#FFC200"/>
<path d="M567.486 243.802L563.784 241.47C561.423 242.811 559.149 244.327 556.992 246.018C562.385 249.428 558.275 248.583 567.486 243.802Z" fill="#FF9739"/>
<path d="M574.132 247.97L570.896 245.93C568.331 247.125 565.883 248.524 563.609 250.186C568.769 253.421 564.163 252.226 574.132 247.97Z" fill="#FFC200"/>
<path d="M574.132 247.97L570.896 245.93C568.331 247.125 565.883 248.524 563.609 250.186C568.769 253.421 564.163 252.226 574.132 247.97Z" fill="#FF9739"/>
<path d="M635.021 294.957C635.517 292.159 635.721 289.332 635.662 286.534L632.019 284.26C632.573 295.161 629.308 291.372 635.021 294.957Z" fill="#FFC200"/>
<path d="M635.021 294.957C635.517 292.159 635.721 289.332 635.662 286.534L632.019 284.26C632.573 295.161 629.308 291.372 635.021 294.957Z" fill="#FF9739"/>
<path d="M641.813 299.213C642.425 296.531 642.804 293.821 642.979 291.11L639.073 288.661C638.782 299.067 636.158 295.657 641.813 299.213Z" fill="#FFC200"/>
<path d="M641.813 299.213C642.425 296.531 642.804 293.821 642.979 291.11L639.073 288.661C638.782 299.067 636.158 295.657 641.813 299.213Z" fill="#FF9739"/>
<path d="M631.087 292.48L631.583 292.771C632.049 289.915 632.195 287.058 632.049 284.26C629.688 282.773 631.962 283.181 631.087 292.48Z" fill="#D17C00"/>
<path d="M631.087 292.48L631.583 292.771C632.049 289.915 632.195 287.058 632.049 284.26C629.688 282.773 631.962 283.181 631.087 292.48Z" fill="#FF9739"/>
<path d="M576.114 249.195L574.132 247.941C571.509 249.049 569.002 250.448 566.67 252.08C569.556 253.917 566.058 252.663 576.114 249.195Z" fill="#D17C00"/>
<path d="M576.114 249.195L574.132 247.941C571.509 249.049 569.002 250.448 566.67 252.08C569.556 253.917 566.058 252.663 576.114 249.195Z" fill="#FF9739"/>
<path d="M577.602 250.127L576.115 249.195C573.317 250.156 570.606 251.41 568.07 252.955C570.519 254.5 567.4 253.071 577.602 250.127Z" fill="#FF9D00"/>
<path d="M577.602 250.127L576.115 249.195C573.317 250.156 570.606 251.41 568.07 252.955C570.519 254.5 567.4 253.071 577.602 250.127Z" fill="#FF9739"/>
<path d="M630.65 292.217C631.758 292.888 631.117 284.872 630.971 283.59C628.872 282.278 631.117 282.832 630.65 292.217Z" fill="#FF9D00"/>
<path d="M630.65 292.217C631.758 292.888 631.117 284.872 630.971 283.59C628.872 282.278 631.117 282.832 630.65 292.217Z" fill="#FF9739"/>
<path d="M577.601 250.127C574.657 250.973 571.801 252.139 569.119 253.625L582.761 262.166C592.613 256.453 604.767 267.15 577.601 250.127Z" fill="#FF9D00"/>
<path d="M577.601 250.127C574.657 250.973 571.801 252.139 569.119 253.625L582.761 262.166C592.613 256.453 604.767 267.15 577.601 250.127Z" fill="#FF9739"/>
<path d="M606.954 276.71C606.167 278.168 605.584 274.466 598.617 270.735C598.034 272.367 594.595 269.598 630.68 292.217C630.826 289.128 630.651 286.038 630.127 283.036L610.422 270.677C608.032 277.701 608.528 278.459 606.954 276.71Z" fill="#FF9D00"/>
<path d="M606.954 276.71C606.167 278.168 605.584 274.466 598.617 270.735C598.034 272.367 594.595 269.598 630.68 292.217C630.826 289.128 630.651 286.038 630.127 283.036L610.422 270.677C608.032 277.701 608.528 278.459 606.954 276.71Z" fill="#FF9739"/>
<path d="M638.142 296.91C638.696 294.17 639.016 291.401 639.075 288.691L635.664 286.563C635.868 297.231 633.041 293.704 638.142 296.91Z" fill="#FFCC3B"/>
<path d="M638.142 296.91C638.696 294.17 639.016 291.401 639.075 288.691L635.664 286.563C635.868 297.231 633.041 293.704 638.142 296.91Z" fill="#FF9739"/>
<path d="M570.896 245.93L567.486 243.802C565.037 245.085 562.676 246.542 560.49 248.233C565.591 251.439 561.219 250.448 570.896 245.93Z" fill="#FFCC3B"/>
<path d="M570.896 245.93L567.486 243.802C565.037 245.085 562.676 246.542 560.49 248.233C565.591 251.439 561.219 250.448 570.896 245.93Z" fill="#FF9739"/>
<path d="M606.955 276.71C608.529 278.459 608.063 277.702 610.395 270.706L609.17 269.919C607.8 273.912 607.334 275.982 606.955 276.71Z" fill="#D17C00"/>
<path d="M606.955 276.71C608.529 278.459 608.063 277.702 610.395 270.706L609.17 269.919C607.8 273.912 607.334 275.982 606.955 276.71Z" fill="#FF9739"/>
<path d="M596.957 271.085C598.502 272.047 598.065 272.192 598.589 270.735C597.074 269.919 597.394 269.861 596.957 271.085Z" fill="#D17C00"/>
<path d="M596.957 271.085C598.502 272.047 598.065 272.192 598.589 270.735C597.074 269.919 597.394 269.861 596.957 271.085Z" fill="#FF9739"/>
<path d="M598.588 270.735C605.554 274.466 606.137 278.168 606.924 276.711C603.339 272.717 598.734 270.327 598.588 270.735Z" fill="#FFE471"/>
<path d="M598.588 270.735C605.554 274.466 606.137 278.168 606.924 276.711C603.339 272.717 598.734 270.327 598.588 270.735Z" fill="#FF9739"/>
<path d="M593.78 268.957C593.458 268.899 593.517 268.899 593.75 269.045L593.78 268.957Z" fill="#FFE471"/>
<path d="M593.78 268.957C593.458 268.899 593.517 268.899 593.75 269.045L593.78 268.957Z" fill="#FF9739"/>
<path d="M594.681 260.854C592.991 259.805 587.074 259.659 582.73 262.195L583.751 262.836C586.695 261 590.513 260.213 594.681 260.854Z" fill="#FFE471"/>
<path d="M594.681 260.854C592.991 259.805 587.074 259.659 582.73 262.195L583.751 262.836C586.695 261 590.513 260.213 594.681 260.854Z" fill="#FF9739"/>
<path d="M596.954 271.085C597.391 269.861 597.071 269.919 598.587 270.735L598.645 270.56C609.75 275.894 605.436 280.908 609.138 269.919L594.681 260.854C590.483 260.212 586.694 261.029 583.75 262.836C587.423 265.109 593.311 268.782 596.954 271.085Z" fill="#FFE471"/>
<path d="M596.954 271.085C597.391 269.861 597.071 269.919 598.587 270.735L598.645 270.56C609.75 275.894 605.436 280.908 609.138 269.919L594.681 260.854C590.483 260.212 586.694 261.029 583.75 262.836C587.423 265.109 593.311 268.782 596.954 271.085Z" fill="#FF9739"/>
<path d="M629.893 299.504C635.635 299.563 635.693 299.679 630.767 296.59C630.505 297.581 630.242 298.543 629.893 299.504Z" fill="#FFC200"/>
<path opacity="0.6" d="M629.893 299.504C635.635 299.563 635.693 299.679 630.767 296.59C630.505 297.581 630.242 298.543 629.893 299.504Z" fill="#FF9739"/>
<path d="M563.581 254.47L560.549 252.576C555.652 256.744 551.572 261.991 548.744 268.141L552.067 270.24C554.661 263.944 558.655 258.609 563.581 254.47Z" fill="#FFC200"/>
<path opacity="0.6" d="M563.581 254.47L560.549 252.576C555.652 256.744 551.572 261.991 548.744 268.141L552.067 270.24C554.661 263.944 558.655 258.609 563.581 254.47Z" fill="#FF9739"/>
<path d="M557.518 250.681L554.079 248.524C549.328 252.867 545.305 258.114 542.332 264.119C550.29 269.103 541.02 265.314 557.518 250.681Z" fill="#FFC200"/>
<path opacity="0.6" d="M557.518 250.681L554.079 248.524C549.328 252.867 545.305 258.114 542.332 264.119C550.29 269.103 541.02 265.314 557.518 250.681Z" fill="#FF9739"/>
<path d="M564.744 255.199L563.578 254.47C558.681 258.61 554.659 263.944 552.035 270.211C552.764 270.648 554.6 262.749 564.744 255.199Z" fill="#D17C00"/>
<path opacity="0.6" d="M564.744 255.199L563.578 254.47C558.681 258.61 554.659 263.944 552.035 270.211C552.764 270.648 554.6 262.749 564.744 255.199Z" fill="#FF9739"/>
<path d="M629.805 299.505C630.009 299.505 630.621 297.173 630.796 296.59C630.3 296.298 630.737 296.036 629.805 299.505Z" fill="#D17C00"/>
<path opacity="0.6" d="M629.805 299.505C630.009 299.505 630.621 297.173 630.796 296.59C630.3 296.298 630.737 296.036 629.805 299.505Z" fill="#FF9739"/>
<path d="M629.631 299.504C629.718 299.504 629.835 299.971 630.505 296.415C630.039 296.123 630.476 295.861 629.631 299.504Z" fill="#FF9D00"/>
<path opacity="0.6" d="M629.631 299.504C629.718 299.504 629.835 299.971 630.505 296.415C630.039 296.123 630.476 295.861 629.631 299.504Z" fill="#FF9739"/>
<path d="M565.621 255.753L564.747 255.199C559.558 259.076 555.215 264.177 552.213 270.327C552.854 270.706 555.332 262.749 565.621 255.753Z" fill="#FF9D00"/>
<path opacity="0.6" d="M565.621 255.753L564.747 255.199C559.558 259.076 555.215 264.177 552.213 270.327C552.854 270.706 555.332 262.749 565.621 255.753Z" fill="#FF9739"/>
<path d="M588.647 270.181C586.781 271.872 586.519 274.991 588.968 278.226C591.708 270.531 591.941 272.251 588.647 270.181Z" fill="#FF9D00"/>
<path opacity="0.6" d="M588.647 270.181C586.781 271.872 586.519 274.991 588.968 278.226C591.708 270.531 591.941 272.251 588.647 270.181Z" fill="#FF9739"/>
<path d="M585.412 288.341C574.802 279.48 574.715 269.977 579.728 264.585L565.649 255.753C560.228 259.425 555.652 264.41 552.445 270.444C589.435 293.646 584.275 291.518 585.412 288.341Z" fill="#FF9D00"/>
<path opacity="0.6" d="M585.412 288.341C574.802 279.48 574.715 269.977 579.728 264.585L565.649 255.753C560.228 259.425 555.652 264.41 552.445 270.444C589.435 293.646 584.275 291.518 585.412 288.341Z" fill="#FF9739"/>
<path d="M596.955 275.399L594.215 283.123C601.181 288.836 603.834 294.52 603.601 299.242C639.949 299.592 641.901 303.585 596.955 275.399Z" fill="#FF9D00"/>
<path opacity="0.6" d="M596.955 275.399L594.215 283.123C601.181 288.836 603.834 294.52 603.601 299.242C639.949 299.592 641.901 303.585 596.955 275.399Z" fill="#FF9739"/>
<path d="M592.116 295.336C591.796 294.608 591.329 293.85 590.688 293.092C590.193 294.462 589.93 293.966 592.116 295.336Z" fill="#FF9D00"/>
<path opacity="0.6" d="M592.116 295.336C591.796 294.608 591.329 293.85 590.688 293.092C590.193 294.462 589.93 293.966 592.116 295.336Z" fill="#FF9739"/>
<path d="M557.519 250.681C552.709 254.937 548.687 260.213 545.83 266.305L548.745 268.141C557.46 249.224 564.747 255.199 557.519 250.681Z" fill="#FFCC3B"/>
<path opacity="0.6" d="M557.519 250.681C552.709 254.937 548.687 260.213 545.83 266.305L548.745 268.141C557.46 249.224 564.747 255.199 557.519 250.681Z" fill="#FF9739"/>
<path d="M635.518 299.563C633.944 298.572 634.293 298.543 634.002 299.534L635.518 299.563Z" fill="#FFCC3B"/>
<path opacity="0.6" d="M635.518 299.563C633.944 298.572 634.293 298.543 634.002 299.534L635.518 299.563Z" fill="#FF9739"/>
<path d="M590.689 293.092C589.348 291.518 589.669 291.722 589.057 293.413C590.602 294.374 590.164 294.52 590.689 293.092Z" fill="#D17C00"/>
<path opacity="0.6" d="M590.689 293.092C589.348 291.518 589.669 291.722 589.057 293.413C590.602 294.374 590.164 294.52 590.689 293.092Z" fill="#FF9739"/>
<path d="M588.648 270.181L587.569 269.511C585.238 271.347 585.004 275.195 588.735 279.013L588.998 278.255C586.52 274.991 586.782 271.872 588.648 270.181Z" fill="#D17C00"/>
<path opacity="0.6" d="M588.648 270.181L587.569 269.511C585.238 271.347 585.004 275.195 588.735 279.013L588.998 278.255C586.52 274.991 586.782 271.872 588.648 270.181Z" fill="#FF9739"/>
<path d="M592.873 282.657C600.014 288.516 602.609 294.403 602.201 299.242H603.6C603.804 294.52 601.151 288.807 594.214 283.123L596.954 275.399C595.292 274.349 596.283 273.009 592.873 282.657Z" fill="#D17C00"/>
<path opacity="0.6" d="M592.873 282.657C600.014 288.516 602.609 294.403 602.201 299.242H603.6C603.804 294.52 601.151 288.807 594.214 283.123L596.954 275.399C595.292 274.349 596.283 273.009 592.873 282.657Z" fill="#FF9739"/>
<path d="M586.752 288.807C576.346 280.092 576.054 270.735 580.835 265.284L579.727 264.585C574.714 269.977 574.801 279.48 585.411 288.341L584.595 290.614C586.198 291.634 585.586 292.043 586.752 288.807Z" fill="#FFE471"/>
<path opacity="0.6" d="M586.752 288.807C576.346 280.092 576.054 270.735 580.835 265.284L579.727 264.585C574.714 269.977 574.801 279.48 585.411 288.341L584.595 290.614C586.198 291.634 585.586 292.043 586.752 288.807Z" fill="#FF9739"/>
<path d="M593.661 296.298C593.223 295.074 592.349 293.733 590.921 292.422L590.688 293.092C593.049 295.89 590.775 294.491 593.661 296.298Z" fill="#FFE471"/>
<path opacity="0.6" d="M593.661 296.298C593.223 295.074 592.349 293.733 590.921 292.422L590.688 293.092C593.049 295.89 590.775 294.491 593.661 296.298Z" fill="#FF9739"/>
<path d="M590.047 279.48C592.933 271.318 592.904 272.834 591.242 271.814C588.706 278.984 588.56 277.964 590.047 279.48Z" fill="#FFE471"/>
<path opacity="0.6" d="M590.047 279.48C592.933 271.318 592.904 272.834 591.242 271.814C588.706 278.984 588.56 277.964 590.047 279.48Z" fill="#FF9739"/>
<path d="M589.582 291.955C591.01 293.267 590.573 293.413 590.923 292.422C592.351 293.733 593.225 295.074 593.662 296.298C599.23 299.796 597.306 299.213 602.203 299.242C602.611 294.404 600.017 288.516 592.875 282.657C596.286 273.009 596.548 275.137 592.497 272.601L590.048 279.509C588.649 278.081 589.115 277.906 588.707 279.042C584.976 275.195 585.209 271.376 587.541 269.54L580.808 265.314C576.028 270.764 576.319 280.121 586.725 288.836L585.822 291.401C589.815 293.879 588.911 293.879 589.582 291.955Z" fill="#FFE471"/>
<path opacity="0.6" d="M589.582 291.955C591.01 293.267 590.573 293.413 590.923 292.422C592.351 293.733 593.225 295.074 593.662 296.298C599.23 299.796 597.306 299.213 602.203 299.242C602.611 294.404 600.017 288.516 592.875 282.657C596.286 273.009 596.548 275.137 592.497 272.601L590.048 279.509C588.649 278.081 589.115 277.906 588.707 279.042C584.976 275.195 585.209 271.376 587.541 269.54L580.808 265.314C576.028 270.764 576.319 280.121 586.725 288.836L585.822 291.401C589.815 293.879 588.911 293.879 589.582 291.955Z" fill="#FF9739"/>
<path d="M637.5 299.592C643.184 299.65 643.155 300.058 638.112 296.91C637.937 297.785 637.733 298.688 637.5 299.592Z" fill="#FFC200"/>
<path d="M637.5 299.592C643.184 299.65 643.155 300.058 638.112 296.91C637.937 297.785 637.733 298.688 637.5 299.592Z" fill="#FF9739"/>
<path opacity="0.6" d="M637.5 299.592C643.184 299.65 643.155 300.058 638.112 296.91C637.937 297.785 637.733 298.688 637.5 299.592Z" fill="#FF9739"/>
<path d="M566.668 252.11C562.995 249.807 564.045 249.603 560.547 252.576C564.598 255.112 562.558 254.937 566.668 252.11Z" fill="#FFC200"/>
<path d="M566.668 252.11C562.995 249.807 564.045 249.603 560.547 252.576C564.598 255.112 562.558 254.937 566.668 252.11Z" fill="#FF9739"/>
<path opacity="0.6" d="M566.668 252.11C562.995 249.807 564.045 249.603 560.547 252.576C564.598 255.112 562.558 254.937 566.668 252.11Z" fill="#FF9739"/>
<path d="M560.491 248.233C556.468 245.726 557.605 245.289 554.078 248.524C558.421 251.235 556.556 251.206 560.491 248.233Z" fill="#FFC200"/>
<path d="M560.491 248.233C556.468 245.726 557.605 245.289 554.078 248.524C558.421 251.235 556.556 251.206 560.491 248.233Z" fill="#FF9739"/>
<path opacity="0.6" d="M560.491 248.233C556.468 245.726 557.605 245.289 554.078 248.524C558.421 251.235 556.556 251.206 560.491 248.233Z" fill="#FF9739"/>
<path d="M634.204 298.747C635.428 294.083 635.486 295.249 631.551 292.771C630.764 297.727 629.803 295.978 634.204 298.747Z" fill="#FFC200"/>
<path d="M634.204 298.747C635.428 294.083 635.486 295.249 631.551 292.771C630.764 297.727 629.803 295.978 634.204 298.747Z" fill="#FF9739"/>
<path opacity="0.6" d="M634.204 298.747C635.428 294.083 635.486 295.249 631.551 292.771C630.764 297.727 629.803 295.978 634.204 298.747Z" fill="#FF9739"/>
<path d="M568.069 252.984C566.524 252.022 567.107 251.497 563.58 254.47C565.329 255.578 563.872 255.52 568.069 252.984Z" fill="#D17C00"/>
<path d="M568.069 252.984C566.524 252.022 567.107 251.497 563.58 254.47C565.329 255.578 563.872 255.52 568.069 252.984Z" fill="#FF9739"/>
<path opacity="0.6" d="M568.069 252.984C566.524 252.022 567.107 251.497 563.58 254.47C565.329 255.578 563.872 255.52 568.069 252.984Z" fill="#FF9739"/>
<path d="M630.504 296.444C630.679 296.561 630.824 297.377 631.553 292.8C630.708 292.247 631.378 292.013 630.504 296.444Z" fill="#D17C00"/>
<path d="M630.504 296.444C630.679 296.561 630.824 297.377 631.553 292.8C630.708 292.247 631.378 292.013 630.504 296.444Z" fill="#FF9739"/>
<path opacity="0.6" d="M630.504 296.444C630.679 296.561 630.824 297.377 631.553 292.8C630.708 292.247 631.378 292.013 630.504 296.444Z" fill="#FF9739"/>
<path d="M630.242 296.269C630.475 296.415 630.621 297.173 631.058 292.48C630.3 291.984 630.942 291.722 630.242 296.269Z" fill="#FF9D00"/>
<path d="M630.242 296.269C630.475 296.415 630.621 297.173 631.058 292.48C630.3 291.984 630.942 291.722 630.242 296.269Z" fill="#FF9739"/>
<path opacity="0.6" d="M630.242 296.269C630.475 296.415 630.621 297.173 631.058 292.48C630.3 291.984 630.942 291.722 630.242 296.269Z" fill="#FF9739"/>
<path d="M569.118 253.625C568.04 252.955 568.535 252.401 564.746 255.199C566.116 256.074 564.804 255.986 569.118 253.625Z" fill="#FF9D00"/>
<path d="M569.118 253.625C568.04 252.955 568.535 252.401 564.746 255.199C566.116 256.074 564.804 255.986 569.118 253.625Z" fill="#FF9739"/>
<path opacity="0.6" d="M569.118 253.625C568.04 252.955 568.535 252.401 564.746 255.199C566.116 256.074 564.804 255.986 569.118 253.625Z" fill="#FF9739"/>
<path d="M596.957 275.399C634.821 299.126 630.361 298.135 630.652 292.218C593.284 268.782 598.706 270.444 596.957 275.399Z" fill="#FF9D00"/>
<path d="M596.957 275.399C634.821 299.126 630.361 298.135 630.652 292.218C593.284 268.782 598.706 270.444 596.957 275.399Z" fill="#FF9739"/>
<path opacity="0.6" d="M596.957 275.399C634.821 299.126 630.361 298.135 630.652 292.218C593.284 268.782 598.706 270.444 596.957 275.399Z" fill="#FF9739"/>
<path d="M582.76 262.166C567.02 252.284 570.023 252.751 565.65 255.753C583.343 266.858 577.98 264.935 582.76 262.166Z" fill="#FF9D00"/>
<path d="M582.76 262.166C567.02 252.284 570.023 252.751 565.65 255.753C583.343 266.858 577.98 264.935 582.76 262.166Z" fill="#FF9739"/>
<path opacity="0.6" d="M582.76 262.166C567.02 252.284 570.023 252.751 565.65 255.753C583.343 266.858 577.98 264.935 582.76 262.166Z" fill="#FF9739"/>
<path d="M592.292 268.87C590.776 268.899 589.523 269.394 588.648 270.181C592.03 272.309 590.98 272.601 592.292 268.87Z" fill="#FF9D00"/>
<path d="M592.292 268.87C590.776 268.899 589.523 269.394 588.648 270.181C592.03 272.309 590.98 272.601 592.292 268.87Z" fill="#FF9739"/>
<path opacity="0.6" d="M592.292 268.87C590.776 268.899 589.523 269.394 588.648 270.181C592.03 272.309 590.98 272.601 592.292 268.87Z" fill="#FF9739"/>
<path d="M637.5 299.592C638.375 296.269 638.637 297.231 635.023 294.957C634.352 298.892 633.215 299.534 637.5 299.592Z" fill="#FFCC3B"/>
<path d="M637.5 299.592C638.375 296.269 638.637 297.231 635.023 294.957C634.352 298.892 633.215 299.534 637.5 299.592Z" fill="#FF9739"/>
<path opacity="0.6" d="M637.5 299.592C638.375 296.269 638.637 297.231 635.023 294.957C634.352 298.892 633.215 299.534 637.5 299.592Z" fill="#FF9739"/>
<path d="M563.61 250.186C560.083 247.97 561.103 247.504 557.518 250.681C561.54 253.188 559.616 253.042 563.61 250.186Z" fill="#FFCC3B"/>
<path d="M563.61 250.186C560.083 247.97 561.103 247.504 557.518 250.681C561.54 253.188 559.616 253.042 563.61 250.186Z" fill="#FF9739"/>
<path opacity="0.6" d="M563.61 250.186C560.083 247.97 561.103 247.504 557.518 250.681C561.54 253.188 559.616 253.042 563.61 250.186Z" fill="#FF9739"/>
<path d="M596.955 271.085C595.468 275.311 595.293 274.35 596.926 275.399C598.441 271.143 598.616 272.105 596.955 271.085Z" fill="#D17C00"/>
<path d="M596.955 271.085C595.468 275.311 595.293 274.35 596.926 275.399C598.441 271.143 598.616 272.105 596.955 271.085Z" fill="#FF9739"/>
<path opacity="0.6" d="M596.955 271.085C595.468 275.311 595.293 274.35 596.926 275.399C598.441 271.143 598.616 272.105 596.955 271.085Z" fill="#FF9739"/>
<path d="M592.29 268.87C592.553 268.141 589.317 268.112 587.539 269.511C589.813 270.939 588.326 268.928 592.29 268.87Z" fill="#D17C00"/>
<path d="M592.29 268.87C592.553 268.141 589.317 268.112 587.539 269.511C589.813 270.939 588.326 268.928 592.29 268.87Z" fill="#FF9739"/>
<path opacity="0.6" d="M592.29 268.87C592.553 268.141 589.317 268.112 587.539 269.511C589.813 270.939 588.326 268.928 592.29 268.87Z" fill="#FF9739"/>
<path d="M583.78 262.807C583.081 262.37 582.702 261.379 579.729 264.585C581.798 265.897 579.758 265.284 583.78 262.807Z" fill="#FFE471"/>
<path d="M583.78 262.807C583.081 262.37 582.702 261.379 579.729 264.585C581.798 265.897 579.758 265.284 583.78 262.807Z" fill="#FF9739"/>
<path opacity="0.6" d="M583.78 262.807C583.081 262.37 582.702 261.379 579.729 264.585C581.798 265.897 579.758 265.284 583.78 262.807Z" fill="#FF9739"/>
<path d="M592.292 268.87C591.039 272.426 590.922 271.639 592.467 272.601C593.866 268.666 594.303 268.841 592.292 268.87Z" fill="#FFE471"/>
<path d="M592.292 268.87C591.039 272.426 590.922 271.639 592.467 272.601C593.866 268.666 594.303 268.841 592.292 268.87Z" fill="#FF9739"/>
<path opacity="0.6" d="M592.292 268.87C591.039 272.426 590.922 271.639 592.467 272.601C593.866 268.666 594.303 268.841 592.292 268.87Z" fill="#FF9739"/>
<path d="M592.494 272.601C596.575 275.136 595.351 275.69 596.983 271.085C592.902 268.549 594.097 267.995 592.494 272.601Z" fill="#FFE471"/>
<path d="M592.494 272.601C596.575 275.136 595.351 275.69 596.983 271.085C592.902 268.549 594.097 267.995 592.494 272.601Z" fill="#FF9739"/>
<path opacity="0.6" d="M592.494 272.601C596.575 275.136 595.351 275.69 596.983 271.085C592.902 268.549 594.097 267.995 592.494 272.601Z" fill="#FF9739"/>
<path d="M592.435 268.491C592.231 269.074 592.085 268.724 593.543 268.928L583.778 262.807C582.67 263.506 581.679 264.323 580.834 265.284L587.567 269.511C588.733 268.578 590.424 268.17 592.435 268.491Z" fill="#FFE471"/>
<path d="M592.435 268.491C592.231 269.074 592.085 268.724 593.543 268.928L583.778 262.807C582.67 263.506 581.679 264.323 580.834 265.284L587.567 269.511C588.733 268.578 590.424 268.17 592.435 268.491Z" fill="#FF9739"/>
<path opacity="0.6" d="M592.435 268.491C592.231 269.074 592.085 268.724 593.543 268.928L583.778 262.807C582.67 263.506 581.679 264.323 580.834 265.284L587.567 269.511C588.733 268.578 590.424 268.17 592.435 268.491Z" fill="#FF9739"/>
<path opacity="0.4" d="M537.869 277.148C538.277 275.195 538.773 273.242 539.414 271.289C538.773 273.242 538.248 275.195 537.869 277.148Z" fill="#FF9739"/>
<path d="M537.143 293.821C549.064 301.283 535.277 295.278 543.905 270.91C543.963 270.764 544.342 271.056 540.378 268.578C537.201 276.798 536.181 285.455 537.143 293.821Z" fill="#FFC200"/>
<path opacity="0.4" d="M537.143 293.821C549.064 301.283 535.277 295.278 543.905 270.91C543.963 270.764 544.342 271.056 540.378 268.578C537.201 276.798 536.181 285.455 537.143 293.821Z" fill="#FF9739"/>
<path d="M550.346 274.816L546.907 272.659C543.963 281.374 543.817 290.381 545.974 298.688L548.335 298.718C546.44 289.74 547.664 282.482 550.346 274.816Z" fill="#FFC200"/>
<path opacity="0.4" d="M550.346 274.816L546.907 272.659C543.963 281.374 543.817 290.381 545.974 298.688L548.335 298.718C546.44 289.74 547.664 282.482 550.346 274.816Z" fill="#FF9739"/>
<path d="M550.145 275.457C547.317 282.977 546.705 290.993 548.367 298.747C551.107 298.747 544.869 291.314 550.145 275.457Z" fill="#FFE471"/>
<path opacity="0.4" d="M550.145 275.457C547.317 282.977 546.705 290.993 548.367 298.747C551.107 298.747 544.869 291.314 550.145 275.457Z" fill="#FF9739"/>
<path d="M550.348 274.816C550.027 275.778 550.086 275.545 550.348 274.816V274.816Z" fill="#FF9D00"/>
<path opacity="0.4" d="M550.348 274.816C550.027 275.778 550.086 275.545 550.348 274.816V274.816Z" fill="#FF9739"/>
<path d="M549.268 298.747L550.755 298.776C548.365 291.226 548.132 282.977 550.434 274.903C550.259 274.758 545.975 285.688 549.268 298.747Z" fill="#FF9D00"/>
<path opacity="0.4" d="M549.268 298.747L550.755 298.776C548.365 291.226 548.132 282.977 550.434 274.903C550.259 274.758 545.975 285.688 549.268 298.747Z" fill="#FF9739"/>
<path d="M571.131 292.713C572.034 290.935 572.296 295.074 578.826 299.038C582.353 299.067 581.362 299.825 582.965 295.278L550.435 274.874C548.133 282.948 548.395 291.226 550.756 298.747L567.545 298.892C570.081 291.46 569.702 290.789 571.131 292.713Z" fill="#FF9D00"/>
<path opacity="0.4" d="M571.131 292.713C572.034 290.935 572.296 295.074 578.826 299.038C582.353 299.067 581.362 299.825 582.965 295.278L550.435 274.874C548.133 282.948 548.395 291.226 550.756 298.747L567.545 298.892C570.081 291.46 569.702 290.789 571.131 292.713Z" fill="#FF9739"/>
<path d="M588.561 299.126C589.26 299.126 589.26 299.213 588.648 298.834L588.561 299.126Z" fill="#FF9D00"/>
<path opacity="0.4" d="M588.561 299.126C589.26 299.126 589.26 299.213 588.648 298.834L588.561 299.126Z" fill="#FF9739"/>
<path d="M546.909 272.659L543.936 270.793C540.876 279.48 540.322 288.37 542.041 296.881C551.602 302.886 539.535 294.462 546.909 272.659Z" fill="#FFCC3B"/>
<path opacity="0.4" d="M546.909 272.659L543.936 270.793C540.876 279.48 540.322 288.37 542.041 296.881C551.602 302.886 539.535 294.462 546.909 272.659Z" fill="#FF9739"/>
<path d="M588.65 298.834C587.105 297.872 587.542 297.756 587.047 299.097C588.796 299.126 588.504 299.213 588.65 298.834Z" fill="#D17C00"/>
<path opacity="0.4" d="M588.65 298.834C587.105 297.872 587.542 297.756 587.047 299.097C588.796 299.126 588.504 299.213 588.65 298.834Z" fill="#FF9739"/>
<path d="M578.824 299.038C572.295 295.074 572.003 290.935 571.129 292.713C573.723 296.211 577.425 299.009 578.824 299.038Z" fill="#D17C00"/>
<path opacity="0.4" d="M578.824 299.038C572.295 295.074 572.003 290.935 571.129 292.713C573.723 296.211 577.425 299.009 578.824 299.038Z" fill="#FF9739"/>
<path d="M571.13 292.713C569.702 290.789 570.081 291.459 567.545 298.921H569.031C570.227 295.394 570.722 293.471 571.13 292.713Z" fill="#FFE471"/>
<path opacity="0.4" d="M571.13 292.713C569.702 290.789 570.081 291.459 567.545 298.921H569.031C570.227 295.394 570.722 293.471 571.13 292.713Z" fill="#FF9739"/>
<path d="M584.186 296.036C582.554 295.016 583.224 294.52 581.621 299.038C583.516 299.067 582.904 299.679 584.186 296.036Z" fill="#FFE471"/>
<path opacity="0.4" d="M584.186 296.036C582.554 295.016 583.224 294.52 581.621 299.038C583.516 299.067 582.904 299.679 584.186 296.036Z" fill="#FF9739"/>
<path d="M584.187 296.036C582.788 299.971 582.088 299.038 587.043 299.096C587.539 297.726 588.063 298.455 584.187 296.036Z" fill="#FFE471"/>
<path opacity="0.4" d="M584.187 296.036C582.788 299.971 582.088 299.038 587.043 299.096C587.539 297.726 588.063 298.455 584.187 296.036Z" fill="#FF9739"/>
<path d="M578.298 299.009C568.767 293.675 572.527 288.574 569.029 298.922L578.298 299.009Z" fill="#FFE471"/>
<path opacity="0.4" d="M578.298 299.009C568.767 293.675 572.527 288.574 569.029 298.922L578.298 299.009Z" fill="#FF9739"/>
<path d="M542.33 264.119C539.765 269.336 539.678 268.141 543.963 270.823C546.032 264.964 546.994 267.033 542.33 264.119Z" fill="#FFC200"/>
<path opacity="0.6" d="M542.33 264.119C539.765 269.336 539.678 268.141 543.963 270.823C546.032 264.964 546.994 267.033 542.33 264.119Z" fill="#FF9739"/>
<path opacity="0.4" d="M542.33 264.119C539.765 269.336 539.678 268.141 543.963 270.823C546.032 264.964 546.994 267.033 542.33 264.119Z" fill="#FF9739"/>
<path d="M552.036 270.21L548.713 268.112C547.985 269.715 547.402 271.143 546.906 272.659C551.716 275.69 549.704 275.836 552.036 270.21Z" fill="#FFC200"/>
<path opacity="0.6" d="M552.036 270.21L548.713 268.112C547.985 269.715 547.402 271.143 546.906 272.659C551.716 275.69 549.704 275.836 552.036 270.21Z" fill="#FF9739"/>
<path opacity="0.4" d="M552.036 270.21L548.713 268.112C547.985 269.715 547.402 271.143 546.906 272.659C551.716 275.69 549.704 275.836 552.036 270.21Z" fill="#FF9739"/>
<path d="M552.039 270.211C551.514 271.464 551.135 272.484 550.814 273.563C552.243 269.861 552.418 270.444 552.039 270.211Z" fill="#D17C00"/>
<path opacity="0.6" d="M552.039 270.211C551.514 271.464 551.135 272.484 550.814 273.563C552.243 269.861 552.418 270.444 552.039 270.211Z" fill="#FF9739"/>
<path opacity="0.4" d="M552.039 270.211C551.514 271.464 551.135 272.484 550.814 273.563C552.243 269.861 552.418 270.444 552.039 270.211Z" fill="#FF9739"/>
<path d="M550.582 274.35C551.194 272.309 550.349 274.845 550.378 274.845C550.436 274.67 550.494 274.495 550.582 274.35Z" fill="#FF9D00"/>
<path opacity="0.6" d="M550.582 274.35C551.194 272.309 550.349 274.845 550.378 274.845C550.436 274.67 550.494 274.495 550.582 274.35Z" fill="#FF9739"/>
<path opacity="0.4" d="M550.582 274.35C551.194 272.309 550.349 274.845 550.378 274.845C550.436 274.67 550.494 274.495 550.582 274.35Z" fill="#FF9739"/>
<path d="M552.418 270.444C552.272 270.356 552.301 269.773 550.815 273.562C550.173 275.574 550.785 273.475 552.418 270.444Z" fill="#FF9D00"/>
<path opacity="0.6" d="M552.418 270.444C552.272 270.356 552.301 269.773 550.815 273.562C550.173 275.574 550.785 273.475 552.418 270.444Z" fill="#FF9739"/>
<path opacity="0.4" d="M552.418 270.444C552.272 270.356 552.301 269.773 550.815 273.562C550.173 275.574 550.785 273.475 552.418 270.444Z" fill="#FF9739"/>
<path d="M550.377 274.845C550.435 274.903 550.406 274.962 550.581 274.35C550.494 274.495 550.435 274.67 550.377 274.845Z" fill="#FF9D00"/>
<path opacity="0.6" d="M550.377 274.845C550.435 274.903 550.406 274.962 550.581 274.35C550.494 274.495 550.435 274.67 550.377 274.845Z" fill="#FF9739"/>
<path opacity="0.4" d="M550.377 274.845C550.435 274.903 550.406 274.962 550.581 274.35C550.494 274.495 550.435 274.67 550.377 274.845Z" fill="#FF9739"/>
<path d="M590.309 294.199C588.297 299.883 587.394 299.126 592.436 299.155C593.632 295.715 591.154 294.724 590.309 294.199Z" fill="#FF9D00"/>
<path opacity="0.6" d="M590.309 294.199C588.297 299.883 587.394 299.126 592.436 299.155C593.632 295.715 591.154 294.724 590.309 294.199Z" fill="#FF9739"/>
<path opacity="0.4" d="M590.309 294.199C588.297 299.883 587.394 299.126 592.436 299.155C593.632 295.715 591.154 294.724 590.309 294.199Z" fill="#FF9739"/>
<path d="M584.598 290.614L552.418 270.444C549.183 276.506 546.064 272.134 582.965 295.278L584.598 290.614Z" fill="#FF9D00"/>
<path opacity="0.6" d="M584.598 290.614L552.418 270.444C549.183 276.506 546.064 272.134 582.965 295.278L584.598 290.614Z" fill="#FF9739"/>
<path opacity="0.4" d="M584.598 290.614L552.418 270.444C549.183 276.506 546.064 272.134 582.965 295.278L584.598 290.614Z" fill="#FF9739"/>
<path d="M547.113 272.047C548.92 266.975 549.707 268.753 545.801 266.305C545.101 267.762 544.489 269.278 543.936 270.823C547.462 273.009 546.821 272.863 547.113 272.047Z" fill="#FFCC3B"/>
<path opacity="0.6" d="M547.113 272.047C548.92 266.975 549.707 268.753 545.801 266.305C545.101 267.762 544.489 269.278 543.936 270.823C547.462 273.009 546.821 272.863 547.113 272.047Z" fill="#FF9739"/>
<path opacity="0.4" d="M547.113 272.047C548.92 266.975 549.707 268.753 545.801 266.305C545.101 267.762 544.489 269.278 543.936 270.823C547.462 273.009 546.821 272.863 547.113 272.047Z" fill="#FF9739"/>
<path d="M589.055 293.413C587.073 298.98 586.986 297.814 588.647 298.834C590.629 293.267 590.717 294.433 589.055 293.413Z" fill="#D17C00"/>
<path opacity="0.6" d="M589.055 293.413C587.073 298.98 586.986 297.814 588.647 298.834C590.629 293.267 590.717 294.433 589.055 293.413Z" fill="#FF9739"/>
<path opacity="0.4" d="M589.055 293.413C587.073 298.98 586.986 297.814 588.647 298.834C590.629 293.267 590.717 294.433 589.055 293.413Z" fill="#FF9739"/>
<path d="M585.819 291.401C584.158 290.381 584.916 289.682 582.934 295.278C584.595 296.298 583.866 296.969 585.819 291.401Z" fill="#FFE471"/>
<path opacity="0.6" d="M585.819 291.401C584.158 290.381 584.916 289.682 582.934 295.278C584.595 296.298 583.866 296.969 585.819 291.401Z" fill="#FF9739"/>
<path opacity="0.4" d="M585.819 291.401C584.158 290.381 584.916 289.682 582.934 295.278C584.595 296.298 583.866 296.969 585.819 291.401Z" fill="#FF9739"/>
<path d="M593.662 296.298C590.31 294.2 593.604 295.803 592.438 299.155H593.895C594.099 298.309 594.041 297.318 593.662 296.298Z" fill="#FFE471"/>
<path opacity="0.6" d="M593.662 296.298C590.31 294.2 593.604 295.803 592.438 299.155H593.895C594.099 298.309 594.041 297.318 593.662 296.298Z" fill="#FF9739"/>
<path opacity="0.4" d="M593.662 296.298C590.31 294.2 593.604 295.803 592.438 299.155H593.895C594.099 298.309 594.041 297.318 593.662 296.298Z" fill="#FF9739"/>
<path d="M593.895 299.155L598.296 299.184C591.242 294.782 594.624 295.977 593.895 299.155Z" fill="#FFE471"/>
<path opacity="0.6" d="M593.895 299.155L598.296 299.184C591.242 294.782 594.624 295.977 593.895 299.155Z" fill="#FF9739"/>
<path opacity="0.4" d="M593.895 299.155L598.296 299.184C591.242 294.782 594.624 295.977 593.895 299.155Z" fill="#FF9739"/>
<path d="M589.055 293.412C584.858 290.789 586.257 290.177 584.188 296.036C588.385 298.688 586.986 299.271 589.055 293.412Z" fill="#FFE471"/>
<path opacity="0.6" d="M589.055 293.412C584.858 290.789 586.257 290.177 584.188 296.036C588.385 298.688 586.986 299.271 589.055 293.412Z" fill="#FF9739"/>
<path opacity="0.4" d="M589.055 293.412C584.858 290.789 586.257 290.177 584.188 296.036C588.385 298.688 586.986 299.271 589.055 293.412Z" fill="#FF9739"/>
<path d="M628.582 303.206C628.815 302.623 628.961 302.186 629.252 301.312C628.699 302.798 629.107 301.632 628.582 303.206Z" fill="#42437E"/>
<path d="M334.066 496.809C334.066 499.549 331.851 501.765 329.111 501.765H178.822C176.082 501.765 173.867 499.549 173.867 496.809V196.524C173.867 193.784 176.082 191.568 178.822 191.568H329.111C331.851 191.568 334.066 193.784 334.066 196.524V496.809Z" fill="#303030"/>
<path d="M329.314 477.222C329.314 479.962 327.099 482.177 324.359 482.177H183.572C180.832 482.177 178.617 479.962 178.617 477.222V201.479C178.617 198.739 180.832 196.524 183.572 196.524H324.388C327.128 196.524 329.343 198.739 329.343 201.479V477.222H329.314Z" fill="#151519"/>
<path d="M327.827 472.5C327.827 475.211 325.525 477.397 322.697 477.397H185.263C182.436 477.397 180.133 475.211 180.133 472.5V203.228C180.133 200.517 182.436 198.302 185.263 198.302H322.697C325.525 198.302 327.827 200.488 327.827 203.228V472.5Z" fill="#CADAFF"/>
<g opacity="0.5">
<path opacity="0.4" d="M296.431 146.622L122.824 363.291L160.767 393.692L334.374 177.024L296.431 146.622Z" fill="#CADAFF"/>
<path opacity="0.6" d="M295.542 81.7439L70.209 362.888L94.7047 382.521L320.038 101.377L295.542 81.7439Z" fill="#CADAFF"/>
</g>
<path d="M321.417 414.349H192.057V432.45H321.417V414.349Z" fill="#3777D3"/>
<path d="M321.417 414.349L317.453 410.56H196.196L192.057 414.349H321.417Z" fill="#62A2EF"/>
<path d="M197.624 423.327C197.624 425.425 192.552 424.697 313.518 424.697C314.655 424.697 314.917 423.327 314.829 423.327C314.829 421.228 319.901 421.957 198.936 421.957C197.624 421.957 197.653 423.327 197.624 423.327Z" fill="#080835"/>
<path d="M204.006 423.414C204.006 423.414 230.531 450.813 215.17 495.993H253.004L228.49 429.739C228.49 429.739 209.078 422.19 204.006 423.414Z" fill="#AAD3F7"/>
<path d="M204.004 423.414C204.004 423.414 225.486 425.921 231.403 441.836C237.32 457.751 231.549 523.801 257.316 518.233C259.182 517.825 359.918 518.233 359.918 518.233C359.918 518.233 335.463 474.831 335.113 456.847C334.734 438.862 319.927 422.481 302.875 423.414H204.004Z" fill="white"/>
<g opacity="0.3">
<path opacity="0.3" d="M204.996 423.414C204.996 423.414 226.478 425.921 232.395 441.835C238.313 457.75 232.541 523.8 258.308 518.233C260.174 517.825 360.91 518.408 360.91 518.408C360.91 518.408 336.455 474.831 336.105 456.876C335.726 438.891 320.919 422.51 303.867 423.443H204.996V423.414Z" fill="#C2ECFF"/>
<path opacity="0.3" d="M364.845 493.107C364.845 493.107 278.479 506.953 255.743 460.84C232.978 414.728 209.077 412.425 197.68 411.667L185.787 414.728L235.951 528.464C235.951 528.464 371.52 527.707 373.764 528.464C375.951 529.222 364.845 493.107 364.845 493.107Z" fill="#9FEBFF"/>
</g>
<path d="M255.744 518.408C255.744 518.408 266.471 517.825 268.336 508.177H369.423C369.423 508.177 370.18 514.24 360.94 518.408H255.744Z" fill="#D9F2FF"/>
<path d="M268.334 508.323C265.973 520.769 249.417 518.466 253.993 518.466C261.921 518.496 266.381 512.986 268.334 508.323Z" fill="white"/>
<path d="M237.966 432.45C237.966 433.849 233.564 433.383 317.22 433.383C317.978 433.383 318.182 432.45 318.123 432.45C318.123 431.022 321.65 431.517 238.869 431.517C237.966 431.517 237.995 432.45 237.966 432.45Z" fill="#AAD3F7"/>
<path d="M240.907 438.484C240.907 439.883 236.506 439.416 320.161 439.416C320.919 439.416 321.123 438.484 321.065 438.484C321.065 437.055 324.504 437.551 241.811 437.551C240.907 437.551 240.936 438.484 240.907 438.484Z" fill="#AAD3F7"/>
<path d="M244.114 444.372C244.114 445.771 239.713 445.304 323.368 445.304C324.126 445.304 324.33 444.372 324.272 444.372C324.272 442.973 328.673 443.439 245.018 443.439C244.114 443.439 244.143 444.372 244.114 444.372Z" fill="#AAD3F7"/>
<path d="M246.038 450.522C246.038 451.921 241.637 451.455 325.292 451.455C326.05 451.455 326.254 450.522 326.196 450.522C326.196 449.094 329.723 449.589 246.942 449.589C246.038 449.589 246.067 450.522 246.038 450.522Z" fill="#AAD3F7"/>
<path d="M249.333 470.051C249.333 471.45 244.931 470.984 328.587 470.984C329.345 470.984 329.549 470.051 329.491 470.051C329.491 468.652 333.892 469.118 250.236 469.118C249.333 469.148 249.362 470.051 249.333 470.051Z" fill="#AAD3F7"/>
<path d="M251.315 475.56C251.315 476.959 246.914 476.493 330.569 476.493C331.327 476.493 331.531 475.56 331.473 475.56C331.473 474.161 335.874 474.627 252.219 474.627C251.315 474.627 251.344 475.56 251.315 475.56Z" fill="#AAD3F7"/>
<path d="M253.005 482.527C253.005 483.926 248.603 483.459 332.259 483.459C333.017 483.459 333.221 482.527 333.163 482.527C333.163 481.127 337.564 481.594 253.908 481.594C253.005 481.594 253.034 482.527 253.005 482.527Z" fill="#AAD3F7"/>
<path d="M255.743 488.677C255.743 490.105 252.303 489.61 334.997 489.61C335.755 489.61 335.959 488.677 335.901 488.677C335.901 487.278 340.302 487.744 256.647 487.744C255.743 487.744 255.772 488.677 255.743 488.677Z" fill="#AAD3F7"/>
<path d="M249.388 463.872H327.768C328.963 463.872 328.934 458.13 327.768 458.13H249.388C248.222 458.1 248.222 463.872 249.388 463.872Z" fill="#AAD3F7"/>
<path d="M490.33 36.9076C509.539 56.1455 509.51 87.305 490.272 106.485C471.034 125.693 439.875 125.664 420.695 106.426C401.486 87.1884 401.515 56.0289 420.753 36.8493C439.962 17.6406 471.122 17.6697 490.33 36.9076Z" fill="#FFC200"/>
<path d="M481.763 43.4076C496.804 58.4773 496.775 82.8744 481.734 97.9149C466.664 112.955 442.267 112.955 427.227 97.8858C412.186 82.8161 412.215 58.419 427.256 43.3784C442.326 28.3379 466.723 28.3379 481.763 43.4076Z" fill="#D17C00"/>
<path d="M484.472 46.1184C499.513 61.188 499.513 85.5851 484.443 100.626C469.373 115.666 444.976 115.666 429.936 100.597C414.895 85.5269 414.924 61.1297 429.965 46.0892C445.005 31.0195 469.432 31.0487 484.472 46.1184Z" fill="#FFE471"/>
<path d="M483.396 45.0107C498.437 60.0804 498.437 84.4775 483.367 99.518C468.297 114.559 443.9 114.529 428.86 99.4597C413.819 84.3901 413.848 59.9929 428.889 44.9524C443.929 29.9411 468.326 29.9411 483.396 45.0107Z" fill="#FF9D00"/>
<path d="M487.242 103.453C469.52 121.175 440.78 121.146 423.087 103.395C405.394 85.6434 405.394 56.9323 423.145 39.2393C440.896 21.5172 469.607 21.5755 487.3 39.2976C505.023 57.0198 504.993 85.76 487.242 103.453ZM425.36 41.4546C408.892 57.8942 408.862 84.6815 425.331 101.15C441.771 117.619 468.558 117.648 485.027 101.179C501.496 84.7398 501.525 57.9525 485.085 41.4837C468.616 25.0441 441.829 25.0149 425.36 41.4546Z" fill="#FFCC3B"/>
<path d="M472.2 85.0895C478.496 91.3855 478.204 89.0828 473.832 93.455C464.767 84.3607 472.958 90.511 458.121 95.1748C446.87 83.8944 452.379 92.9304 463.484 83.1657L455.148 74.7127C435.706 83.6029 426.32 67.2798 435.939 55.5622L431.684 51.2483C435.91 47.0218 433.957 46.8177 439.233 52.0936C442.643 49.0039 445.587 47.1092 448.065 46.4097C458.209 56.5533 454.74 49.3828 444.655 57.4569L453.341 66.2597C473.715 56.7282 481.615 73.3718 472.2 85.0895ZM448.648 68.3L441.39 60.9255C438.155 65.5892 441.623 70.6611 448.648 68.3ZM459.841 72.7014L466.778 79.7262C470.159 75.1207 466.866 69.9323 459.841 72.7014Z" fill="#D17C00"/>
<path d="M471.266 86.0223C477.562 92.3184 477.271 90.0156 472.898 94.3879C463.833 85.2936 472.024 91.4439 457.187 96.1076C445.907 84.8272 451.416 93.8632 462.551 84.0985L454.214 75.6455C434.685 84.5941 425.445 68.0961 435.006 56.4951L430.75 52.1811C434.977 47.9546 433.024 47.7506 438.299 53.0264C441.71 49.9367 444.654 48.0421 447.131 47.3425C457.275 57.5153 453.806 50.2865 443.721 58.3897L452.407 67.1925C472.607 57.7485 480.768 74.159 471.266 86.0223ZM447.714 69.2329L440.456 61.8875C437.221 66.5221 440.69 71.5939 447.714 69.2329ZM458.907 73.6051L465.845 80.6299C469.226 76.0536 465.932 70.8652 458.907 73.6051Z" fill="#FFE471"/>
<path d="M326.55 159.914C326.608 159.972 326.462 160.176 330.339 149.566L327.103 148.167C319.67 117.94 259.304 91.6192 233.683 107.913L230.214 106.426L226.833 115.404C220.304 129.279 234.441 145.66 246.771 154.725C276.24 176.499 318.505 179.734 326.55 159.914Z" fill="#FF9100"/>
<path d="M321.387 160.38C304.948 169.591 272.943 163.295 249.887 146.272C226.83 129.279 221.467 108 237.907 98.7896C254.346 89.5787 286.351 95.8747 309.407 112.897C332.464 129.92 337.827 151.169 321.387 160.38Z" fill="#FFC200"/>
<path d="M313.226 153.239C300.343 160.467 275.275 155.512 257.203 142.191C239.132 128.871 234.934 112.227 247.818 104.998C260.701 97.7694 285.769 102.725 303.841 116.045C321.884 129.366 326.11 146.01 313.226 153.239Z" fill="#D17C00"/>
<path d="M310.924 154.521C298.04 161.75 272.973 156.795 254.93 143.474C236.858 130.153 232.661 113.509 245.544 106.281C258.428 99.0519 283.495 104.007 301.567 117.328C319.581 130.649 323.778 147.321 310.924 154.521Z" fill="#FFE471"/>
<path d="M311.855 153.996C298.972 161.225 273.904 156.27 255.832 142.949C237.76 129.628 233.563 112.985 246.447 105.756C259.33 98.5271 284.398 103.482 302.47 116.803C320.512 130.124 324.71 146.797 311.855 153.996Z" fill="#FF9D00"/>
<path d="M252.481 144.844C231.232 129.162 226.276 109.574 241.434 101.063C256.591 92.5518 286.089 98.3814 307.367 114.063C328.645 129.745 333.571 149.362 318.414 157.844C303.257 166.355 273.73 160.496 252.481 144.844ZM305.443 115.113C285.71 100.538 258.165 95.1168 244.086 103.016C230.007 110.915 234.613 129.191 254.375 143.765C274.138 158.339 301.654 163.761 315.733 155.862C329.811 147.963 325.206 129.687 305.443 115.113Z" fill="#FFCC3B"/>
<path d="M268.745 138.256C263.353 141.288 265.685 141.55 260.438 137.673C268.192 133.33 263.324 137.673 255.949 126.597C265.597 121.205 257.319 123.157 269.241 132.718L276.411 128.696C263.907 113.626 279.122 110.565 292.822 119.485L296.495 117.444C301.566 121.205 301.45 119.893 296.932 122.429C300.692 125.373 303.14 127.763 304.306 129.599C295.62 134.467 302.382 133.534 292.326 124.994L284.864 129.191C298.185 145.077 282.416 147.059 268.745 138.256ZM281.95 125.606L288.187 122.108C282.853 118.96 278.306 120.359 281.95 125.606ZM279.326 132.339L273.351 135.691C278.656 138.927 283.378 137.673 279.326 132.339Z" fill="#D17C00"/>
<path d="M267.607 137.44C262.214 140.471 264.546 140.734 259.299 136.857C267.053 132.514 262.185 136.857 254.811 125.781C264.459 120.359 256.151 122.312 268.102 131.902L275.273 127.879C262.71 112.751 278.1 109.807 291.683 118.669L295.356 116.599C300.428 120.359 300.311 119.047 295.793 121.583C299.553 124.527 302.002 126.918 303.168 128.754C294.481 133.622 301.244 132.689 291.188 124.178L283.726 128.375C296.93 144.115 281.452 146.33 267.607 137.44ZM280.84 124.79L287.078 121.292C281.744 118.144 277.196 119.514 280.84 124.79ZM278.217 131.523L272.241 134.846C277.546 138.081 282.239 136.857 278.217 131.523Z" fill="#FFE471"/>
<path d="M407.172 36.8782L404.14 39.6473C368.288 27.3175 325.469 66.0265 336.021 102.17L333.543 104.444C379.277 166.267 453.751 91.3272 420.405 50.7819C420.405 50.5779 412.739 40.376 407.172 36.8782Z" fill="#FF9700"/>
<path d="M419.795 56.5242C425.362 79.5805 409.301 106.222 383.942 115.987C358.583 125.781 333.486 114.996 327.919 91.9393C322.352 68.883 338.412 42.2415 363.771 32.4768C389.131 22.7121 414.227 33.4679 419.795 56.5242Z" fill="#FFC200"/>
<path d="M409.533 59.1475C413.906 77.2195 401.313 98.0605 381.434 105.726C361.555 113.392 341.909 104.969 337.537 86.8967C333.165 68.8247 345.757 47.9837 365.636 40.3177C385.515 32.6517 405.161 41.0756 409.533 59.1475Z" fill="#D17C00"/>
<path d="M410.318 62.3831C414.691 80.455 402.099 101.296 382.22 108.962C362.34 116.628 342.694 108.204 338.322 90.1323C333.95 72.0603 346.542 51.2193 366.421 43.5533C386.3 35.8873 405.946 44.3112 410.318 62.3831Z" fill="#FFE471"/>
<path d="M409.998 61.0713C414.37 79.1433 401.778 99.9843 381.899 107.65C362.02 115.316 342.374 106.892 338.002 88.8205C333.63 70.7486 346.222 49.9075 366.101 42.2415C385.98 34.5755 405.655 42.9994 409.998 61.0713Z" fill="#FF9D00"/>
<path d="M383.037 112.372C359.631 121.408 336.516 111.469 331.386 90.2196C326.256 68.9413 341.034 44.3984 364.44 35.3916C387.846 26.3556 410.961 36.2952 416.091 57.5443C421.25 78.7934 406.443 103.336 383.037 112.372ZM365.111 38.0441C343.366 46.4097 329.55 69.2911 334.33 89.0536C339.11 108.816 360.651 118.056 382.396 109.691C404.14 101.325 417.927 78.4145 413.176 58.652C408.396 38.8894 386.826 29.6494 365.111 38.0441Z" fill="#FFCC3B"/>
<path d="M380.355 91.4731C382.191 99.0225 383.153 96.953 377.353 99.1974C374.729 88.2959 378.169 96.37 363.828 95.2624C360.563 81.7376 360.388 91.3273 374.379 86.8385L371.96 76.7823C351.731 77.6859 352.606 60.4593 366.393 53.7552L365.139 48.6251C370.736 46.4681 369.278 45.5937 370.794 51.948C375.108 50.4906 378.46 49.8785 380.821 50.1408C383.765 62.3248 384.64 54.9794 372.339 58.4189L374.875 68.9123C396.241 67.7464 393.996 84.6815 380.355 91.4731ZM370.065 68.9997L367.938 60.2261C362.953 63.0826 363.216 68.5917 370.065 68.9997ZM376.77 76.6366L378.781 85.0313C383.882 82.2331 383.853 76.6949 376.77 76.6366Z" fill="#D17C00"/>
<path d="M379.132 91.9393C380.968 99.4887 381.93 97.4191 376.13 99.6636C373.506 88.7621 376.946 96.8362 362.605 95.7285C359.34 82.1746 359.165 91.7935 373.156 87.3047L370.737 77.2485C350.421 78.1521 351.528 60.8672 365.17 54.2505L363.916 49.0913C369.513 46.9343 368.055 46.089 369.571 52.4142C373.885 50.9568 377.237 50.3446 379.627 50.607C382.571 62.791 383.446 55.4456 371.145 58.8851L373.681 69.3785C394.814 68.2417 392.89 85.0894 379.132 91.9393ZM368.842 69.4659L366.715 60.6923C361.73 63.5488 361.963 69.0578 368.842 69.4659ZM375.547 77.1028L377.558 85.4975C382.659 82.6993 382.63 77.1611 375.547 77.1028Z" fill="#FFE471"/>
<path d="M303.375 185.914C299.324 186.03 303.871 183.728 293.96 189.586C268.397 190.752 220.915 218.181 208.614 240.071L202.289 243.802C206.661 251.06 206.312 250.535 206.37 250.535C223.538 275.457 319.29 212.847 307.981 195.766C307.981 195.766 308.127 196.145 303.375 185.914Z" fill="#FF9700"/>
<path d="M301.947 196.582C293.873 212.147 265.366 232.901 238.229 242.928C211.092 252.955 195.643 248.495 203.688 232.93C211.762 217.365 240.269 196.611 267.406 186.584C294.573 176.557 310.021 181.017 301.947 196.582Z" fill="#FFC200"/>
<path d="M291.747 199.701C285.422 211.885 263.065 228.149 241.816 236.019C220.567 243.89 208.441 240.363 214.766 228.179C221.092 215.995 243.448 199.73 264.697 191.86C285.947 183.99 298.072 187.517 291.747 199.701Z" fill="#D17C00"/>
<path d="M290.61 201.887C284.285 214.071 261.958 230.336 240.679 238.206C219.43 246.076 207.305 242.549 213.63 230.365C219.955 218.181 242.282 201.916 263.561 194.046C284.81 186.176 296.936 189.703 290.61 201.887Z" fill="#FFE471"/>
<path d="M291.075 200.983C284.75 213.167 262.422 229.432 241.144 237.302C219.895 245.172 207.769 241.645 214.095 229.461C220.42 217.277 242.747 201.012 264.026 193.142C285.275 185.302 297.4 188.799 291.075 200.983Z" fill="#FF9D00"/>
<path d="M239.509 240.479C214.5 249.749 200.246 245.61 207.65 231.269C215.083 216.898 241.404 197.777 266.413 188.508C291.451 179.239 305.676 183.378 298.243 197.719C290.839 212.089 264.518 231.21 239.509 240.479ZM265.48 190.315C242.249 198.914 217.706 216.753 210.798 230.073C203.89 243.394 217.181 247.242 240.442 238.643C263.673 230.044 288.216 212.206 295.124 198.885C302.032 185.564 288.74 181.716 265.48 190.315Z" fill="#FFCC3B"/>
<path d="M248.812 226.08C246.159 231.181 248.141 229.607 241.962 231.881C245.78 224.535 244.235 229.782 232.576 230.773C237.298 221.65 231.818 228.441 246.276 223.544L249.803 216.753C231.993 219.901 242.341 207.658 257.848 201.217L259.655 197.748C265.63 195.533 264.872 195.125 262.657 199.38C267.175 197.806 270.382 196.961 272.247 196.874C267.991 205.093 272.801 199.817 260.384 203.752L256.711 210.836C275.57 207.396 264.231 219.609 248.812 226.08ZM252.543 211.535L255.603 205.618C249.745 208.241 246.888 212.089 252.543 211.535ZM254.029 216.082L251.085 221.737C256.973 219.143 260.034 215.237 254.029 216.082Z" fill="#D17C00"/>
<path d="M247.497 226.575C244.845 231.676 246.827 230.102 240.648 232.376C244.466 225.031 242.921 230.277 231.291 231.268C236.013 222.145 230.533 228.937 244.991 224.04L248.518 217.248C230.621 220.396 241.201 208.095 256.563 201.712L258.37 198.243C264.345 196.028 263.587 195.591 261.372 199.876C265.89 198.302 269.096 197.456 270.962 197.34C266.706 205.56 271.516 200.284 259.098 204.219L255.426 211.302C274.11 207.921 263.092 220.046 247.497 226.575ZM251.228 212.001L254.289 206.084C248.43 208.708 245.574 212.555 251.228 212.001ZM252.715 216.548L249.8 222.203C255.659 219.638 258.72 215.732 252.715 216.548Z" fill="#FFE471"/>
<path d="M614.739 154.813C610.687 154.929 615.234 152.626 605.324 158.485C579.761 159.651 532.278 187.08 519.948 208.97L513.623 212.701C517.995 219.959 517.646 219.434 517.704 219.434C534.872 244.356 630.624 181.746 619.315 164.665C619.344 164.635 619.49 165.014 614.739 154.813Z" fill="#FF9700"/>
<path d="M613.308 165.452C605.234 181.017 576.727 201.77 549.59 211.797C522.453 221.824 507.005 217.365 515.049 201.8C523.124 186.234 551.631 165.481 578.768 155.454C605.905 145.427 621.383 149.916 613.308 165.452Z" fill="#FFC200"/>
<path d="M603.106 168.57C596.781 180.754 574.425 197.019 553.175 204.889C531.926 212.759 519.801 209.232 526.126 197.048C532.451 184.864 554.808 168.6 576.057 160.73C597.306 152.889 609.432 156.387 603.106 168.57Z" fill="#D17C00"/>
<path d="M601.972 170.757C595.646 182.941 573.319 199.205 552.041 207.075C530.792 214.945 518.666 211.418 524.991 199.234C531.316 187.05 553.644 170.786 574.922 162.916C596.171 155.075 608.297 158.573 601.972 170.757Z" fill="#FFE471"/>
<path d="M602.437 169.882C596.111 182.066 573.784 198.331 552.506 206.201C531.256 214.071 519.131 210.544 525.456 198.36C531.781 186.176 554.138 169.911 575.387 162.041C596.636 154.171 608.762 157.698 602.437 169.882Z" fill="#FF9D00"/>
<path d="M550.875 209.349C525.866 218.618 511.583 214.479 519.016 200.138C526.449 185.797 552.74 166.647 577.779 157.407C602.817 148.137 617.042 152.276 609.609 166.617C602.176 180.988 575.884 200.109 550.875 209.349ZM576.846 159.214C553.615 167.813 529.072 185.651 522.164 198.972C515.256 212.293 528.547 216.14 551.808 207.542C575.039 198.943 599.582 181.104 606.49 167.783C613.398 154.463 600.106 150.615 576.846 159.214Z" fill="#FFCC3B"/>
<path d="M560.171 194.979C557.519 200.08 559.501 198.506 553.321 200.779C557.14 193.434 555.595 198.681 543.936 199.672C548.658 190.548 543.178 197.34 557.635 192.443L561.162 185.651C543.353 188.799 553.7 176.557 569.207 170.115L571.014 166.647C576.99 164.431 576.232 164.023 574.017 168.279C578.535 166.705 581.741 165.86 583.606 165.772C579.351 173.992 584.16 168.716 571.743 172.651L568.07 179.734C586.929 176.295 575.591 188.508 560.171 194.979ZM563.902 180.405L566.963 174.488C561.104 177.111 558.247 180.959 563.902 180.405ZM565.36 184.952L562.416 190.607C568.333 188.042 571.393 184.107 565.36 184.952Z" fill="#D17C00"/>
<path d="M558.861 195.474C556.208 200.575 558.19 199.001 552.011 201.275C555.829 193.93 554.284 199.176 542.654 200.167C547.376 191.044 541.896 197.835 556.354 192.938L559.881 186.147C541.984 189.295 552.565 176.994 567.926 170.611L569.733 167.142C575.708 164.927 574.951 164.519 572.735 168.775C577.253 167.201 580.46 166.355 582.325 166.239C578.07 174.458 582.879 169.183 570.462 173.118L566.789 180.201C585.473 176.79 574.455 188.916 558.861 195.474ZM562.592 180.9L565.652 174.983C559.794 177.606 556.937 181.454 562.592 180.9ZM564.049 185.447L561.134 191.102C567.022 188.508 570.083 184.602 564.049 185.447Z" fill="#FFE471"/>
<path d="M577.575 90.7444C577.633 90.7152 577.779 90.9193 569.763 83.3699L567.256 85.7309C537.262 80.7757 490.479 124.819 495.26 154.113L492.578 156.649L499.341 163.12C509.28 174.313 529.392 167.9 542.276 160.351C573.115 142.279 592.265 105.581 577.575 90.7444Z" fill="#FF9100"/>
<path d="M576.03 95.5538C577.983 113.83 560.028 140.151 535.893 154.288C511.787 168.425 490.655 165.072 488.702 146.797C486.749 128.521 504.704 102.2 528.839 88.0627C552.945 73.9258 574.048 77.2778 576.03 95.5538Z" fill="#FFC200"/>
<path d="M566.47 100.13C567.986 114.471 553.907 135.05 535.019 146.126C516.131 157.202 499.575 154.579 498.03 140.267C496.485 125.926 510.564 105.348 529.481 94.2421C548.369 83.1949 564.925 85.8182 566.47 100.13Z" fill="#D17C00"/>
<path d="M566.73 102.695C568.275 117.007 554.196 137.615 535.308 148.691C516.42 159.767 499.864 157.144 498.319 142.832C496.774 128.52 510.853 107.913 529.741 96.8363C548.629 85.7599 565.185 88.3833 566.73 102.695Z" fill="#FFE471"/>
<path d="M566.611 101.675C568.156 115.987 554.077 136.594 535.189 147.671C516.301 158.747 499.745 156.124 498.2 141.812C496.684 127.5 510.734 106.892 529.651 95.816C548.539 84.7105 565.095 87.3339 566.611 101.675Z" fill="#FF9D00"/>
<path d="M535.571 151.402C513.331 164.46 493.86 161.371 492.053 144.494C490.246 127.617 506.802 103.395 529.042 90.3363C551.311 77.2779 570.753 80.3968 572.561 97.2445C574.397 114.121 557.811 138.373 535.571 151.402ZM529.275 92.4641C508.609 104.59 493.161 127.18 494.851 142.862C496.513 158.543 514.701 161.4 535.367 149.274C556.033 137.148 571.482 114.559 569.791 98.8768C568.101 83.2241 549.941 80.3385 529.275 92.4641Z" fill="#FFCC3B"/>
<path d="M535.949 134.292C536.59 140.296 537.727 138.314 532.247 141.521C531.314 132.893 533.355 138.926 520.588 141.287C519.451 130.561 518.023 138.752 531.198 131.727L530.352 123.74C512.047 129.162 515.108 114.354 528.399 105.493L527.962 101.413C533.267 98.2937 532.072 97.9148 532.597 102.928C536.677 100.684 539.767 99.4013 541.866 99.0807C542.886 108.729 544.664 102.316 533.151 108.058L534.054 116.366C553.35 110.507 549.095 125.402 535.949 134.292ZM529.653 117.59L528.924 110.623C524.056 114.209 523.532 118.814 529.653 117.59ZM534.666 122.516L535.366 129.162C540.321 125.664 541.021 120.942 534.666 122.516Z" fill="#D17C00"/>
<path d="M534.783 134.992C535.424 140.996 536.561 139.014 531.081 142.22C530.148 133.592 532.189 139.626 519.422 141.987C518.285 131.261 516.828 139.451 530.032 132.426L529.187 124.44C510.794 129.891 514.059 114.967 527.234 106.193L526.796 102.112C532.131 98.9934 530.906 98.5853 531.431 103.628C535.512 101.384 538.601 100.101 540.7 99.7804C541.72 109.428 543.498 103.016 531.985 108.758L532.859 117.065C552.01 111.236 548.046 125.985 534.783 134.992ZM528.487 118.26L527.729 111.323C522.891 114.908 522.366 119.514 528.487 118.26ZM533.501 123.216L534.2 129.861C539.155 126.334 539.855 121.642 533.501 123.216Z" fill="#FFE471"/>
<path d="M456.842 35.5668V36.8202C456.871 36.0623 456.842 35.5668 456.842 35.5668Z" fill="white"/>
<path d="M467.948 46.5265C455.064 46.4099 456.813 33.2641 456.871 36.004C456.755 42.9121 452.412 46.4682 445.795 46.5265C452.82 46.9055 456.9 51.8315 456.9 56.9908C457.396 50.2284 461.914 46.8472 467.948 46.5265Z" fill="white"/>
<mask id="mask0" style="mask-type:alpha" maskUnits="userSpaceOnUse" x="406" y="0" width="102" height="93">
<path d="M503.363 8.31293C492.432 -6.31951 462.73 -1.13111 437.05 19.914C411.371 40.959 399.449 69.9033 410.38 84.5357C421.31 99.1682 451.012 93.9798 476.692 72.9347C502.372 51.8896 514.293 22.9745 503.363 8.31293Z" fill="url(#paint0_radial)"/>
</mask>
<g mask="url(#mask0)">
</g>
<path d="M292.238 315.711V316.964C292.267 316.206 292.238 315.711 292.238 315.711Z" fill="white"/>
<path d="M303.346 326.67C290.462 326.554 292.211 313.408 292.27 316.148C292.153 323.056 287.81 326.612 281.193 326.67C288.218 327.049 292.299 331.975 292.299 337.135C292.824 330.372 297.341 326.991 303.346 326.67Z" fill="white"/>
<mask id="mask1" style="mask-type:alpha" maskUnits="userSpaceOnUse" x="241" y="280" width="102" height="93">
<path d="M338.761 288.457C327.831 273.825 298.128 279.013 272.449 300.058C246.769 321.103 234.847 350.018 245.778 364.68C256.709 379.312 286.411 374.124 312.09 353.079C337.77 332.034 349.721 303.119 338.761 288.457Z" fill="url(#paint1_radial)"/>
</mask>
<g mask="url(#mask1)">
</g>
<path d="M555.215 120.942V122.195C555.244 121.437 555.215 120.942 555.215 120.942Z" fill="white"/>
<path d="M566.323 131.93C553.439 131.814 555.188 118.668 555.246 121.408C555.13 128.316 550.787 131.872 544.17 131.93C551.195 132.309 555.275 137.235 555.275 142.395C555.771 135.632 560.289 132.222 566.323 131.93Z" fill="white"/>
<mask id="mask2" style="mask-type:alpha" maskUnits="userSpaceOnUse" x="504" y="85" width="102" height="94">
<path d="M601.738 93.7174C590.778 79.0849 561.105 84.2733 535.425 105.318C509.746 126.363 497.824 155.279 508.755 169.94C519.685 184.573 549.387 179.384 575.067 158.339C600.747 137.265 612.668 108.35 601.738 93.7174Z" fill="url(#paint2_radial)"/>
</mask>
<g mask="url(#mask2)">
</g>
<path d="M237.875 186.147V187.4C237.933 186.642 237.875 186.147 237.875 186.147Z" fill="white"/>
<path d="M248.983 197.106C236.099 196.99 237.848 183.844 237.906 186.584C237.79 193.492 233.447 197.048 226.83 197.106C233.855 197.485 237.936 202.411 237.936 207.57C238.46 200.808 242.978 197.427 248.983 197.106Z" fill="white"/>
<path d="M237.937 208.329C237.937 208.183 237.937 208.037 237.937 207.862C237.908 208.154 237.937 208.329 237.937 208.329Z" fill="white"/>
<mask id="mask3" style="mask-type:alpha" maskUnits="userSpaceOnUse" x="187" y="150" width="102" height="94">
<path d="M284.427 158.893C273.497 144.261 243.794 149.449 218.115 170.494C192.435 191.539 180.514 220.483 191.444 235.116C202.375 249.748 232.077 244.56 257.756 223.515C283.407 202.47 295.358 173.555 284.427 158.893Z" fill="url(#paint3_radial)"/>
</mask>
<g mask="url(#mask3)">
</g>
<path d="M291.369 261.029V262.282C291.398 261.495 291.369 261.029 291.369 261.029Z" fill="white"/>
<path d="M302.475 271.989C289.591 271.872 291.34 258.726 291.399 261.466C291.282 268.374 286.939 271.93 280.322 271.989C287.347 272.368 291.428 277.294 291.428 282.453C291.923 275.691 296.441 272.28 302.475 271.989Z" fill="white"/>
<path d="M191.301 257.793C204.582 257.793 215.349 247.027 215.349 233.746C215.349 220.465 204.582 209.699 191.301 209.699C178.02 209.699 167.254 220.465 167.254 233.746C167.254 247.027 178.02 257.793 191.301 257.793Z" fill="#CADAFF"/>
<path d="M194.216 254.237C206.757 254.237 216.923 244.071 216.923 231.531C216.923 218.99 206.757 208.824 194.216 208.824C181.676 208.824 171.51 218.99 171.51 231.531C171.51 244.071 181.676 254.237 194.216 254.237Z" fill="#E9F2FF"/>
<path d="M184.977 220.28L192.031 238.468L200.688 216.141L205.293 217.919L194.683 245.26C194.741 245.405 195.179 245.172 190.515 246.979L180.779 221.883L184.977 220.28Z" fill="#669E16"/>
<path d="M159.27 253.537C169.909 241.966 165.333 237.506 172.649 233.338L176.672 230.044C176.672 230.044 185.474 227.479 186.407 226.983C187.136 228.791 183.376 229.898 187.486 228.266C187.486 228.266 187.864 230.248 186.29 231.006C187.398 232.871 184.687 233.775 180.257 236.078C180.257 236.078 176.963 239.284 176.642 240.8C182.909 237.535 180.694 238.526 186.29 236.311C186.174 238.847 179.003 241.412 176.73 245.522C175.826 247.154 174.602 253.071 170.201 254.529C139.916 303.818 153.382 285.805 141.956 283.793L140.586 268.112C140.586 268.112 151.196 262.311 159.27 253.537Z" fill="#FFA288"/>
<path d="M96.3091 290.294C96.3091 290.294 86.7777 313.904 89.1678 353.4L107.706 328.011L96.3091 290.294Z" fill="#7474D1"/>
<path d="M105.314 471.683C106.101 473.957 117.353 485.762 134.492 486.957C135.425 487.015 135.629 487.219 135.862 487.861C136.066 488.415 136.911 490.805 136.736 491.359C136.328 492.583 126.505 494.273 124.057 494.419C117.79 494.769 112.252 493.253 96.3658 489.785C93.3344 489.114 92.868 488.152 92.9846 485.762L94.3838 461.686C97.8815 461.977 101.379 462.064 104.877 461.948C105.227 462.443 104.673 469.847 105.314 471.683Z" fill="#E88C77"/>
<path d="M111.7 475.444C105.287 477.28 98.4662 477.746 91.8495 476.814C91.0042 480.574 90.6836 484.45 90.8876 488.298C90.9751 489.726 91.2666 490.251 92.8989 490.776C97.5918 492.32 111.583 494.681 111.554 494.681C118.928 496.022 125.632 497.13 135.047 494.915C137.175 494.419 137.612 493.807 137.991 491.883C139.711 483.343 135.776 485.267 117.092 478.912C115.256 478.3 113.303 477.542 112.253 475.881C112.078 475.56 111.641 475.181 111.7 475.444Z" fill="#7D7DDB"/>
<path d="M137.234 488.502C109.922 498.617 91.0341 479.058 91.3256 486.258C91.5296 490.892 93.3368 492.117 96.6014 492.904C118.055 498.034 136.651 496.197 137.817 491.708C138.109 490.601 137.584 489.464 137.234 488.502Z" fill="#5B5BAF"/>
<path d="M120.209 465.766C118.781 478.009 121.958 487.161 123.649 488.881C125.048 490.309 132.393 492.874 135.25 493.661C136.387 493.982 136.591 494.303 136.707 495.206C136.765 495.818 136.94 498.762 136.503 499.229C135.308 500.54 120.064 499.054 118.315 498.879C115.866 498.616 115.167 498.383 113.185 496.984C109.104 494.04 100.447 486.811 99.922 485.267C99.3682 483.634 102.137 479.612 103.245 477.921C117.207 456.206 109.249 458.159 117.061 461.86C118.111 462.356 119.218 462.793 119.947 463.697C120.646 464.542 120.763 466.058 120.209 465.766Z" fill="#FFA288"/>
<path d="M123.649 484.625C110.358 482.585 105.431 473.316 104.47 473.257C103.624 473.199 99.6893 477.95 98.7857 479.204C96.9202 481.74 96.0749 484.13 98.057 487.453C100.243 491.096 110.299 499.112 118.985 500.22C126.855 501.24 129.654 501.502 132.19 500.803C135.046 500.016 135.104 500.832 136.358 500.511C138.602 499.928 138.398 497.217 137.961 495.177C137.67 493.749 137.407 493.253 136.154 492.641C132.627 490.805 124.524 489.668 123.649 484.625Z" fill="#928EEF"/>
<path d="M139.912 497.159C123.385 497.043 122.656 497.159 120.674 496.634C116.798 495.614 107.149 489.027 99.9498 480.836C86.629 492.146 132.188 512.928 139.912 497.159Z" fill="#6D6DC6"/>
<path d="M98.1186 173.38C97.0109 170.494 91.6476 170.203 88.8494 172.593C85.3807 175.537 87.6835 178.889 87.8001 180.2C87.8875 181.075 87.0131 183.96 90.4234 185.418C92.4055 186.263 95.6118 186.088 96.3114 185.709C98.9347 184.194 97.3315 178.102 97.8854 175.187C98.0602 174.342 98.3517 173.438 98.1186 173.38Z" fill="#7F2828"/>
<path d="M97.6258 173.059C94.5652 170.844 92.2625 172.476 92.1168 174.05C91.9419 175.828 93.341 175.974 91.971 178.393C88.9688 183.698 96.2558 189.032 96.7514 182.066C96.9845 178.976 97.1886 175.857 97.6258 173.059Z" fill="#5E1919"/>
<path d="M91.0641 188.741C94.0081 188.741 96.1068 186.234 95.6113 185.972C92.9588 190.665 85.7008 188.449 86.0798 183.115C86.1672 181.92 86.6627 180.696 86.4004 179.472C86.1964 178.597 85.6425 177.898 85.3511 177.111C83.0775 170.931 95.4364 165.772 98.0306 172.913C98.5844 172.709 96.8646 169.882 93.8041 169.328C89.2278 168.541 82.8152 172.942 85.6425 178.16C86.3421 179.472 86.4587 179.909 86.1089 181.774C85.2636 185.943 87.9744 188.741 91.0641 188.741Z" fill="#5E1919"/>
<path d="M100.127 171.922C99.4855 171.281 97.5035 171.019 96.629 174.4C95.259 179.851 95.9003 185.01 96.2501 185.709C96.8331 186.904 99.2524 186.875 99.5147 186.584C99.6313 186.496 99.8645 186.904 100.127 171.922Z" fill="#928EEF"/>
<path d="M128.197 174.983C131.608 177.344 130.733 183.203 129.567 187.225C129.101 188.857 129.626 190.752 130.442 191.976C131.345 193.346 132.482 192.851 132.453 194.483C132.424 195.94 130.5 194.658 129.247 198.651C128.693 200.458 128.197 204.627 124.758 205.618C117.908 207.6 118.637 202.207 118.637 208.066C118.637 209.436 118.491 208.795 118.2 208.707C118.17 208.707 110.417 206.871 107.356 207.046C102.255 207.337 104.034 208.037 105.287 204.393C106.482 200.954 106.773 197.048 106.803 197.019C107.24 196.99 109.484 194.862 112.399 193.142C118.987 189.265 118.083 188.333 120.794 180.2C122.484 175.07 128.693 174.808 128.197 174.983Z" fill="#FFA288"/>
<path d="M120.413 206.521C113.156 201.712 114.7 189.003 113.913 207.92C113.884 208.299 113.972 208.416 114.351 208.562C120.064 210.66 119.83 210.631 119.947 210.514C120.093 210.34 120.005 208.853 120.413 206.521Z" fill="#D67363"/>
<path d="M123.999 169.066C118.694 165.947 116.042 164.752 110.941 165.306C99.165 166.53 99.3691 172.913 98.2031 179.647C97.5036 183.552 97.0955 184.748 99.0776 188.216C102.138 193.609 105.986 196.786 106.773 196.902C108.58 197.194 111.932 194.308 113.739 193.375C115.197 192.618 117.907 191.976 119.889 188.857C122.892 184.135 121.201 179.996 127.264 175.945C130.208 173.934 127.118 170.902 123.999 169.066Z" fill="#7F2828"/>
<path d="M119.22 180.696C117.996 179.967 117.587 182.503 116.859 182.97C115.46 179.88 120.153 177.373 119.395 176.469C118.987 175.974 116.13 176.003 114.352 177.869C114.031 178.189 112.603 180.055 111.641 178.947C111.058 178.306 111.67 177.606 110.65 176.907C108.26 175.216 107.852 171.835 109.717 169.62C110.825 168.308 107.298 166.209 102.838 170.261C101.002 171.922 101.206 172.534 100.711 173.642C99.8653 175.595 96.8339 177.169 95.3473 185.884C94.3563 191.714 96.5424 195.358 100.856 197.31C104.442 198.943 105.753 197.165 107.036 195.707C114.002 187.633 117.15 193.579 119.22 180.696Z" fill="#5E1919"/>
<path d="M122.833 213.634C123.212 211.156 123.037 209.99 121.026 208.766C117.033 206.376 107.939 204.889 103.217 205.676C102.138 205.851 101.73 206.142 101.351 207.279C100.943 208.445 100.651 209.64 100.477 210.864C108.58 208.154 120.035 211.039 122.833 213.634Z" fill="#B71346"/>
<path d="M101.059 205.093C103.391 204.598 110.533 203.519 112.136 205.297C112.748 205.997 111.728 206.172 111.611 206.638C111.524 207.104 112.281 207.483 112.165 207.95C112.136 208.095 112.019 208.212 111.932 208.329C111.524 209.116 112.835 210.486 111.844 210.923C111.378 211.127 108.784 210.631 103.216 211.243C100.71 211.535 100.243 212.643 99.6602 212.001C99.0772 211.389 100.01 207.483 101.059 205.093Z" fill="#9B1042"/>
<path d="M120.998 370.801C122.893 411.784 124.875 393.77 109.281 461.044C104.209 463.201 98.3501 463.405 93.1326 461.656C93.2492 448.248 93.3658 434.84 93.4823 421.432C93.8904 374.532 86.8365 366.167 89.8971 326.787C90.1594 323.26 90.7424 319.325 93.5406 317.198C106.861 338.826 120.415 358.326 120.998 370.801Z" fill="#7F7FE2"/>
<path d="M102.693 340.924C101.003 351.505 102.781 375.669 103.772 383.539C107.007 409.598 107.532 394.178 102.46 464.455C91.3548 464.047 90.2763 464.688 90.218 461.277C89.9848 442.069 91.209 422.831 90.1888 403.622C88.848 378.088 83.543 352.438 87.274 327.137C88.9355 315.798 94.9983 314.691 96.718 320.083C98.9625 327.166 103.772 334.133 102.693 340.924Z" fill="#7474D1"/>
<path d="M137.669 285.95C155.071 328.74 169.325 383.131 168.071 391.729C166.555 402.019 134.959 439.27 121.23 471.508L109.017 464.279C120.822 439.941 123.037 401.815 138.223 392.779C125.981 385.55 101.118 351.126 95.317 336.814C89.6622 322.823 89.6622 306.646 95.2878 292.654C99.5435 282.073 105.053 279.363 117.062 277.41C127.409 275.748 133.705 276.273 137.669 285.95Z" fill="#928EEF"/>
<path d="M114.439 271.988C156.529 391.671 155.742 387.241 155.188 392.837C154.401 400.969 118.024 462.91 113.885 469.847C111.32 468.331 108.755 466.815 106.161 465.3C110.125 449.764 114.089 434.257 118.053 418.721C124.641 392.925 128.488 392.458 128.634 390.214C128.721 389.019 129.304 390.214 110.329 364.447C99.165 349.29 85.4362 330.722 87.0685 309.24C88.2927 293.267 99.1941 278.401 114.439 271.988Z" fill="#8888E5"/>
<path d="M147.758 294.841C130.678 286.038 109.895 295.016 91.9395 289.157C93.6009 284.143 95.379 279.159 97.2153 274.204C109.312 272.95 121.525 272.63 133.68 273.242C140.122 273.592 138.285 274.641 147.758 294.841Z" fill="#AFAFF2"/>
<path d="M141.693 403.943C142.8 403.126 142.043 404.438 139.361 398.929C138.72 397.588 137.933 395.664 138.253 393.828C140.935 396.976 145.161 398.404 148.601 399.57L148.805 398.958C136.679 394.877 138.428 391.059 137.787 393.041C136.738 396.393 139.594 401.174 141.693 403.943Z" fill="#AFAFF2"/>
<path d="M161.516 396.306C162.186 393.828 162.769 391.293 163.294 388.757L162.682 388.64C160.875 397.355 160.437 396.015 161.516 396.306Z" fill="#AFAFF2"/>
<path d="M116.773 400.212C117.181 391.934 117.385 393.041 116.481 393.012C116.102 401.261 115.898 400.154 116.773 400.212Z" fill="#AFAFF2"/>
<path d="M117.006 191.423C115.578 185.36 110.447 184.427 110.127 188.362C109.864 191.539 111.555 194.95 112.867 195.999C113.508 196.494 114.324 196.728 115.082 196.932C115.723 195.037 116.365 193.142 117.006 191.423Z" fill="#D67363"/>
<path d="M115.492 193.23C115.521 189.586 112.402 186.38 111.615 187.867L111.79 187.954C111.936 187.663 112.431 187.546 113.102 188.158C115.754 190.694 114.909 193.23 115.492 193.23Z" fill="#521D1D"/>
<path d="M111.733 189.761C112.491 189.266 113.482 189.207 114.269 189.615C114.648 188.887 111.296 189.091 111.733 189.761Z" fill="#521D1D"/>
<path d="M128.488 181.454C127.992 181.804 127.642 181.658 126.768 182.241L125.194 183.261C124.961 182.532 128.75 179.588 128.488 181.454Z" fill="#5E1919"/>
<path d="M128.957 199.467C128.986 198.826 127.646 199.788 125.459 197.106C125.11 197.398 127.033 199.351 128.957 199.467Z" fill="#521D1D"/>
<path d="M136.941 175.77H137.145C137.116 175.041 136.766 174.341 136.125 173.846C133.705 171.893 132.714 174.983 128.983 174.954C130.994 173.933 130.82 170.873 134.026 170.319C134.784 170.173 135.833 170.29 136.358 171.048C137.086 170.523 133.676 168.862 131.373 171.631C130.878 172.243 130.557 172.972 130.12 173.613C128.954 175.362 128.342 174.546 128.4 175.158C130.79 175.216 131.257 174.983 132.481 174.225C135.308 172.447 136.882 174.4 136.941 175.77Z" fill="#5E1919"/>
<path d="M99.134 200.429C99.4255 200.371 99.3381 198.972 101.408 199.934C103.623 201.012 104.235 199.73 104.935 197.573C105.984 194.279 107.879 198.127 106.596 196.115C105.809 194.891 104.002 194.891 103.244 196.174C103.04 196.523 102.923 196.961 102.69 197.281C101.524 198.739 100.008 195.94 98.6094 197.456L98.7551 197.602C100.183 196.028 101.932 199.73 103.215 196.727C104.235 194.308 106.159 195.97 106.188 195.97C104.789 195.97 104.731 198.127 104.089 199.176C102.603 201.683 100.562 198.185 99.3089 199.817C99.1632 200.021 99.1049 200.225 99.134 200.429Z" fill="#5E1919"/>
<path d="M148.6 289.827C159.968 275.603 152.244 261.145 150.233 255.665C143.937 238.41 144.84 209.086 104.732 209.524C98.4653 209.582 95.0841 210.544 90.7702 214.829C75.6714 229.84 77.8284 252.401 82.2589 273.067C82.9002 276.098 83.658 279.276 85.6984 281.607C88.2052 284.522 92.5482 285.659 96.1626 284.376C101.555 282.453 99.2815 281.17 108.463 282.89C117.878 284.668 129.975 280.237 133.123 281.753C134.93 282.628 136.533 286.446 143.354 290.264C147.26 292.509 148.834 290.119 148.6 289.827Z" fill="#D82356"/>
<path d="M101.73 281.957C102.488 281.462 87.3895 264.031 84.4455 233.338C84.0374 233.367 85.6406 258.143 101.73 281.957Z" fill="#6D082C"/>
<path d="M85.7283 243.481C86.0198 243.073 83.7753 242.286 82.8135 238.964C82.2596 239.138 83.6879 241.995 85.7283 243.481Z" fill="#6D082C"/>
<path d="M108.756 238.73C121.61 237.331 123.068 269.511 133.765 282.336C131.754 280.529 129.655 281.811 129.276 281.666C128.781 281.491 123.651 274.204 120.911 265.168C115.693 247.941 119.337 242.286 108.756 238.73Z" fill="#B71346"/>
<path d="M133.91 282.948C134.901 282.22 131.841 283.794 124.321 261.408C118.753 244.822 116.042 240.742 112.195 239.08L112.107 239.284C121.522 243.336 123.738 269.249 133.91 282.948Z" fill="#6D082C"/>
<path d="M118.635 247.183C118.752 246.629 117.207 247.067 113.942 245.668C110.241 244.064 110.445 242.49 109.92 242.898C111.931 245.638 115.312 246.571 118.635 247.183Z" fill="#6D082C"/>
<path d="M146.18 288.195C148.687 286.912 147.55 283.415 149.998 280.733L149.853 280.587C148.133 282.482 148.22 284.172 147.696 285.834C146.909 288.166 145.888 287.641 146.18 288.195Z" fill="#6D082C"/>
<path d="M89.9261 281.053C90.2467 280.529 87.8857 280.121 86.8364 276.652C86.37 276.798 87.5942 279.596 89.9261 281.053Z" fill="#6D082C"/>
<path d="M105.607 190.373C106.074 190.023 101.148 185.156 102.838 177.052C102.284 176.936 101.089 184.369 105.607 190.373Z" fill="#230A0A"/>
<path d="M125.661 172.535L125.836 172.418C123.912 169.066 120.094 167.725 116.392 166.792C116.217 167.492 122.921 167.725 125.661 172.535Z" fill="#5E1919"/>
<path d="M126.506 187.517C126.506 189.411 127.147 189.44 127.147 187.517C127.147 185.622 126.506 185.593 126.506 187.517Z" fill="#230A0A"/>
<path d="M177.372 234.125C183.231 231.239 186.437 231.589 186.262 230.86C185.329 231.122 176.993 233.367 177.372 234.125Z" fill="#96321B"/>
<defs>
<radialGradient id="paint0_radial" cx="0" cy="0" r="1" gradientUnits="userSpaceOnUse" gradientTransform="translate(456.872 46.4284) rotate(-39.3355) scale(60.1157 33.0597)">
<stop stop-color="white"/>
<stop offset="0.0508569" stop-color="#E2E2E2"/>
<stop offset="0.1536" stop-color="#AEAEAE"/>
<stop offset="0.2608" stop-color="#7F7F7F"/>
<stop offset="0.3702" stop-color="#585858"/>
<stop offset="0.4822" stop-color="#383838"/>
<stop offset="0.5979" stop-color="#1F1F1F"/>
<stop offset="0.7186" stop-color="#0E0E0E"/>
<stop offset="0.8478" stop-color="#030303"/>
<stop offset="1"/>
</radialGradient>
<radialGradient id="paint1_radial" cx="0" cy="0" r="1" gradientUnits="userSpaceOnUse" gradientTransform="translate(292.283 326.576) rotate(-39.3356) scale(60.1157 33.0597)">
<stop stop-color="white"/>
<stop offset="0.0508569" stop-color="#E2E2E2"/>
<stop offset="0.1536" stop-color="#AEAEAE"/>
<stop offset="0.2608" stop-color="#7F7F7F"/>
<stop offset="0.3702" stop-color="#585858"/>
<stop offset="0.4822" stop-color="#383838"/>
<stop offset="0.5979" stop-color="#1F1F1F"/>
<stop offset="0.7186" stop-color="#0E0E0E"/>
<stop offset="0.8478" stop-color="#030303"/>
<stop offset="1"/>
</radialGradient>
<radialGradient id="paint2_radial" cx="0" cy="0" r="1" gradientUnits="userSpaceOnUse" gradientTransform="translate(555.248 131.819) rotate(-39.3356) scale(60.1157 33.0597)">
<stop stop-color="white"/>
<stop offset="0.0508569" stop-color="#E2E2E2"/>
<stop offset="0.1536" stop-color="#AEAEAE"/>
<stop offset="0.2608" stop-color="#7F7F7F"/>
<stop offset="0.3702" stop-color="#585858"/>
<stop offset="0.4822" stop-color="#383838"/>
<stop offset="0.5979" stop-color="#1F1F1F"/>
<stop offset="0.7186" stop-color="#0E0E0E"/>
<stop offset="0.8478" stop-color="#030303"/>
<stop offset="1"/>
</radialGradient>
<radialGradient id="paint3_radial" cx="0" cy="0" r="1" gradientUnits="userSpaceOnUse" gradientTransform="translate(237.927 197.011) rotate(-39.3355) scale(60.1158 33.0597)">
<stop stop-color="white"/>
<stop offset="0.0508569" stop-color="#E2E2E2"/>
<stop offset="0.1536" stop-color="#AEAEAE"/>
<stop offset="0.2608" stop-color="#7F7F7F"/>
<stop offset="0.3702" stop-color="#585858"/>
<stop offset="0.4822" stop-color="#383838"/>
<stop offset="0.5979" stop-color="#1F1F1F"/>
<stop offset="0.7186" stop-color="#0E0E0E"/>
<stop offset="0.8478" stop-color="#030303"/>
<stop offset="1"/>
</radialGradient>
</defs>
</svg>
