<?xml version="1.0" encoding="UTF-8" standalone="no"?>
<!DOCTYPE svg PUBLIC "-//W3C//DTD SVG 1.1//EN"
 "http://www.w3.org/Graphics/SVG/1.1/DTD/svg11.dtd">
<!-- Generated by graphviz version 2.43.0 (0)
 -->
<!-- Title: G Pages: 1 -->
<svg width="877pt" height="127pt"
 viewBox="0.00 0.00 877.20 127.20" xmlns="http://www.w3.org/2000/svg" xmlns:xlink="http://www.w3.org/1999/xlink">
<g id="graph0" class="graph" transform="scale(1 1) rotate(0) translate(21.6 105.6)">
<title>G</title>
<polygon fill="#111111" stroke="transparent" points="-21.6,21.6 -21.6,-105.6 855.6,-105.6 855.6,21.6 -21.6,21.6"/>
<!-- components/CaptchaComponent.tsx -->
<g id="node1" class="node">
<title>components/CaptchaComponent.tsx</title>
<path fill="none" stroke="#c6c5fe" d="M567.83,-64C567.83,-64 347.17,-64 347.17,-64 343.33,-64 339.5,-60.17 339.5,-56.33 339.5,-56.33 339.5,-48.67 339.5,-48.67 339.5,-44.83 343.33,-41 347.17,-41 347.17,-41 567.83,-41 567.83,-41 571.67,-41 575.5,-44.83 575.5,-48.67 575.5,-48.67 575.5,-56.33 575.5,-56.33 575.5,-60.17 571.67,-64 567.83,-64"/>
<text text-anchor="middle" x="457.5" y="-48.8" font-family="Arial" font-size="14.00" fill="#c6c5fe">components/CaptchaComponent.tsx</text>
</g>
<!-- components/CaptchaWidget.tsx -->
<g id="node2" class="node">
<title>components/CaptchaWidget.tsx</title>
<path fill="none" stroke="#cfffac" d="M826.33,-84C826.33,-84 632.67,-84 632.67,-84 628.83,-84 625,-80.17 625,-76.33 625,-76.33 625,-68.67 625,-68.67 625,-64.83 628.83,-61 632.67,-61 632.67,-61 826.33,-61 826.33,-61 830.17,-61 834,-64.83 834,-68.67 834,-68.67 834,-76.33 834,-76.33 834,-80.17 830.17,-84 826.33,-84"/>
<text text-anchor="middle" x="729.5" y="-68.8" font-family="Arial" font-size="14.00" fill="#cfffac">components/CaptchaWidget.tsx</text>
</g>
<!-- components/CaptchaComponent.tsx&#45;&gt;components/CaptchaWidget.tsx -->
<g id="edge1" class="edge">
<title>components/CaptchaComponent.tsx&#45;&gt;components/CaptchaWidget.tsx</title>
<path fill="none" stroke="#757575" d="M575.75,-61.19C588.66,-62.14 601.8,-63.11 614.67,-64.07"/>
<polygon fill="#757575" stroke="#757575" points="614.69,-67.58 624.92,-64.83 615.21,-60.6 614.69,-67.58"/>
</g>
<!-- components/theme.ts -->
<g id="node3" class="node">
<title>components/theme.ts</title>
<path fill="none" stroke="#cfffac" d="M795.33,-43C795.33,-43 663.67,-43 663.67,-43 659.83,-43 656,-39.17 656,-35.33 656,-35.33 656,-27.67 656,-27.67 656,-23.83 659.83,-20 663.67,-20 663.67,-20 795.33,-20 795.33,-20 799.17,-20 803,-23.83 803,-27.67 803,-27.67 803,-35.33 803,-35.33 803,-39.17 799.17,-43 795.33,-43"/>
<text text-anchor="middle" x="729.5" y="-27.8" font-family="Arial" font-size="14.00" fill="#cfffac">components/theme.ts</text>
</g>
<!-- components/CaptchaComponent.tsx&#45;&gt;components/theme.ts -->
<g id="edge2" class="edge">
<title>components/CaptchaComponent.tsx&#45;&gt;components/theme.ts</title>
<path fill="none" stroke="#757575" d="M575.75,-43.38C599.32,-41.55 623.63,-39.66 645.73,-37.94"/>
<polygon fill="#757575" stroke="#757575" points="646.02,-41.43 655.71,-37.16 645.47,-34.45 646.02,-41.43"/>
</g>
<!-- components/Procaptcha.tsx -->
<g id="node4" class="node">
<title>components/Procaptcha.tsx</title>
<path fill="none" stroke="#c6c5fe" d="M282.33,-43C282.33,-43 113.67,-43 113.67,-43 109.83,-43 106,-39.17 106,-35.33 106,-35.33 106,-27.67 106,-27.67 106,-23.83 109.83,-20 113.67,-20 113.67,-20 282.33,-20 282.33,-20 286.17,-20 290,-23.83 290,-27.67 290,-27.67 290,-35.33 290,-35.33 290,-39.17 286.17,-43 282.33,-43"/>
<text text-anchor="middle" x="198" y="-27.8" font-family="Arial" font-size="14.00" fill="#c6c5fe">components/Procaptcha.tsx</text>
</g>
<!-- components/Procaptcha.tsx&#45;&gt;components/CaptchaComponent.tsx -->
<g id="edge4" class="edge">
<title>components/Procaptcha.tsx&#45;&gt;components/CaptchaComponent.tsx</title>
<path fill="none" stroke="#757575" d="M290.15,-38.93C302.83,-39.97 316.04,-41.05 329.24,-42.12"/>
<polygon fill="#757575" stroke="#757575" points="329.06,-45.62 339.32,-42.94 329.63,-38.64 329.06,-45.62"/>
</g>
<!-- ../node_modules/@types/react/index.d.ts -->
<g id="node5" class="node">
<title>../node_modules/@types/react/index.d.ts</title>
<path fill="none" stroke="#cfffac" d="M581.33,-23C581.33,-23 333.67,-23 333.67,-23 329.83,-23 326,-19.17 326,-15.33 326,-15.33 326,-7.67 326,-7.67 326,-3.83 329.83,0 333.67,0 333.67,0 581.33,0 581.33,0 585.17,0 589,-3.83 589,-7.67 589,-7.67 589,-15.33 589,-15.33 589,-19.17 585.17,-23 581.33,-23"/>
<text text-anchor="middle" x="457.5" y="-7.8" font-family="Arial" font-size="14.00" fill="#cfffac">../node_modules/@types/react/index.d.ts</text>
</g>
<!-- components/Procaptcha.tsx&#45;&gt;../node_modules/@types/react/index.d.ts -->
<g id="edge3" class="edge">
<title>components/Procaptcha.tsx&#45;&gt;../node_modules/@types/react/index.d.ts</title>
<path fill="none" stroke="#757575" d="M290.15,-24.42C298.47,-23.77 307.01,-23.11 315.64,-22.44"/>
<polygon fill="#757575" stroke="#757575" points="316.08,-25.92 325.78,-21.65 315.54,-18.94 316.08,-25.92"/>
</g>
<!-- index.tsx -->
<g id="node6" class="node">
<title>index.tsx</title>
<path fill="none" stroke="#c6c5fe" d="M62.33,-43C62.33,-43 7.67,-43 7.67,-43 3.83,-43 0,-39.17 0,-35.33 0,-35.33 0,-27.67 0,-27.67 0,-23.83 3.83,-20 7.67,-20 7.67,-20 62.33,-20 62.33,-20 66.17,-20 70,-23.83 70,-27.67 70,-27.67 70,-35.33 70,-35.33 70,-39.17 66.17,-43 62.33,-43"/>
<text text-anchor="middle" x="35" y="-27.8" font-family="Arial" font-size="14.00" fill="#c6c5fe">index.tsx</text>
</g>
<!-- index.tsx&#45;&gt;components/Procaptcha.tsx -->
<g id="edge5" class="edge">
<title>index.tsx&#45;&gt;components/Procaptcha.tsx</title>
<path fill="none" stroke="#757575" d="M70.14,-31.5C78.01,-31.5 86.77,-31.5 95.9,-31.5"/>
<polygon fill="#757575" stroke="#757575" points="95.94,-35 105.94,-31.5 95.94,-28 95.94,-35"/>
</g>
</g>
</svg>
