<?xml version="1.0" encoding="UTF-8" standalone="no"?>
<svg
   xmlns:dc="http://purl.org/dc/elements/1.1/"
   xmlns:cc="http://creativecommons.org/ns#"
   xmlns:rdf="http://www.w3.org/1999/02/22-rdf-syntax-ns#"
   xmlns:svg="http://www.w3.org/2000/svg"
   xmlns="http://www.w3.org/2000/svg"
   xmlns:sodipodi="http://sodipodi.sourceforge.net/DTD/sodipodi-0.dtd"
   xmlns:inkscape="http://www.inkscape.org/namespaces/inkscape"
   id="Layer_1"
   data-name="Layer 1"
   viewBox="0 0 6250.0005 6357.396"
   version="1.1"
   sodipodi:docname="prosopo-radar-white-logo.svg"
   width="6250"
   height="6357.396"
   inkscape:version="0.92.5 (2060ec1f9f, 2020-04-08)">
  <metadata
     id="metadata33">
    <rdf:RDF>
      <cc:Work
         rdf:about="">
        <dc:format>image/svg+xml</dc:format>
        <dc:type
           rdf:resource="http://purl.org/dc/dcmitype/StillImage" />
        <dc:title>Prosopo Logo Black</dc:title>
      </cc:Work>
    </rdf:RDF>
  </metadata>
  <sodipodi:namedview
     pagecolor="#ffffff"
     bordercolor="#666666"
     borderopacity="1"
     objecttolerance="10"
     gridtolerance="10"
     guidetolerance="10"
     inkscape:pageopacity="0"
     inkscape:pageshadow="2"
     inkscape:window-width="1920"
     inkscape:window-height="1043"
     id="namedview31"
     showgrid="true"
     inkscape:zoom="0.24614337"
     inkscape:cx="3642.5799"
     inkscape:cy="2678.4017"
     inkscape:window-x="1920"
     inkscape:window-y="0"
     inkscape:window-maximized="1"
     inkscape:current-layer="Layer_1"
     fit-margin-top="0"
     fit-margin-left="0"
     fit-margin-right="0"
     fit-margin-bottom="0"
     showguides="false">
    <inkscape:grid
       type="xygrid"
       id="grid843"
       originx="960.00006"
       originy="1015" />
  </sodipodi:namedview>
  <defs
     id="defs4">
    <style
       id="style2">.cls-1{fill:#1d1d1b;}</style>
  </defs>
  <title
     id="title6">Prosopo Logo Black</title>
  <path
     class="cls-1"
     d="m 3060.1705,2903.6127 a 243.7875,243.7875 0 0 1 243.7875,243.7875 h 83.325 c 0,-180.6585 -146.454,-327.1125 -327.1125,-327.1125 z"
     id="path8"
     inkscape:connector-curvature="0"
     style="fill:#ffffff;fill-opacity:0.99502486;stroke-width:1.64999998" />
  <path
     class="cls-1"
     d="m 2950.957,3012.8427 a 243.771,243.771 0 0 1 243.771,243.771 h 83.325 c 0,-180.6585 -146.4375,-327.096 -327.096,-327.096 z"
     id="path10"
     inkscape:connector-curvature="0"
     style="fill:#ffffff;fill-opacity:0.99502486;stroke-width:1.64999998" />
  <path
     class="cls-1"
     d="m 3189.613,3451.3797 a 243.7875,243.7875 0 0 1 -243.771,-243.771 h -83.325 c 0,180.6585 146.4375,327.096 327.096,327.096 z"
     id="path12"
     inkscape:connector-curvature="0"
     style="fill:#ffffff;fill-opacity:0.99502486;stroke-width:1.64999998" />
  <path
     class="cls-1"
     d="m 3298.7935,3342.1992 a 243.771,243.771 0 0 1 -243.771,-243.7875 h -83.3415 c 0,180.6585 146.454,327.1125 327.1125,327.1125 z"
     id="path14"
     inkscape:connector-curvature="0"
     style="fill:#ffffff;fill-opacity:0.99502486;stroke-width:1.64999998" />
  <path
     class="cls-1"
     d="m 3060.0001,2765.5457 a 391.26734,381.85048 0 0 1 391.2674,381.8504 h 133.7326 c 0,-282.97 -235.0518,-512.3645 -525,-512.3645 z"
     id="path8-3"
     inkscape:connector-curvature="0"
     style="fill:#f7467d;fill-opacity:1;stroke-width:2.61610985" />
  <path
     class="cls-1"
     d="m 3190.0001,3591.5938 a 391.26734,384.19778 0 0 1 -391.2674,-384.1977 h -133.7326 c 0,284.7095 235.0519,515.5141 525,515.5141 z"
     id="path8-3-6"
     inkscape:connector-curvature="0"
     style="fill:#f7467d;fill-opacity:1;stroke-width:2.62413836" />
  <path
     class="cls-1"
     d="m 3190.0001,3793.3549 a 598.45274,585.95895 0 0 1 -598.453,-585.9588 h -204.547 c 0,434.2243 359.5174,786.2359 803,786.2359 z"
     id="path8-3-6-7"
     inkscape:connector-curvature="0"
     style="fill:#dd4145;fill-opacity:1;stroke-width:4.00793839" />
  <path
     class="cls-1"
     d="m 3059.674,2561.3484 a 600.18632,586.04787 0 0 1 600.1865,586.0477 h 205.1396 c 0,-434.2902 -360.5589,-786.3552 -805.3261,-786.3552 z"
     id="path8-3-6-7-5"
     inkscape:connector-curvature="0"
     style="fill:#dd4145;fill-opacity:1;stroke-width:4.01404381" />
  <path
     class="cls-1"
     d="m 3190.0001,4127.8058 a 939.04167,920.40985 0 0 1 -939.0422,-920.4097 h -320.9578 c 0,682.0688 564.1245,1235 1260,1235 z"
     id="path8-3-6-7-3"
     inkscape:connector-curvature="0"
     style="fill:#f7467d;fill-opacity:1;stroke-width:6.29224443" />
  <path
     class="cls-1"
     d="m 3060.0001,2227.2917 a 939.04167,920.10452 0 0 1 939.0422,920.1044 h 320.9578 c 0,-681.8425 -564.1245,-1234.5903 -1260,-1234.5903 z"
     id="path8-3-6-7-3-3"
     inkscape:connector-curvature="0"
     style="fill:#f7467d;fill-opacity:1;stroke-width:6.29120064" />
  <path
     class="cls-1"
     d="M 3190,4664.401 A 1483.0898,1457.0049 0 0 1 1706.9096,3207.3961 H 1200 c 0,1079.7122 890.9586,1955 1990,1955 z"
     id="path8-3-6-7-3-2"
     inkscape:connector-curvature="0"
     style="fill:#dd4145;fill-opacity:1;stroke-width:9.94916821" />
  <path
     class="cls-1"
     d="M 3060,1691.8854 A 1483.0898,1455.5107 0 0 1 4543.0904,3147.3961 H 5050 C 5050,2068.7912 4159.0414,1194.401 3060,1194.401 Z"
     id="path8-3-6-7-3-2-9"
     inkscape:connector-curvature="0"
     style="fill:#dd4145;fill-opacity:1;stroke-width:9.94406509" />
  <path
     class="cls-1"
     d="M 3190,5555.0001 A 2377.4153,2347.6038 0 0 1 812.58362,3207.3961 H 0 c 0,1739.6898 1428.2199,3150 3190,3150 z"
     id="path8-3-6-7-3-2-7"
     inkscape:connector-curvature="0"
     style="fill:#f7467d;fill-opacity:1;stroke-width:15.98959732" />
  <path
     class="cls-1"
     d="M 3060,801.73286 A 2377.4153,2345.6632 0 0 1 5437.4164,3147.3961 H 6250 C 6250,1409.1445 4821.7801,0 3060,0 Z"
     id="path8-3-6-7-3-2-7-3"
     inkscape:connector-curvature="0"
     style="fill:#f7467d;fill-opacity:1;stroke-width:15.9829874" />
</svg>
