<?xml version="1.0" encoding="UTF-8" standalone="no"?>
<svg
   class="navbar-brand logo-image"
   id="web3grants"
   data-name="Layer 1"
   viewBox="0 0 347.04001 119.01"
   version="1.1"
   sodipodi:docname="web3-foundation-trimmed.svg"
   width="347.04001"
   height="119.01"
   inkscape:version="1.2.2 (b0a8486541, 2022-12-01)"
   xmlns:inkscape="http://www.inkscape.org/namespaces/inkscape"
   xmlns:sodipodi="http://sodipodi.sourceforge.net/DTD/sodipodi-0.dtd"
   xmlns="http://www.w3.org/2000/svg"
   xmlns:svg="http://www.w3.org/2000/svg"
   xmlns:rdf="http://www.w3.org/1999/02/22-rdf-syntax-ns#"
   xmlns:cc="http://creativecommons.org/ns#"
   xmlns:dc="http://purl.org/dc/elements/1.1/">
  <sodipodi:namedview
     id="namedview99"
     pagecolor="#ffffff"
     bordercolor="#000000"
     borderopacity="0.25"
     inkscape:showpageshadow="2"
     inkscape:pageopacity="0.0"
     inkscape:pagecheckerboard="0"
     inkscape:deskcolor="#d1d1d1"
     showgrid="false"
     inkscape:zoom="1.7466667"
     inkscape:cx="173.47328"
     inkscape:cy="60.973282"
     inkscape:window-width="1720"
     inkscape:window-height="1376"
     inkscape:window-x="20"
     inkscape:window-y="20"
     inkscape:window-maximized="0"
     inkscape:current-layer="web3grants" />
  <defs
     id="defs2" />
  <title
     id="title4">web3 foundation grants_2</title>
  <path
     class="cls-1"
     d="m 59.52,38.61 v -8.8 A 7.86,7.86 0 0 0 54.64,22.53 L 0,0 v 4.88 l 48.67,20 a 2.05,2.05 0 0 1 1.08,2.66 1.91,1.91 0 0 1 -1.08,1.08 L 0,48.74 v 19.63 l 29.33,-12.1 19.28,7.95 a 2,2 0 0 1 1.08,2.65 1.91,1.91 0 0 1 -1.08,1.08 L 0,88.01 v 31 L 54.57,96.54 a 7.86,7.86 0 0 0 4.88,-7.28 V 69.09 A 7.87,7.87 0 0 0 54.57,61.8 l -19.33,-8 19.33,-7.95 a 7.71,7.71 0 0 0 4.95,-7.24 z"
     id="path6" />
  <path
     class="cls-1"
     d="m 104.52,7.26 a 3,3 0 0 1 2.82,-1.5 c 2,0 3.68,1.65 3.68,4.48 0,2.83 -1.71,4.48 -3.68,4.48 a 3,3 0 0 1 -2.82,-1.5 v 4.1 h -1.45 V 5.9 h 1.45 z m 4.92,3 c 0,-2 -1,-3.23 -2.47,-3.23 -1.29,0 -2.51,1 -2.51,3.23 0,2.23 1.22,3.23 2.51,3.23 1.55,-0.02 2.49,-1.2 2.49,-3.25 z"
     id="path8" />
  <path
     class="cls-1"
     d="m 116.13,7.36 c -1.34,0 -2,0.75 -2,2.64 v 4.54 h -1.46 V 5.9 h 1.42 v 1.51 a 2.61,2.61 0 0 1 2.43,-1.55 h 0.43 v 1.55 c -0.3,-0.02 -0.58,-0.05 -0.82,-0.05 z"
     id="path10" />
  <path
     class="cls-1"
     d="m 121.7,14.72 c -2,0 -4.12,-1.36 -4.12,-4.48 0,-3.12 2.12,-4.48 4.12,-4.48 2,0 4.13,1.36 4.13,4.48 0,3.12 -2.12,4.48 -4.13,4.48 z m 2.58,-4.48 c 0,-2.29 -1.26,-3.2 -2.58,-3.2 -1.32,0 -2.57,0.85 -2.57,3.2 0,2.35 1.26,3.2 2.57,3.2 1.31,0 2.58,-0.99 2.58,-3.2 z"
     id="path12" />
  <path
     class="cls-1"
     d="m 128.86,5.9 v 9 c 0,1.79 -0.37,2.37 -2,2.37 h -0.74 v -1.22 h 0.4 c 0.75,0 0.89,-0.22 0.89,-1.12 V 5.9 Z m 0,-1.23 H 127.4 V 2.91 h 1.46 z"
     id="path14" />
  <path
     class="cls-1"
     d="m 134.68,13.44 a 2.3,2.3 0 0 0 2.35,-1.42 h 1.49 a 3.76,3.76 0 0 1 -3.86,2.7 c -2.72,0 -4.22,-2 -4.22,-4.49 a 4.14,4.14 0 0 1 4.17,-4.47 c 2.63,0 4.21,2.21 4,4.93 h -6.59 a 2.65,2.65 0 0 0 2.66,2.75 z m 2.43,-4 a 2.54,2.54 0 0 0 -5.07,0 z"
     id="path16" />
  <path
     class="cls-1"
     d="m 146.04,8.78 a 2.21,2.21 0 0 0 -2.23,-1.74 c -1.29,0 -2.48,1 -2.48,3.17 0,2.17 1.2,3.23 2.48,3.23 a 2.28,2.28 0 0 0 2.29,-1.73 h 1.51 a 3.84,3.84 0 0 1 -3.84,3 c -2.47,0 -4,-1.87 -4,-4.49 0,-2.62 1.62,-4.47 4.16,-4.47 a 3.58,3.58 0 0 1 3.6,3 z"
     id="path18" />
  <path
     class="cls-1"
     d="M 150.99,3.74 V 5.9 h 1.63 v 1.17 h -1.63 v 5.11 c 0,0.89 0.07,1.12 0.9,1.12 h 0.73 v 1.24 h -1.05 c -1.65,0 -2,-0.36 -2,-2.16 V 7.07 h -1.36 V 5.9 h 1.31 V 3.74 Z"
     id="path20" />
  <path
     class="cls-1"
     d="m 160.95,6.99 c -0.85,0 -1.81,0.31 -1.81,1.09 0,0.78 0.48,1 1.31,1.17 l 1.22,0.24 c 1.56,0.3 2.94,0.89 2.94,2.56 0,1.67 -1.54,2.67 -3.5,2.67 a 3.47,3.47 0 0 1 -3.7,-3 h 1.53 a 2,2 0 0 0 2.2,1.76 c 1.1,0 2,-0.48 2,-1.28 0,-0.8 -0.82,-1.23 -1.75,-1.42 l -1.28,-0.26 c -1.17,-0.24 -2.45,-0.79 -2.45,-2.39 0,-1.6 1.54,-2.4 3.45,-2.4 a 3.17,3.17 0 0 1 3.41,2.69 H 163 a 1.84,1.84 0 0 0 -2.05,-1.43 z"
     id="path22" />
  <path
     class="cls-1"
     d="m 168.92,14.72 c -2,0 -2.75,-1.34 -2.75,-3.31 V 5.9 h 1.45 v 5.08 c 0,1.33 0.23,2.48 1.81,2.48 1.38,0 2.19,-1 2.19,-2.82 V 5.9 h 1.46 v 8.64 h -1.46 v -1.23 a 2.88,2.88 0 0 1 -2.7,1.41 z"
     id="path24" />
  <path
     class="cls-1"
     d="m 176.65,7.26 a 3,3 0 0 1 2.82,-1.5 c 2,0 3.68,1.65 3.68,4.48 0,2.83 -1.72,4.48 -3.68,4.48 a 3,3 0 0 1 -2.82,-1.5 v 4.1 h -1.46 V 5.9 h 1.46 z m 4.91,3 c 0,-2 -1,-3.23 -2.46,-3.23 -1.3,0 -2.52,1 -2.52,3.23 0,2.23 1.22,3.23 2.52,3.23 1.49,-0.02 2.42,-1.2 2.42,-3.25 z"
     id="path26" />
  <path
     class="cls-1"
     d="m 186.22,7.26 a 3,3 0 0 1 2.82,-1.5 c 2,0 3.68,1.65 3.68,4.48 0,2.83 -1.71,4.48 -3.68,4.48 a 3,3 0 0 1 -2.82,-1.5 v 4.1 h -1.46 V 5.9 h 1.46 z m 4.91,3 c 0,-2 -1,-3.23 -2.46,-3.23 -1.3,0 -2.51,1 -2.51,3.23 0,2.23 1.21,3.23 2.51,3.23 1.49,-0.02 2.46,-1.2 2.46,-3.25 z"
     id="path28" />
  <path
     class="cls-1"
     d="m 197.97,14.72 c -2,0 -4.13,-1.36 -4.13,-4.48 0,-3.12 2.12,-4.48 4.13,-4.48 a 4.5,4.5 0 0 1 0,9 z m 2.55,-4.48 c 0,-2.29 -1.26,-3.2 -2.57,-3.2 -1.31,0 -2.58,0.85 -2.58,3.2 0,2.35 1.26,3.2 2.58,3.2 1.32,0 2.57,-0.99 2.57,-3.2 z"
     id="path30" />
  <path
     class="cls-1"
     d="m 207.19,7.36 c -1.34,0 -2,0.75 -2,2.64 v 4.54 h -1.47 V 5.9 h 1.43 v 1.51 a 2.58,2.58 0 0 1 2.43,-1.55 h 0.43 v 1.55 c -0.3,-0.02 -0.58,-0.05 -0.82,-0.05 z"
     id="path32" />
  <path
     class="cls-1"
     d="M 211.58,3.74 V 5.9 h 1.64 v 1.17 h -1.64 v 5.11 c 0,0.89 0.07,1.12 0.9,1.12 h 0.74 v 1.24 h -1.06 c -1.65,0 -2,-0.36 -2,-2.16 V 7.07 H 208.8 V 5.9 h 1.36 V 3.74 Z"
     id="path34" />
  <path
     class="cls-1"
     d="m 218.12,13.44 a 2.32,2.32 0 0 0 2.36,-1.42 h 1.5 a 3.76,3.76 0 0 1 -3.86,2.7 c -2.72,0 -4.22,-2 -4.22,-4.49 a 4.15,4.15 0 0 1 4.18,-4.47 c 2.62,0 4.21,2.21 4,4.93 h -6.56 a 2.63,2.63 0 0 0 2.6,2.75 z m 2.44,-4 a 2.54,2.54 0 0 0 -5.08,0 z"
     id="path36" />
  <path
     class="cls-1"
     d="m 231.15,2.91 v 11.63 h -1.46 v -1.29 a 3,3 0 0 1 -2.82,1.5 c -2,0 -3.68,-1.63 -3.68,-4.48 0,-2.85 1.71,-4.48 3.68,-4.48 a 3,3 0 0 1 2.82,1.5 V 2.91 Z m -6.37,7.33 c 0,2 1,3.23 2.46,3.23 1.3,0 2.51,-1 2.51,-3.23 0,-2.23 -1.21,-3.23 -2.51,-3.23 -1.49,0 -2.46,1.18 -2.46,3.23 z"
     id="path38" />
  <path
     class="cls-1"
     d="m 238.63,7.26 a 3,3 0 0 1 2.82,-1.5 c 2,0 3.68,1.65 3.68,4.48 0,2.83 -1.71,4.48 -3.68,4.48 a 3,3 0 0 1 -2.82,-1.5 v 1.32 h -1.46 V 2.91 h 1.46 z m 4.92,3 c 0,-2 -1,-3.23 -2.47,-3.23 -1.3,0 -2.51,1 -2.51,3.23 0,2.23 1.21,3.23 2.51,3.23 1.49,-0.02 2.44,-1.2 2.44,-3.25 z"
     id="path40" />
  <path
     class="cls-1"
     d="m 249.78,14.88 c -0.62,1.88 -1.07,2.44 -3,2.44 h -0.76 V 16.1 h 0.6 c 1,0 1.42,-0.06 1.8,-1.41 l 0.1,-0.15 -3.11,-8.61 h 1.62 l 2.19,6.65 2.13,-6.65 h 1.52 z"
     id="path42" />
  <path
     class="cls-1"
     d="m 115.37,35.26 3.53,13.13 3.4,-13.13 h 3.22 l -5.11,17.76 h -2.74 l -3.93,-14.3 -3.79,14.3 h -2.73 L 102.1,35.26 h 3.23 l 3.4,13.13 3.54,-13.13 z"
     id="path44" />
  <path
     class="cls-1"
     d="m 134.95,50.8 a 4.77,4.77 0 0 0 4.85,-2.93 h 3.1 c -0.82,3.07 -3.63,5.57 -7.95,5.57 -5.61,0 -8.71,-4 -8.71,-9.27 0,-5.61 3.76,-9.21 8.61,-9.21 5.41,0 8.68,4.56 8.28,10.17 h -13.61 a 5.45,5.45 0 0 0 5.43,5.67 z m 5,-8.25 a 5.24,5.24 0 0 0 -10.43,-0.01 z"
     id="path46" />
  <path
     class="cls-1"
     d="m 149.24,38.06 a 6.26,6.26 0 0 1 5.81,-3.1 c 4.06,0 7.59,3.4 7.59,9.24 0,5.84 -3.53,9.24 -7.59,9.24 a 6.26,6.26 0 0 1 -5.81,-3.1 v 2.68 h -3 V 29.09 h 3 z m 10.13,6.14 c 0,-4.22 -2,-6.66 -5.08,-6.66 -2.67,0 -5.18,2 -5.18,6.66 0,4.66 2.51,6.67 5.18,6.67 3.07,0 5.08,-2.44 5.08,-6.67 z"
     id="path48" />
  <path
     class="cls-1"
     d="m 171.76,41.76 h -0.5 v -2.74 h 0.4 c 4.16,0 6.37,-1.15 6.37,-4 0,-2.57 -2.11,-3.89 -4.66,-3.89 a 4.83,4.83 0 0 0 -5.21,4.65 h -3.1 c 0.36,-4.22 3.36,-7.16 8.38,-7.16 4.16,0 7.76,1.65 7.76,6.07 a 5.89,5.89 0 0 1 -3.9,5.55 c 3.57,1.12 4.56,3.49 4.56,6 0,4.82 -4.1,7.16 -8.65,7.16 -5.61,0 -8.19,-3.49 -8.52,-7.49 h 3.11 c 0.33,2.94 2.07,5 5.44,5 3.17,0 5.41,-1.65 5.41,-4.62 0,-3.41 -3.07,-4.53 -6.89,-4.53 z"
     id="path50" />
  <path
     class="cls-1"
     d="m 198.92,29.09 h 1.6 v 2.51 h -1.49 c -1.58,0 -1.85,0.36 -1.85,2.21 v 1.45 h 3.34 v 2.41 h -3.34 v 15.35 h -3 V 37.67 h -2.48 v -2.41 h 2.48 v -1.29 c -0.05,-3.69 0.71,-4.88 4.74,-4.88 z"
     id="path52" />
  <path
     class="cls-1"
     d="m 210.05,53.44 c -4.12,0 -8.51,-2.8 -8.51,-9.24 0,-6.44 4.39,-9.24 8.51,-9.24 4.12,0 8.52,2.81 8.52,9.24 0,6.43 -4.39,9.24 -8.52,9.24 z m 5.32,-9.24 c 0,-4.72 -2.61,-6.6 -5.32,-6.6 -2.71,0 -5.31,1.75 -5.31,6.6 0,4.85 2.61,6.6 5.31,6.6 2.7,0 5.32,-2.04 5.32,-6.6 z"
     id="path54" />
  <path
     class="cls-1"
     d="m 227.25,53.44 c -4.12,0 -5.67,-2.77 -5.67,-6.83 V 35.26 h 3 v 10.46 c 0,2.74 0.46,5.12 3.73,5.12 2.84,0 4.52,-2 4.52,-5.81 v -9.77 h 3 v 17.76 h -3 v -2.55 a 6,6 0 0 1 -5.58,2.97 z"
     id="path56" />
  <path
     class="cls-1"
     d="m 248.76,34.96 c 4.3,0 5.85,2.77 5.85,6.83 v 11.23 h -3 V 42.68 c 0,-2.73 -0.46,-5.11 -3.89,-5.11 -2.91,0 -4.69,2 -4.69,5.81 v 9.64 h -3 V 35.26 h 3 v 2.67 a 6.18,6.18 0 0 1 5.73,-2.97 z"
     id="path58" />
  <path
     class="cls-1"
     d="m 273.98,29.09 v 23.93 h -3 v -2.68 a 6.26,6.26 0 0 1 -5.81,3.1 c -4.06,0 -7.59,-3.36 -7.59,-9.24 0,-5.88 3.53,-9.24 7.59,-9.24 a 6.26,6.26 0 0 1 5.81,3.1 v -9 z M 260.85,44.2 c 0,4.23 2,6.67 5.08,6.67 2.67,0 5.18,-2 5.18,-6.67 0,-4.67 -2.51,-6.66 -5.18,-6.66 -3.07,0 -5.08,2.44 -5.08,6.66 z"
     id="path60" />
  <path
     class="cls-1"
     d="m 289.12,42.09 v -0.43 c 0,-3.23 -1.82,-4.32 -4,-4.32 -2.47,0 -3.92,1.35 -4.06,3.53 h -3.1 c 0.3,-3.83 3.66,-6 7.13,-6 4.89,0 7.1,2.34 7.06,7.32 v 4.1 a 33.07,33.07 0 0 0 0.46,6.7 h -3 a 18.6,18.6 0 0 1 -0.23,-2.45 c -1.09,1.82 -2.94,2.87 -6.08,2.87 -3.33,0 -6.1,-1.84 -6.1,-5.11 -0.09,-4.16 4.63,-5.38 11.92,-6.21 z m -8.68,6.17 c 0,1.69 1.29,2.81 3.43,2.81 2.81,0 5.48,-1.29 5.48,-5.48 v -1.12 c -5.44,0.56 -8.91,1.35 -8.91,3.79 z"
     id="path62" />
  <path
     class="cls-1"
     d="m 299.8,30.8 v 4.46 h 3.37 v 2.41 H 299.8 V 48.2 c 0,1.85 0.14,2.31 1.85,2.31 h 1.52 v 2.51 h -2.18 c -3.4,0 -4.19,-0.76 -4.19,-4.46 V 37.67 H 294 v -2.41 h 2.8 V 30.8 Z"
     id="path64" />
  <path
     class="cls-1"
     d="m 309.04,32.72 h -3 v -3.63 h 3 z m 0,20.3 h -3 V 35.26 h 3 z"
     id="path66" />
  <path
     class="cls-1"
     d="m 320.75,53.44 c -4.13,0 -8.52,-2.8 -8.52,-9.24 0,-6.44 4.39,-9.24 8.52,-9.24 4.13,0 8.51,2.81 8.51,9.24 0,6.43 -4.39,9.24 -8.51,9.24 z m 5.31,-9.24 c 0,-4.72 -2.61,-6.6 -5.31,-6.6 -2.7,0 -5.32,1.75 -5.32,6.6 0,4.85 2.61,6.6 5.32,6.6 2.71,0 5.31,-2.04 5.31,-6.6 z"
     id="path68" />
  <path
     class="cls-1"
     d="m 341.2,34.96 c 4.29,0 5.84,2.77 5.84,6.83 v 11.23 h -3 V 42.68 c 0,-2.73 -0.46,-5.11 -3.9,-5.11 -2.9,0 -4.68,2 -4.68,5.81 v 9.64 h -3 V 35.26 h 3 v 2.67 a 6.18,6.18 0 0 1 5.74,-2.97 z"
     id="path70" />
  <path
     class="cls-1"
     d="M 119.26,72.02 V 87.4 c 0,3.63 -0.66,5.12 -1.68,6.24 a 8,8 0 0 1 -6.14,2.34 c -4,0 -6.73,-1.85 -7.29,-5.44 h 3.2 c 0.39,1.58 1.35,2.8 4.12,2.8 a 4.72,4.72 0 0 0 3.63,-1.32 c 0.66,-0.69 1.16,-1.52 1.16,-3.93 v -1.68 a 6,6 0 0 1 -5.64,3.07 c -3.93,0 -7.53,-3.17 -7.53,-8.88 0,-5.71 3.6,-8.88 7.53,-8.88 a 6,6 0 0 1 5.64,3.11 v -2.81 z m -12.9,8.58 c 0,4.06 2.08,6.34 5,6.34 2.68,0 5,-1.82 5,-6.34 0,-4.52 -2.34,-6.3 -5,-6.3 -2.92,0 -5,2.24 -5,6.3 z"
     id="path72" />
  <path
     class="cls-1"
     d="m 130.61,75.03 c -2.77,0 -4.16,1.55 -4.16,5.44 v 9.31 h -3 V 72.02 h 2.93 v 3.1 a 5.38,5.38 0 0 1 5,-3.2 6.85,6.85 0 0 1 0.89,0 v 3.2 a 15.79,15.79 0 0 0 -1.66,-0.09 z"
     id="path74" />
  <path
     class="cls-1"
     d="m 145.52,78.85 v -0.43 c 0,-3.23 -1.82,-4.32 -4,-4.32 -2.47,0 -3.92,1.35 -4.06,3.53 h -3.1 c 0.3,-3.83 3.66,-6 7.13,-6 4.88,0 7.1,2.34 7.06,7.33 v 4.09 a 33.07,33.07 0 0 0 0.46,6.7 h -3 a 20.21,20.21 0 0 1 -0.24,-2.44 c -1.08,1.81 -2.93,2.87 -6.07,2.87 -3.33,0 -6.1,-1.85 -6.1,-5.12 -0.08,-4.16 4.6,-5.38 11.92,-6.21 z m -8.68,6.18 c 0,1.68 1.29,2.8 3.43,2.8 2.81,0 5.48,-1.29 5.48,-5.48 v -1.12 c -5.48,0.56 -8.94,1.31 -8.94,3.8 z"
     id="path76" />
  <path
     class="cls-1"
     d="m 161.23,71.72 c 4.29,0 5.84,2.78 5.84,6.84 v 11.22 h -3 V 79.45 c 0,-2.74 -0.46,-5.12 -3.9,-5.12 -2.9,0 -4.68,2 -4.68,5.81 v 9.64 h -3 V 72.02 h 3 v 2.67 a 6.18,6.18 0 0 1 5.74,-2.97 z"
     id="path78" />
  <path
     class="cls-1"
     d="m 174.82,67.54 v 4.45 h 3.37 v 2.41 h -3.37 v 10.53 c 0,1.85 0.13,2.31 1.85,2.31 h 1.52 v 2.51 h -2.18 c -3.4,0 -4.19,-0.76 -4.19,-4.46 V 74.43 h -2.81 v -2.41 h 2.81 v -4.48 z"
     id="path80" />
  <path
     class="cls-1"
     d="m 187.08,74.27 c -1.75,0 -3.73,0.62 -3.73,2.24 0,1.42 1,2.08 2.71,2.41 l 2.51,0.49 c 3.23,0.63 6.07,1.85 6.07,5.29 0,3.44 -3.17,5.51 -7.23,5.51 -4.65,0 -7.29,-3.07 -7.62,-6.17 h 3.17 a 4.16,4.16 0 0 0 4.52,3.63 c 2.27,0 4.12,-1 4.12,-2.64 0,-1.64 -1.68,-2.55 -3.6,-2.94 l -2.64,-0.53 c -2.4,-0.5 -5,-1.62 -5,-4.92 0,-3.13 3.17,-4.95 7.1,-4.95 3.93,0 6.44,2.15 7,5.51 h -3.14 c -0.51,-2.11 -2.16,-2.93 -4.24,-2.93 z"
     id="path82" />
  <path
     class="cls-1"
     d="m 209.12,74.83 a 6.27,6.27 0 0 1 5.81,-3.11 c 4.06,0 7.59,3.4 7.59,9.25 0,5.85 -3.53,9.24 -7.59,9.24 a 6.25,6.25 0 0 1 -5.81,-3.11 v 8.44 h -3 V 72.02 h 3 z m 10.14,6.14 c 0,-4.23 -2,-6.67 -5.09,-6.67 -2.67,0 -5.18,2 -5.18,6.67 0,4.67 2.51,6.66 5.18,6.66 3.07,0 5.09,-2.44 5.09,-6.66 z"
     id="path84" />
  <path
     class="cls-1"
     d="m 232.86,75.03 c -2.77,0 -4.16,1.55 -4.16,5.44 v 9.31 h -3 V 72.02 h 2.94 v 3.1 a 5.36,5.36 0 0 1 5,-3.2 6.85,6.85 0 0 1 0.89,0 v 3.2 a 15.6,15.6 0 0 0 -1.67,-0.09 z"
     id="path86" />
  <path
     class="cls-1"
     d="m 244.18,90.21 c -4.13,0 -8.52,-2.81 -8.52,-9.24 0,-6.43 4.39,-9.25 8.52,-9.25 4.13,0 8.51,2.81 8.51,9.25 0,6.44 -4.39,9.24 -8.51,9.24 z m 5.31,-9.24 c 0,-4.72 -2.61,-6.61 -5.31,-6.61 -2.7,0 -5.32,1.75 -5.32,6.61 0,4.86 2.61,6.6 5.32,6.6 2.71,0 5.34,-2.03 5.34,-6.6 z"
     id="path88" />
  <path
     class="cls-1"
     d="M 271,72.02 V 87.4 c 0,3.63 -0.66,5.12 -1.68,6.24 a 8,8 0 0 1 -6.14,2.34 c -4,0 -6.73,-1.85 -7.3,-5.44 h 3.21 c 0.39,1.58 1.35,2.8 4.12,2.8 a 4.72,4.72 0 0 0 3.63,-1.32 C 267.5,91.33 268,90.5 268,88.09 v -1.68 a 6,6 0 0 1 -5.65,3.07 c -3.92,0 -7.52,-3.17 -7.52,-8.88 0,-5.71 3.6,-8.88 7.52,-8.88 a 6,6 0 0 1 5.65,3.11 v -2.81 z m -12.9,8.58 c 0,4.06 2.07,6.34 5,6.34 2.68,0 5,-1.82 5,-6.34 0,-4.52 -2.34,-6.3 -5,-6.3 -2.93,0 -5,2.24 -5,6.3 z"
     id="path90" />
  <path
     class="cls-1"
     d="m 282.35,75.03 c -2.77,0 -4.16,1.55 -4.16,5.44 v 9.31 h -3 V 72.02 h 2.93 v 3.1 a 5.37,5.37 0 0 1 5,-3.2 6.85,6.85 0 0 1 0.89,0 v 3.2 a 16,16 0 0 0 -1.66,-0.09 z"
     id="path92" />
  <path
     class="cls-1"
     d="m 297.23,78.85 v -0.43 c 0,-3.23 -1.82,-4.32 -4,-4.32 -2.47,0 -3.93,1.35 -4.06,3.53 h -3.1 c 0.3,-3.83 3.66,-6 7.13,-6 4.88,0 7.09,2.34 7.06,7.33 v 4.09 a 33.07,33.07 0 0 0 0.46,6.7 h -3 a 20.52,20.52 0 0 1 -0.23,-2.44 c -1.09,1.81 -2.93,2.87 -6.07,2.87 -3.33,0 -6.11,-1.85 -6.11,-5.12 -0.1,-4.16 4.62,-5.38 11.92,-6.21 z m -8.71,6.18 c 0,1.68 1.28,2.8 3.43,2.8 2.81,0 5.48,-1.29 5.48,-5.48 v -1.12 c -5.42,0.56 -8.91,1.31 -8.91,3.8 z"
     id="path94" />
  <path
     class="cls-1"
     d="M 304.22,89.78 V 72.02 h 3 v 2.67 a 5.88,5.88 0 0 1 5.34,-3 c 2.71,0 4.33,1.19 5.12,3.14 a 6.72,6.72 0 0 1 6,-3.14 c 4.13,0 5.74,2.78 5.74,6.84 v 11.22 h -3 v -10.3 c 0,-2.74 -0.53,-5.12 -3.79,-5.12 -2.58,0 -4.3,2 -4.3,5.81 v 9.64 h -3 V 79.45 c 0,-2.74 -0.53,-5.12 -3.79,-5.12 -2.58,0 -4.29,2 -4.29,5.81 v 9.64 z"
     id="path96" />
  <metadata
     id="metadata101">
    <rdf:RDF>
      <cc:Work
         rdf:about="">
        <dc:title>web3 foundation grants_2</dc:title>
      </cc:Work>
    </rdf:RDF>
  </metadata>
</svg>
