<svg width="20" height="20" viewBox="0 0 20 20" fill="none" xmlns="http://www.w3.org/2000/svg">
<g clip-path="url(#clip0)">
<path d="M12.8707 3.49792H3.57318C2.70077 3.49792 1.99219 4.20651 1.99219 5.07892V18.4191C1.99219 19.2915 2.70077 20.0001 3.57318 20.0001H12.8707C13.7432 20.0001 14.4517 19.2915 14.4517 18.4191V5.07892C14.4476 4.20651 13.7391 3.49792 12.8707 3.49792ZM13.3418 18.415C13.3418 18.6771 13.1288 18.8901 12.8667 18.8901H3.56909C3.30695 18.8901 3.09397 18.6771 3.09397 18.415V5.07892C3.09397 4.81679 3.30695 4.6038 3.56909 4.6038H12.8667C13.1288 4.6038 13.3418 4.81679 13.3418 5.07892V18.415Z" fill="white"/>
<path d="M16.4259 0H7.12836C6.25594 0 5.54736 0.708581 5.54736 1.581C5.54736 1.88818 5.79311 2.13393 6.1003 2.13393C6.40749 2.13393 6.65324 1.88818 6.65324 1.581C6.65324 1.31886 6.86623 1.10588 7.12836 1.10588H16.4259C16.6881 1.10588 16.901 1.31886 16.901 1.581V14.9212C16.901 15.1833 16.6881 15.3963 16.4259 15.3963C16.1187 15.3963 15.873 15.642 15.873 15.9492C15.873 16.2564 16.1187 16.5021 16.4259 16.5021C17.2983 16.5021 18.0069 15.7936 18.0069 14.9212V1.581C18.0069 0.708581 17.2983 0 16.4259 0Z" fill="white"/>
</g>
<defs>
<clipPath id="clip0">
<rect width="20" height="20" fill="white"/>
</clipPath>
</defs>
</svg>
