<svg width="20" height="17" viewBox="0 0 20 17" fill="none" xmlns="http://www.w3.org/2000/svg">
<path d="M18.9308 6.87711C18.1348 4.14203 17.237 2.72883 17.2225 2.70348C17.1714 2.64102 15.9028 1.12289 12.8452 0L12.4412 1.1C13.8958 1.63422 14.9277 2.28594 15.4953 2.70703C13.8009 2.20105 11.7852 1.89117 10 1.89117C8.21477 1.89117 6.1991 2.20105 4.50473 2.70703C5.07223 2.28598 6.10418 1.63422 7.55875 1.1L7.15473 0C4.09727 1.12289 2.82867 2.64102 2.7775 2.70348C2.76301 2.72883 1.86523 4.14203 1.06922 6.87711C0.302031 9.51289 0.0105859 13.2312 0 13.3803C0.0683594 13.4872 1.64062 16.1716 5.92551 16.1716L7.0116 14.5988C5.7948 14.2757 4.63453 13.7547 3.57242 13.0477L4.22176 12.0722C5.93523 13.2127 7.93332 13.8156 10 13.8156C12.0667 13.8156 14.0648 13.2127 15.7782 12.0722L16.4276 13.0477C15.3655 13.7547 14.2052 14.2757 12.9884 14.5988L14.0745 16.1716C18.3594 16.1716 19.9316 13.4872 20 13.3803C19.9894 13.2312 19.698 9.51289 18.9308 6.87711ZM7.2907 9.94281H6.11883V7.98969H7.2907V9.94281ZM13.8812 9.94281H12.7093V7.98969H13.8812V9.94281Z" fill="#898989"/>
</svg>
