<svg width="40" height="36" viewBox="0 0 40 36" fill="none" xmlns="http://www.w3.org/2000/svg">
<g filter="url(#filter0_d)">
<path d="M27.071 19.1422L21.4141 24.799C20.6331 25.5801 19.3667 25.5801 18.5857 24.799L12.9288 19.1422C10.9762 17.1895 10.9762 14.0237 12.9288 12.0711C14.8814 10.1185 18.0473 10.1185 19.9999 12.0711C21.9525 10.1185 25.1183 10.1185 27.071 12.0711C29.0236 14.0237 29.0236 17.1895 27.071 19.1422Z" fill="#C4C4C4" fill-opacity="0.1" shape-rendering="crispEdges"/>
<path d="M27.071 19.1422L21.4141 24.799C20.6331 25.5801 19.3667 25.5801 18.5857 24.799L12.9288 19.1422C10.9762 17.1895 10.9762 14.0237 12.9288 12.0711C14.8814 10.1185 18.0473 10.1185 19.9999 12.0711C21.9525 10.1185 25.1183 10.1185 27.071 12.0711C29.0236 14.0237 29.0236 17.1895 27.071 19.1422Z" stroke="#898989" stroke-linecap="round" stroke-linejoin="round" shape-rendering="crispEdges"/>
</g>
<defs>
<filter id="filter0_d" x="0.964355" y="0.106628" width="38.0711" height="35.7782" filterUnits="userSpaceOnUse" color-interpolation-filters="sRGB">
<feFlood flood-opacity="0" result="BackgroundImageFix"/>
<feColorMatrix in="SourceAlpha" type="matrix" values="0 0 0 0 0 0 0 0 0 0 0 0 0 0 0 0 0 0 127 0" result="hardAlpha"/>
<feOffset/>
<feGaussianBlur stdDeviation="5"/>
<feComposite in2="hardAlpha" operator="out"/>
<feColorMatrix type="matrix" values="0 0 0 0 0 0 0 0 0 0 0 0 0 0 0 0 0 0 0.2 0"/>
<feBlend mode="normal" in2="BackgroundImageFix" result="effect1_dropShadow"/>
<feBlend mode="normal" in="SourceGraphic" in2="effect1_dropShadow" result="shape"/>
</filter>
</defs>
</svg>
