<svg width="20" height="20" viewBox="0 0 20 20" fill="none" xmlns="http://www.w3.org/2000/svg">
<path d="M14.6875 3.55469H5.3125C4.34326 3.55469 3.55469 4.34326 3.55469 5.3125V14.6875C3.55469 15.6567 4.34326 16.4453 5.3125 16.4453H14.6875C15.6567 16.4453 16.4453 15.6567 16.4453 14.6875V5.3125C16.4453 4.34326 15.6567 3.55469 14.6875 3.55469ZM10 14.1016C7.73865 14.1016 5.89844 12.2614 5.89844 10C5.89844 7.73865 7.73865 5.89844 10 5.89844C12.2614 5.89844 14.1016 7.73865 14.1016 10C14.1016 12.2614 12.2614 14.1016 10 14.1016ZM14.1016 7.07031C13.4555 7.07031 12.9297 6.54449 12.9297 5.89844C12.9297 5.25238 13.4555 4.72656 14.1016 4.72656C14.7476 4.72656 15.2734 5.25238 15.2734 5.89844C15.2734 6.54449 14.7476 7.07031 14.1016 7.07031Z" fill="#898989"/>
<path d="M10 7.07031C8.3847 7.07031 7.07031 8.3847 7.07031 10C7.07031 11.6153 8.3847 12.9297 10 12.9297C11.6153 12.9297 12.9297 11.6153 12.9297 10C12.9297 8.3847 11.6153 7.07031 10 7.07031Z" fill="#898989"/>
<path d="M17.0312 0H2.96875C1.35345 0 0 1.35345 0 2.96875V17.0312C0 18.6465 1.35345 20 2.96875 20H17.0312C18.6465 20 20 18.6465 20 17.0312V2.96875C20 1.35345 18.6465 0 17.0312 0ZM17.6172 14.6875C17.6172 16.3028 16.3028 17.6172 14.6875 17.6172H5.3125C3.6972 17.6172 2.38281 16.3028 2.38281 14.6875V5.3125C2.38281 3.6972 3.6972 2.38281 5.3125 2.38281H14.6875C16.3028 2.38281 17.6172 3.6972 17.6172 5.3125V14.6875Z" fill="#898989"/>
</svg>
