<svg width="21" height="20" viewBox="0 0 21 20" fill="none" xmlns="http://www.w3.org/2000/svg">
<path d="M19.9527 8.81518C19.8879 8.40889 19.506 8.1321 19.0997 8.19692C18.6934 8.26174 18.4166 8.64368 18.4814 9.04998C18.4821 9.05443 18.4828 9.05884 18.4836 9.06325C19.2423 13.5292 16.2369 17.7645 11.771 18.5231C7.3051 19.2817 3.06979 16.2764 2.31115 11.8105C1.5525 7.34461 4.55788 3.1093 9.02375 2.35066C11.7702 1.88412 14.5657 2.84347 16.4469 4.89813L13.1467 5.99769C12.7563 6.12759 12.5452 6.54934 12.675 6.93975C12.6751 6.93984 12.6751 6.93997 12.6751 6.94005C12.8051 7.33046 13.2268 7.5416 13.6172 7.41174C13.6173 7.4117 13.6174 7.41165 13.6175 7.41165L18.0873 5.92173C18.3916 5.82038 18.5969 5.53556 18.5969 5.21477V0.74498C18.5969 0.333532 18.2634 0 17.8519 0C17.4405 0 17.1069 0.333532 17.1069 0.74498V3.46632C13.2704 -0.182677 7.20217 -0.0306424 3.55318 3.80587C-0.0958233 7.64239 0.0561675 13.7106 3.89273 17.3596C7.7293 21.0087 13.7975 20.8567 17.4465 17.0201C19.5273 14.8323 20.4559 11.7922 19.9527 8.81518Z" fill="white"/>
</svg>
