<svg width="24" height="24" viewBox="0 0 24 24" fill="none" xmlns="http://www.w3.org/2000/svg">
<path d="M21.7722 20.6726L16.8912 15.7917C18.1044 14.3327 18.8354 12.4593 18.8354 10.4179C18.8354 5.77627 15.0592 2 10.4177 2C5.77617 2 2 5.77627 2 10.4179C2 15.0593 5.77617 18.8353 10.4177 18.8353C12.459 18.8353 14.3325 18.1044 15.7915 16.8912L20.6725 21.7722C20.8243 21.9241 21.0234 21.9999 21.2224 21.9999C21.4213 21.9999 21.6204 21.9241 21.7723 21.7722C22.0759 21.4685 22.0759 20.9762 21.7722 20.6726ZM3.55517 10.4179C3.55517 6.6338 6.63369 3.55517 10.4177 3.55517C14.2017 3.55517 17.2801 6.6338 17.2801 10.4179C17.2801 14.2018 14.2017 17.2801 10.4177 17.2801C6.63369 17.2801 3.55517 14.2018 3.55517 10.4179Z" fill="#898989"/>
</svg>
