<svg width="24" height="24" viewBox="0 0 24 24" fill="none" xmlns="http://www.w3.org/2000/svg">
<path d="M11.9989 18.6941C11.622 18.6941 11.3164 18.9997 11.3164 19.3766V21.317C11.3164 21.6939 11.622 21.9995 11.9989 21.9995C12.3759 21.9995 12.6814 21.6939 12.6814 21.317V19.3766C12.6814 18.9996 12.3758 18.6941 11.9989 18.6941Z" fill="#898989"/>
<path d="M11.9989 5.30558C12.3759 5.30558 12.6814 5.00001 12.6814 4.6231V2.68248C12.6814 2.30557 12.3759 2 11.9989 2C11.622 2 11.3164 2.30557 11.3164 2.68248V4.6231C11.3164 5.00001 11.622 5.30558 11.9989 5.30558Z" fill="#898989"/>
<path d="M6.3014 16.7332L4.9288 18.1051C4.66217 18.3715 4.66208 18.8036 4.92852 19.0702C5.06183 19.2035 5.23655 19.2702 5.41126 19.2702C5.58589 19.2702 5.76042 19.2036 5.89373 19.0704L7.26634 17.6986C7.53297 17.4321 7.53306 17 7.26661 16.7334C6.99999 16.4668 6.56794 16.4668 6.3014 16.7332Z" fill="#898989"/>
<path d="M17.2156 7.46569C17.3903 7.46569 17.5649 7.39908 17.6982 7.26586L19.0706 5.89398C19.3371 5.62745 19.3372 5.1954 19.0708 4.92877C18.8043 4.66215 18.3722 4.66206 18.1056 4.92868L16.7332 6.30056C16.4666 6.567 16.4665 6.99915 16.733 7.26568C16.8662 7.39908 17.0409 7.46569 17.2156 7.46569Z" fill="#898989"/>
<path d="M5.3054 11.9999C5.3054 11.623 4.99983 11.3174 4.62292 11.3174H2.68248C2.30557 11.3174 2 11.623 2 11.9999C2 12.3768 2.30557 12.6823 2.68248 12.6823H4.62292C4.99983 12.6823 5.3054 12.3768 5.3054 11.9999Z" fill="#898989"/>
<path d="M21.3174 11.3174H19.3761C18.9991 11.3174 18.6936 11.623 18.6936 11.9999C18.6936 12.3768 18.9991 12.6823 19.3761 12.6823H21.3174C21.6944 12.6823 21.9999 12.3768 21.9999 11.9999C21.9999 11.623 21.6944 11.3174 21.3174 11.3174Z" fill="#898989"/>
<path d="M6.30127 7.26575C6.43449 7.39897 6.60921 7.46558 6.78383 7.46558C6.95846 7.46558 7.13317 7.39897 7.26639 7.26575C7.53292 6.99922 7.53292 6.56707 7.26639 6.30054L5.89451 4.92866C5.62798 4.66213 5.19583 4.66213 4.92939 4.92866C4.66286 5.19519 4.66286 5.62734 4.92939 5.89378L6.30127 7.26575Z" fill="#898989"/>
<path d="M17.6989 16.7331C17.4324 16.4666 17.0002 16.4665 16.7337 16.7331C16.467 16.9996 16.467 17.4317 16.7336 17.6982L18.1053 19.0701C18.2386 19.2034 18.4132 19.27 18.5879 19.27C18.7626 19.27 18.9373 19.2034 19.0705 19.0701C19.3371 18.8036 19.3371 18.3715 19.0706 18.105L17.6989 16.7331Z" fill="#898989"/>
<path d="M11.9995 6.68774C9.07061 6.68774 6.68774 9.07079 6.68774 11.9999C6.68774 14.9289 9.07061 17.3119 11.9995 17.3119C14.9288 17.3119 17.3118 14.9289 17.3118 11.9999C17.3118 9.07079 14.9287 6.68774 11.9995 6.68774ZM11.9995 15.9469C9.82325 15.9469 8.05271 14.1763 8.05271 11.9999C8.05271 9.82343 9.82325 8.05271 11.9995 8.05271C14.1761 8.05271 15.9468 9.82343 15.9468 11.9999C15.9468 14.1763 14.1761 15.9469 11.9995 15.9469Z" fill="#898989"/>
</svg>
