<svg width="20" height="17" viewBox="0 0 20 17" fill="none" xmlns="http://www.w3.org/2000/svg">
<path d="M20 1.92375C19.2563 2.25 18.4637 2.46625 17.6375 2.57125C18.4875 2.06375 19.1363 1.26625 19.4412 0.305C18.6488 0.7775 17.7738 1.11125 16.8412 1.2975C16.0887 0.49625 15.0162 0 13.8462 0C11.5763 0 9.74875 1.8425 9.74875 4.10125C9.74875 4.42625 9.77625 4.73875 9.84375 5.03625C6.435 4.87 3.41875 3.23625 1.3925 0.7475C1.03875 1.36125 0.83125 2.06375 0.83125 2.82C0.83125 4.24 1.5625 5.49875 2.6525 6.2275C1.99375 6.215 1.3475 6.02375 0.8 5.7225C0.8 5.735 0.8 5.75125 0.8 5.7675C0.8 7.76 2.22125 9.415 4.085 9.79625C3.75125 9.8875 3.3875 9.93125 3.01 9.93125C2.7475 9.93125 2.4825 9.91625 2.23375 9.86125C2.765 11.485 4.2725 12.6788 6.065 12.7175C4.67 13.8088 2.89875 14.4662 0.98125 14.4662C0.645 14.4662 0.3225 14.4513 0 14.41C1.81625 15.5813 3.96875 16.25 6.29 16.25C13.835 16.25 17.96 10 17.96 4.5825C17.96 4.40125 17.9538 4.22625 17.945 4.0525C18.7588 3.475 19.4425 2.75375 20 1.92375Z" fill="white"/>
</svg>
