<svg width="32" height="31" viewBox="0 0 32 31" fill="none" xmlns="http://www.w3.org/2000/svg">
<path d="M28.866 11.3325C28.944 11.5719 29.5668 12.077 29.9411 12.3798L29.9433 12.3816C30.8594 13.1258 32 14.0525 32 15.4676C32 16.8958 30.8429 17.8505 29.912 18.6175L29.893 18.6332C29.5247 18.9376 28.9281 19.4307 28.8501 19.6556C28.7776 19.8931 28.9776 20.6824 29.098 21.1575L29.0988 21.1604C29.4068 22.3757 29.7559 23.7549 28.9427 24.8697C28.1363 25.977 26.7333 26.0727 25.4947 26.1572L25.4873 26.1577C24.9901 26.1908 24.1583 26.2463 23.9481 26.401C23.7374 26.5558 23.432 27.3067 23.2434 27.7705L23.234 27.7934L23.2312 27.8002C22.7651 28.949 22.2383 30.2472 20.9476 30.6868C19.6382 31.1351 18.4037 30.35 17.4133 29.7201L17.405 29.7148C16.958 29.4292 16.281 28.9981 15.9993 28.9981C15.714 28.9981 15.0374 29.4256 14.5812 29.7139L14.5672 29.7228L14.5508 29.733C13.7273 30.2514 12.8151 30.8256 11.8273 30.8256C11.576 30.8256 11.3181 30.7886 11.0576 30.7026C9.75962 30.2836 9.22927 28.9728 8.76129 27.8161L8.76069 27.8146L8.76013 27.8132C8.57101 27.3462 8.25667 26.5701 8.04794 26.4181C7.839 26.266 7.01781 26.2131 6.52719 26.1788L6.52431 26.1786C5.34392 26.0992 3.87782 26.0007 3.04406 24.8987C2.18957 23.7655 2.56444 22.3237 2.86574 21.1647L2.86688 21.1604C2.99119 20.6883 3.19744 19.8975 3.11812 19.6542C3.03744 19.4082 2.44106 18.9123 2.04569 18.5844C1.13462 17.828 0 16.8851 0 15.4663C0 14.0394 1.15496 13.0864 2.08427 12.3197L2.08681 12.3176L2.09418 12.3115C2.46261 12.008 3.07122 11.5067 3.15 11.2795C3.22274 11.0445 3.0251 10.2673 2.90273 9.78611L2.89613 9.76013C2.58669 8.55544 2.23631 7.19076 3.01781 6.08394C3.81339 4.95801 5.22839 4.86219 6.47745 4.7776L6.47975 4.77744C6.97963 4.74438 7.81669 4.68882 8.02563 4.53413C8.2382 4.37794 8.54723 3.61612 8.73542 3.15222L8.73969 3.14169L8.74468 3.12941C9.21026 1.9846 9.73736 0.688498 11.0274 0.249693C12.3431 -0.197307 13.5914 0.606693 14.5898 1.25601L14.5969 1.26062C15.0492 1.55419 15.7245 1.99257 15.9994 1.99257C16.284 1.99257 16.9588 1.56737 17.4163 1.27916L17.4342 1.26788L17.4351 1.26732C18.4729 0.610267 19.6522 -0.136312 20.9424 0.285381C22.2397 0.703255 22.7712 2.01507 23.2381 3.17213C23.4271 3.63894 23.7432 4.41782 23.9534 4.56988C24.1562 4.71712 24.9456 4.7723 25.4394 4.80682L25.4742 4.80925L25.4772 4.80946C26.6615 4.8888 28.1341 4.98745 28.9533 6.10388C29.7765 7.22838 29.41 8.65663 29.1153 9.80533L29.1146 9.80782C28.9916 10.2839 28.7867 11.0839 28.866 11.3325Z" fill="url(#paint0_linear)"/>
<path d="M21.9137 10.4851C21.3504 10.0144 20.5185 10.091 20.0518 10.6504L14.1553 17.7L11.6468 15.1928C11.1297 14.6757 10.294 14.6757 9.77696 15.1928C9.25989 15.7098 9.25989 16.5456 9.77696 17.0626L13.3077 20.5933C13.555 20.8433 13.8922 20.9808 14.2427 20.9808C14.2612 20.9808 14.281 20.9808 14.2995 20.9781C14.6724 20.9623 15.0176 20.7904 15.2556 20.5061L22.0789 12.347C22.547 11.7864 22.4744 10.9532 21.9137 10.4851Z" fill="white"/>
<defs>
<linearGradient id="paint0_linear" x1="16" y1="0.120361" x2="16" y2="30.8256" gradientUnits="userSpaceOnUse">
<stop stop-color="#FCA963"/>
<stop offset="1" stop-color="#FD4857"/>
</linearGradient>
</defs>
</svg>
